{
.formatVersion = 3;
DisplayStrings = (
"TRANS 7 HD SCTV",
"noaiepbcasdĺlľhkmurftszqgjitvuywx",
"μÀÁÂÃÄÅÆÇÈÉÊËÌÍÎÏÐÑÒÓÔÕÖ×ØÙÚÛÜÝÞßàáâãäåæçèéêëìíîïðñòóôõö÷øùúûüýþÿĀāĂăĄąĆćĈĉĊċČčĎďĐđĒēĔĕĖėĘęĚěĜĝĞğĠġĢģĤĥĦħĨĩĪīĮįİıĲĳĴĵĶķĸĹĺĻļĽľĿŀŁłŃńŅņŇňŉŌōŎŏŐőŒœŔŕŖŗŘřŚśŜŝŞşŠšŢţŤťŦŧŨũŪūŬŭŮůŰűŲųŴŵŶŷŸŹźŻżŽžſƒȘșȚțȷˆˇ˘˙˚˛˜˝μπẀẁẂẃẄẅ",
"THE QUICK BROWN FOX JUMPS OVER THE LAZY DOG-0123456789.,!?&$()",
"⁄$¢€£¥¤+−×÷=≠><≤≥±≈~¬∞®©™°|¦^´˘¸¨˙`˝¯˛˚˜"
);
axes = (
{
name = Weight;
tag = wght;
}
);
classes = (
{
code = "B C Cacute Ccaron Ccedilla Ccircumflex Cdotaccent D Eth Dcaron Dcroat H Hbar Hcircumflex K Kcommaaccent L Lacute Lcaron Lcommaaccent Ldot Lslash Oacute Obreve Ocircumflex Odieresis Ograve Ohungarumlaut Omacron Oslash Otilde OE P Thorn R Racute Rcaron Rcommaaccent S Sacute Scaron Scircumflex Scommaaccent V X b c cacute ccaron ccedilla ccircumflex cdotaccent d eth dcaron dcroat g gbreve gcircumflex gcommaaccent gdotaccent h hbar hcircumflex dotlessi iacute icircumflex idieresis igrave ij imacron iogonek itilde jcircumflex k kcommaaccent kgreenlandic m n nacute ncaron ncommaaccent ntilde oacute obreve ocircumflex odieresis ograve ohungarumlaut omacron oslash otilde p thorn q r racute rcaron rcommaaccent s sacute scaron scircumflex scommaaccent germandbls u uacute ubreve ucircumflex udieresis ugrave uhungarumlaut umacron uogonek uring utilde v x fi fl backslash bullet exclam exclamdown period question questiondown quotedbl quotesingle braceleft braceright bracketleft bracketright parenleft parenright emdash endash hyphen quotedblbase quotedblleft quotedblright quoteleft quoteright quotesinglbase at ampersand";
name = aalt;
},
{
code = "bullet.case emdash.case endash.case hyphen.case";
name = aalt2;
},
{

glyphs = (
{
glyphname = A;
layers = (
{
hints = (
{
horizontal = 1;
origin = (0,0);
target = down;
type = TopGhost;
},
{
horizontal = 1;
origin = (0,1);
target = up;
type = BottomGhost;
}
);
layerId = "FB39A38C-31F6-4F37-9C40-5E842EB56E93";
shapes = (
{
closed = 1;
nodes = (
(409.55,1444,l,{name = ab01;}),
(2.2,0,l,{name = ab02;}),
(440.2,0,l,{name = av02;}),
(516.5,287,l),
(1016.2,287,l),
(1096,0,l,{name = ab03;}),
(1533.8,0,l,{name = av01;}),
(1125.35,1444,l)
);
},
{
closed = 1;
nodes = (
(604,616,l,{name = iv01;}),
(750.95,1168.6,l),
(771,1168.6,l),
(924.7,616,l,{name = iv02;})
);
}
);
width = 1536;
},
{
hints = (
{
horizontal = 1;
origin = (0,3);
target = (1,0);
type = Stem;
},
{
horizontal = 1;
origin = (0,0);
target = down;
type = TopGhost;
},
{
horizontal = 1;
origin = (0,1);
target = up;
type = BottomGhost;
}
);
layerId = "BB5EAC9A-3BFE-4B64-B8A6-57F3EF362270";
shapes = (
{
closed = 1;
nodes = (
(487.775,1444,l,{name = n00;}),
(26.1,0,l,{name = ab01;}),
(288.1,0,l),
(411.9,384.175,l,{name = dv01;}),
(983.2,384.175,l,{name = n04;}),
(1108.5,0,l,{name = ab02;}),
(1369.4,0,l),
(906.675,1444,l)
);
},
{
closed = 1;
nodes = (
(468.3,584.2,l,{name = dv02;}),
(686.55,1267.35,l),
(703.6,1267.35,l),
(924.825,584.2,l,{name = n11;})
);
}
);
width = 1396;
},
{
hints = (
{
horizontal = 1;
origin = (0,3);
target = (1,0);
type = Stem;
},
{
horizontal = 1;
origin = (0,0);
target = down;
type = TopGhost;
},
{
horizontal = 1;
origin = (0,1);
target = up;
type = BottomGhost;
}
);
layerId = "6CA6CED3-33C1-4F88-A0AA-B66472516184";
shapes = (
{
closed = 1;
nodes = (
(566,1444,l,{name = ab01;}),
(50,0,l,{name = ab02;}),
(136,0,l,{name = av03;}),
(307.3,481.35,l,{name = dv01;}),
(950.2,481.35,l),
(1121,0,l,{name = ab03;}),
(1208,0,l,{name = av01;}),
(691,1444,l,{name = av02;})
);
},
{
closed = 1;
nodes = (
(332.6,552.4,l,{name = dv02;}),
(622.15,1366.1,l),
(636.2,1366.1,l),
(924.95,552.4,l)
);
}
);
width = 1255;
}
);
leftKerningGroup = A2;
rightKerningGroup = A;
unicode = 65;
},
{
color = (153, 255, 154, 255);
glyphname = AE;
rightMetricsKey = E;
layers = (
{
hints = (
{
horizontal = 1;
origin = (0,0);
target = down;
type = TopGhost;
},
{
horizontal = 1;
origin = (0,1);
target = up;
type = BottomGhost;
}
);
layerId = "FB39A38C-31F6-4F37-9C40-5E842EB56E93";
shapes = (
{
closed = 1;
nodes = (
(409.55,1444,l,{name = ab01;}),
(2.2,0,l,{name = ab02;}),
(440.2,0,l,{name = av02;}),
(516.5,287,l),
(866.35,287,l),
(866.35,0,l,{name = n00;}),
(1966.6,0,l,{name = n11;}),
(1966.6,377.9,l,{name = n10;}),
(1290.05,377.9,l,{name = n09;}),
(1290.05,562.15,l),
(1928.15,562.15,l,{name = n07;}),
(1928.15,917.15,l,{name = n06;}),
(1290.05,917.15,l),
(1290.05,1066.1,l),
(1963,1066.1,l,{name = n03;}),
(1963,1444,l,{name = n02;})
);
},
{
closed = 1;
nodes = (
(604,616,l,{name = iv01;}),
(750.95,1168.6,l),
(866.35,1168.6,l),
(866.35,616,l)
);
}
);
width = 2048;
},
{
hints = (
{
horizontal = 1;
origin = (0,5);
target = (0,8);
type = Stem;
},
{
horizontal = 1;
origin = (0,3);
target = (1,0);
type = Stem;
},
{
horizontal = 1;
origin = (0,9);
target = (0,12);
type = Stem;
},
{
horizontal = 1;
origin = (0,13);
target = (0,0);
type = Stem;
},
{
horizontal = 1;
origin = (1,1);
target = (0,0);
type = Stem;
}
);
layerId = "BB5EAC9A-3BFE-4B64-B8A6-57F3EF362270";
shapes = (
{
closed = 1;
nodes = (
(487.75,1444,l,{name = n00.1;}),
(26.1,0,l,{name = ab01;}),
(288.1,0,l),
(411.9,384.15,l,{name = dv02;}),
(818.3,384.15,l),
(818.3,0,l,{name = n00;}),
(1775.45,0,l,{name = n11;}),
(1775.45,225.5,l,{name = n10;}),
(1069.15,225.5,l,{name = n09;}),
(1069.15,650.65,l,{name = dv04;}),
(1743.2,650.65,l,{name = n07;}),
(1743.2,863.6,l,{name = n06;}),
(1069.15,863.6,l,{name = dv05;}),
(1069.15,1218.5,l,{name = sv01;}),
(1781.65,1218.5,l,{name = n03;}),
(1781.65,1444,l,{name = n02;})
);
},
{
closed = 1;
nodes = (
(468.3,584.2,l,{name = dv03;}),
(686.55,1267.35,l,{name = dv01;}),
(818.3,1267.35,l),
(818.3,584.2,l)
);
}
);
width = 1886;
},
{
hints = (
{
origin = (1,3);
target = (0,9);
type = Stem;
},
{
horizontal = 1;
origin = (0,5);
target = (0,8);
type = Stem;
},
{
horizontal = 1;
origin = (0,3);
target = (1,0);
type = Stem;
},
{
horizontal = 1;
origin = (0,9);
target = (0,12);
type = Stem;
},
{
horizontal = 1;
origin = (0,13);
target = (0,0);
type = Stem;
}
);
layerId = "6CA6CED3-33C1-4F88-A0AA-B66472516184";
shapes = (
{
closed = 1;
nodes = (
(566,1444,l,{name = ab01;}),
(50,0,l,{name = ab02;}),
(136,0,l,{name = av03.1;}),
(307.3,481.35,l,{name = dv01;}),
(694.95,481.35,l,{name = sh01;}),
(694.95,0,l,{name = ab03;}),
(1508.95,0,l),
(1508.95,73.05,l,{name = sv01;}),
(772.95,73.05,l),
(772.95,739.2,l,{name = av06;}),
(1482.95,739.2,l,{name = av03;}),
(1482.95,810.1,l,{name = av04;}),
(772.95,810.1,l,{name = av00;}),
(772.95,1370.95,l,{name = dv03;}),
(1524.95,1370.95,l,{name = av01;}),
(1524.95,1444,l)
);
},
{
closed = 1;
nodes = (
(332.6,552.4,l,{name = dv02;}),
(622.15,1366.1,l,{name = sv02;}),
(694.95,1366.1,l),
(694.95,552.4,l,{name = dh01;})
);
}
);
width = 1647;
}
);
leftKerningGroup = A2;
rightKerningGroup = E;
unicode = 198;
},
{
glyphname = B;
layers = (
{
hints = (
{
horizontal = 1;
origin = (2,15);
target = up;
type = BottomGhost;
},
{
horizontal = 1;
origin = (2,2);
target = down;
type = TopGhost;
}
);
layerId = "FB39A38C-31F6-4F37-9C40-5E842EB56E93";
shapes = (
{
closed = 1;
nodes = (
(569.9,354.784,l),
(807,354.784,ls,{name = n01;}),
(876.633,354.784,o),
(947,369.389,o),
(947,472.092,cs,{name = n04;}),
(947,563.666,o),
(874.556,593.815,o),
(809.889,593.815,cs,{name = n07;}),
(569.9,593.815,l,{name = n08;})
);
},
{
closed = 1;
nodes = (
(569.9,875.711,l,{name = n09;}),
(762,875.711,ls,{name = dv01;}),
(817.889,875.711,o),
(904.889,882.527,o),
(904.889,978.669,cs,{name = n13;}),
(904.889,1076.009,o),
(818.889,1088.66,o),
(769.667,1088.66,cs,{name = n16;}),
(569.9,1088.66,l,{name = n17;})
);
},
{
closed = 1;
nodes = (
(146.199,0.009,l),
(146.199,1444.067,l),
(871.333,1444,ls,{name = n20;}),
(1187.556,1443.971,o),
(1328.6,1271.18,o),
(1328.6,1036.894,cs,{name = n23;}),
(1328.6,893.905,o),
(1263.508,794.663,o),
(1087.045,741,c),
(1087.045,726.24,l),
(1264.093,689.719,o),
(1378.222,576.396,o),
(1378.222,387.096,cs,{name = n29;}),
(1378.222,189.457,o),
(1237.889,-0.004,o),
(899.111,0,cs,{name = n32;})
);
}
);
width = 1426;
},
{
hints = (
{
origin = (2,0);
target = (0,0);
type = Stem;
},
{
horizontal = 1;
origin = (2,15);
target = (0,1);
type = Stem;
},
{
horizontal = 1;
origin = (0,7);
target = (1,1);
type = Stem;
},
{
horizontal = 1;
origin = (1,7);
target = (2,2);
type = Stem;
}
);
layerId = "BB5EAC9A-3BFE-4B64-B8A6-57F3EF362270";
shapes = (
{
closed = 1;
nodes = (
(487.45,213.922,l,{name = sv01;}),
(844,213.922,ls),
(944.316,213.922,o),
(1077,249.961,o),
(1077,425.229,cs,{name = n04;}),
(1077,609.241,o),
(925.278,659.077,o),
(811.944,659.077,cs,{name = dv03;}),
(487.45,659.077,l,{name = n08;})
);
},
{
closed = 1;
nodes = (
(487.45,865.055,l,{name = n09;}),
(788.5,865.055,ls,{name = dv04;}),
(893.944,865.055,o),
(1022.944,902.407,o),
(1022.944,1051.872,cs,{name = n13;}),
(1022.944,1203.942,o),
(888.444,1229.8,o),
(799.583,1229.8,cs,{name = dv01;}),
(487.45,1229.8,l,{name = n17;})
);
},
{
closed = 1;
nodes = (
(236.6,0.003,l,{name = ab01;}),
(236.6,1444.033,l,{name = n19;}),
(850.417,1444,ls,{name = dv02;}),
(1142.778,1443.984,o),
(1274.8,1288.59,o),
(1274.8,1071.228,cs,{name = n23;}),
(1274.8,926.728,o),
(1199.712,805.335,o),
(1029.186,765.5,c),
(1029.186,753.008,l),
(1202.326,726.599,o),
(1333.149,601.248,o),
(1332.611,387.478,cs,{name = n30;}),
(1332.169,190.888,o),
(1203.944,-0.001,o),
(890.056,0,cs)
);
}
);
width = 1413;
},
{
hints = (
{
origin = (2,0);
target = (0,0);
type = Stem;
},
{
origin = (1,4);
target = (2,5);
type = Stem;
},
{
origin = (0,4);
target = (2,12);
type = Stem;
},
{
horizontal = 1;
origin = (2,15);
target = (0,1);
type = Stem;
},
{
horizontal = 1;
origin = (0,7);
target = (1,1);
type = Stem;
},
{
horizontal = 1;
origin = (1,7);
target = (2,2);
type = Stem;
}
);
layerId = "6CA6CED3-33C1-4F88-A0AA-B66472516184";
shapes = (
{
closed = 1;
nodes = (
(405,73.06,l,{name = sv01;}),
(881,73.06,ls),
(1012,73.06,o),
(1207,132.152,o),
(1207,387.86,cs,{name = ih01;}),
(1207,672.577,o),
(976,744.339,o),
(814,744.339,cs,{name = dv03;}),
(405,744.339,l)
);
},
{
closed = 1;
nodes = (
(405,814.399,l,{name = sh01;}),
(815,814.399,ls,{name = sv02;}),
(970,814.399,o),
(1141,886.384,o),
(1141,1105.562,cs,{name = dh01;}),
(1141,1329.039,o),
(958,1370.94,o),
(829.5,1370.94,cs,{name = dv01;}),
(405,1370.94,l)
);
},
{
closed = 1;
nodes = (
(327,-0.003,l,{name = sv04;}),
(327,1444,l,{name = sv05;}),
(829.5,1444,ls,{name = dv02;}),
(1098,1444,o),
(1221,1306,o),
(1221,1105.562,cs,{name = dh02;}),
(1221,959.551,o),
(1135.916,816.008,o),
(971.328,790,c),
(971.328,779.776,l),
(1140.559,763.48,o),
(1288.076,626.101,o),
(1287,387.86,cs,{name = sh02;}),
(1286.117,192.318,o),
(1170,0.002,o),
(881,0,cs)
);
}
);
width = 1400;
}
);
leftKerningGroup = B2;
rightKerningGroup = B;
unicode = 66;
},
{
glyphname = C;
layers = (
{
hints = (
{
horizontal = 1;
origin = (0,34);
target = down;
type = TopGhost;
},
{
horizontal = 1;
origin = (0,2);
target = up;
type = BottomGhost;
}
);
layerId = "FB39A38C-31F6-4F37-9C40-5E842EB56E93";
shapes = (
{
closed = 1;
nodes = (
(90.45,266.5,o),
(419.9,-23.8,o),
(874,-23.8,cs,{name = av02;}),
(1279.4,-23.8,o),
(1581.8,188.7,o),
(1644.15,535.4,cs),
(1647.15,552,o),
(1649.85,567.25,o),
(1652.35,583,c),
(1196.5,583,l),
(1192.1,570.3,o),
(1187.4,557.6,o),
(1182.4,546.4,cs),
(1137.6,446.4,o),
(1029.8,380.4,o),
(869.2,380.4,cs),
(653.5,380.4,o),
(531.75,526.95,o),
(531.75,724.1,cs),
(531.75,915.8,o),
(653.4,1065.5,o),
(870.85,1065.5,cs),
(1032.6,1065.5,o),
(1141.25,994.6,o),
(1186.1,890.7,cs),
(1189.65,882.4,o),
(1193.05,873.2,o),
(1196.3,863.85,c),
(1651.9,863.85,l),
(1650.2,874.45,o),
(1648.4,884.95,o),
(1646.45,896.3,cs),
(1586,1248.75,o),
(1284.2,1464.35,o),
(878.55,1464.35,cs,{name = av01;}),
(422.1,1464.35,o),
(90.45,1176.05,o),
(90.45,722.15,cs)
);
}
);
width = 1749;
},
{
hints = (
{
horizontal = 1;
origin = (0,2);
target = (0,18);
type = Stem;
},
{
horizontal = 1;
place = (943,236);
type = Stem;
}
);
layerId = "BB5EAC9A-3BFE-4B64-B8A6-57F3EF362270";
shapes = (
{
closed = 1;
nodes = (
(108.725,263.75,o),
(394.45,-23.9,o),
(817,-23.9,cs,{name = dv01;}),
(1171.7,-23.9,o),
(1437.4,182.85,o),
(1484.075,488.2,cs),
(1485.575,496.806,o),
(1486.925,505.586,o),
(1488.175,513.75,c),
(1218.25,513.75,l),
(1216.4,507.103,o),
(1214.841,500.398,o),
(1213.2,493.7,cs),
(1174.299,334.942,o),
(1021.4,215.2,o),
(814.6,215.2,cs,{name = dv02;}),
(538.25,215.2,o),
(369.375,419.475,o),
(369.375,722.55,cs,{name = .dv01;}),
(369.375,1021.9,o),
(538.7,1229.25,o),
(815.425,1229.25,cs,{name = dv03;}),
(1016.8,1229.25,o),
(1174.517,1107.651,o),
(1215.05,943.35,cs,{name = .av01;}),
(1216.366,938.014,o),
(1216.488,932.441,o),
(1218.15,927.175,c),
(1487.95,927.175,l),
(1487.015,933.496,o),
(1486.225,939.838,o),
(1485.225,946.15,cs,{name = .av02;}),
(1438.5,1256.375,o),
(1166.1,1465.675,o),
(819.275,1465.675,cs,{name = dv04;}),
(396.55,1465.675,o),
(108.725,1177.025,o),
(108.725,721.575,cs)
);
}
);
width = 1586;
},
{
hints = (
{
place = (0,1243);
type = Stem;
},
{
horizontal = 1;
origin = (0,2);
target = (0,9);
type = Stem;
},
{
horizontal = 1;
origin = (0,15);
target = (0,28);
type = Stem;
}
);
layerId = "6CA6CED3-33C1-4F88-A0AA-B66472516184";
shapes = (
{
closed = 1;
nodes = (
(127,261,o),
(369,-24,o),
(760,-24,cs,{name = dv01;}),
(1064,-24,o),
(1293.133,176.984,o),
(1323.486,436.6,cs),
(1324.134,442.147,o),
(1324,442.938,o),
(1324,444.5,c),
(1244,444.5,l,{name = .dv01;}),
(1244,443,o),
(1244.162,442.144,o),
(1243.464,437.21,cs),
(1213.16,222.977,o),
(1013,50,o),
(760,50,cs,{name = dv02;}),
(423,50,o),
(207,312,o),
(207,721,cs,{name = dh02;}),
(207,1128,o),
(424,1393,o),
(760,1393,cs,{name = dv03;}),
(998.1,1393,o),
(1204.257,1225.155,o),
(1242.671,1004.099,cs,{name = .av01;}),
(1243.359,1000.142,o),
(1244,995,o),
(1244,990.5,c,{name = .dv02;}),
(1324,990.5,l),
(1324,992,o),
(1324.22,994.198,o),
(1323.537,999.789,cs,{name = .av02;}),
(1291.219,1264.027,o),
(1048,1467,o),
(760,1467,cs,{name = dv04;}),
(371,1467,o),
(127,1178,o),
(127,721,cs,{name = dh01;})
);
}
);
width = 1423;
}
);
leftKerningGroup = C2;
rightKerningGroup = C;
unicode = 67;
},
{
color = (255, 153, 153, 255);
glyphname = Ccedilla;
layers = (
{
hints = (
{
horizontal = 1;
origin = (0,52);
target = down;
type = TopGhost;
}
);
layerId = "FB39A38C-31F6-4F37-9C40-5E842EB56E93";
shapes = (
{
closed = 1;
nodes = (
(90.45,328.675,o),
(336.132,58.516,o),
(695.6,-7.889,c,{name = n10;}),
(695.6,-188,l),
(738.75,-188.25,o),
(841.25,-186.25,o),
(841.25,-274.45,cs,{name = n06;}),
(841.25,-368.15,o),
(677.65,-309.7,o),
(623.65,-281.3,c),
(623.65,-482.1,l),
(793.95,-580.95,o),
(1125.35,-538.1,o),
(1125.35,-282.9,cs,{name = n15;}),
(1125.35,-152,o),
(1023.65,-102.55,o),
(903.25,-83.45,c,{name = sh01;}),
(902.812,-23.437,l),
(919.622,-23.014,o),
(936.244,-22.219,o),
(952.669,-21.059,cs),
(1318.166,4.756,o),
(1585.904,211.519,o),
(1644.15,535.4,cs),
(1647.15,552,o),
(1649.85,567.25,o),
(1652.35,583,c),
(1196.5,583,l),
(1192.1,570.3,o),
(1187.4,557.6,o),
(1182.4,546.4,cs),
(1137.6,446.4,o),
(1029.8,380.4,o),
(869.2,380.4,cs),
(653.5,380.4,o),
(531.75,526.95,o),
(531.75,724.1,cs),
(531.75,915.8,o),
(653.4,1065.5,o),
(870.85,1065.5,cs),
(1032.6,1065.5,o),
(1141.25,994.6,o),
(1186.1,890.7,cs),
(1189.65,882.4,o),
(1193.05,873.2,o),
(1196.3,863.85,c),
(1651.9,863.85,l),
(1650.2,874.45,o),
(1648.4,884.95,o),
(1646.45,896.3,cs),
(1586,1248.75,o),
(1284.2,1464.35,o),
(878.55,1464.35,cs,{name = av01;}),
(422.1,1464.35,o),
(90.45,1176.05,o),
(90.45,722.15,cs)
);
}
);
width = 1749;
},
{
hints = (
{
origin = (0,6);
target = (0,13);
type = Stem;
},
{
horizontal = 1;
origin = (0,20);
target = (0,33);
type = Stem;
},
{
horizontal = 1;
origin = (0,39);
target = (0,52);
type = Stem;
}
);
layerId = "BB5EAC9A-3BFE-4B64-B8A6-57F3EF362270";
shapes = (
{
closed = 1;
nodes = (
(108.75,324.57,o),
(323.587,55.526,o),
(656.2,-8.947,c,{name = n07;}),
(656.2,-168.3,l),
(714.3,-169.25,o),
(818.35,-174.25,o),
(818.35,-251.2,cs,{name = n03;}),
(818.35,-353,o),
(652.45,-307.65,o),
(594.25,-281.25,c),
(594.25,-410.2,l),
(730.2,-481.6,o),
(991.75,-463.35,o),
(991.75,-258.4,cs,{name = n12;}),
(991.75,-142.15,o),
(891.65,-103.5,o),
(790,-89.25,c),
(789.767,-23.488,l,{name = sv01;}),
(798.781,-23.756,o),
(807.856,-23.9,o),
(817,-23.9,cs,{name = dv03;}),
(1171.7,-23.9,o),
(1437.4,182.85,o),
(1484.1,488.2,c),
(1485.6,496.8,o),
(1486.95,505.6,o),
(1488.2,513.75,c),
(1218.25,513.75,l),
(1215.8,504.95,o),
(1214.7,499.9,o),
(1213.2,493.7,cs),
(1174.3,334.95,o),
(1021.4,215.2,o),
(814.6,215.2,cs,{name = dv04;}),
(538.25,215.2,o),
(369.4,419.45,o),
(369.4,722.55,cs),
(369.4,1021.9,o),
(538.7,1229.25,o),
(815.45,1229.25,cs,{name = dv01;}),
(1016.8,1229.25,o),
(1174.5,1107.65,o),
(1215.05,943.35,cs),
(1216.25,938.6,o),
(1216.55,932.3,o),
(1218.15,927.15,c),
(1487.95,927.15,l),
(1487.1,932.9,o),
(1486.2,940,o),
(1485.25,946.15,cs),
(1438.5,1256.4,o),
(1166.1,1465.7,o),
(819.3,1465.7,cs,{name = dv02;}),
(396.55,1465.7,o),
(108.7,1177.05,o),
(108.75,721.6,cs)
);
}
);
width = 1586;
},
{
hints = (
{
origin = (0,55);
target = (0,36);
type = Stem;
},
{
origin = (0,6);
target = (0,13);
type = Stem;
},
{
horizontal = 1;
origin = (0,20);
target = (0,33);
type = Stem;
},
{
horizontal = 1;
origin = (0,39);
target = (0,52);
type = Stem;
}
);
layerId = "6CA6CED3-33C1-4F88-A0AA-B66472516184";
shapes = (
{
closed = 1;
nodes = (
(127,314.401,o),
(316.078,44.536,o),
(630,-12.643,c,{name = av01;}),
(630,-128,l),
(694,-129.45,o),
(786,-140.05,o),
(786,-197.05,cs,{name = dh01;}),
(786,-292.95,o),
(639.4,-265.15,o),
(585,-244,c,{name = iv01;}),
(585,-292,l),
(672.7,-329.7,o),
(838,-335.75,o),
(838,-202.2,cs,{name = dh02;}),
(838,-114.05,o),
(752.2,-90,o),
(680.5,-82,c),
(680.5,-19.885,l,{name = sv01;}),
(706.257,-22.613,o),
(732.766,-24,o),
(760,-24,cs,{name = dv03;}),
(1064,-24,o),
(1293,177,o),
(1324,441,c),
(1324,441.6,o),
(1324,443.9,o),
(1324,444.5,c),
(1244,444.5,l),
(1244,443.9,o),
(1244,441.55,o),
(1244,441,c),
(1213,223,o),
(1013,50,o),
(760,50,cs,{name = dv04;}),
(423,50,o),
(207,312,o),
(207,721,cs,{name = dh04;}),
(207,1128,o),
(424,1393,o),
(760,1393,cs,{name = dv01;}),
(1001,1393,o),
(1209,1221,o),
(1244,996,c),
(1244,995.15,o),
(1244,991.45,o),
(1244,990.5,c),
(1324,990.5,l),
(1324,991.4,o),
(1324,995.05,o),
(1324,996,c),
(1291,1264,o),
(1048,1467,o),
(760,1467,cs,{name = dv02;}),
(371,1467,o),
(127,1178,o),
(127,721,cs,{name = dh03;})
);
}
);
width = 1423;
}
);
leftKerningGroup = C2;
rightKerningGroup = C;
unicode = 199;
},
{
glyphname = D;
layers = (
{
hints = (
{
horizontal = 1;
origin = (1,1);
target = down;
type = TopGhost;
}
);
layerId = "FB39A38C-31F6-4F37-9C40-5E842EB56E93";
shapes = (
{
closed = 1;
nodes = (
(569.801,374.776,l,{name = n00;}),
(714.525,374.776,ls,{name = n01;}),
(985.42,374.776,o),
(1036.629,543.377,o),
(1036.629,721.582,cs),
(1036.629,904.379,o),
(989.485,1068.557,o),
(714.525,1068.557,cs,{name = n07;}),
(569.801,1068.557,l)
);
},
{
closed = 1;
nodes = (
(146.199,-0.955,l),
(146.199,1444,l,{name = av01;}),
(714.525,1444.111,ls,{name = n11;}),
(1239.594,1444.214,o),
(1472.731,1187.338,o),
(1472.731,721.577,cs),
(1472.731,258.268,o),
(1234.29,0.111,o),
(714.525,0.111,cs,{name = n17;})
);
}
);
width = 1579;
},
{
hints = (
{
origin = (1,0);
target = (0,0);
type = Stem;
},
{
horizontal = 1;
origin = (1,8);
target = (0,1);
type = Stem;
},
{
horizontal = 1;
origin = (0,7);
target = (1,1);
type = Stem;
}
);
layerId = "BB5EAC9A-3BFE-4B64-B8A6-57F3EF362270";
shapes = (
{
closed = 1;
nodes = (
(416.9,223.381,l,{name = sv01;}),
(612.262,223.381,ls,{name = n01;}),
(973.936,223.381,o),
(1077.929,459.216,o),
(1077.929,725.665,cs,{name = n04;}),
(1077.929,996.159,o),
(976.813,1220.287,o),
(612.262,1220.287,cs,{name = n07;}),
(416.9,1220.287,l,{name = n08;})
);
},
{
closed = 1;
nodes = (
(166.6,-0.503,l,{name = ab01;}),
(166.6,1444.,l,{name = n10;}),
(612.262,1444.056,l,{name = n11;}),
(1129.926,1444.056,o),
(1334.393,1167.97,o),
(1334.393,725.4,cs,{name = n14;}),
(1334.393,288.535,o),
(1123.798,0.056,o),
(612.262,0.056,c,{name = n17;})
);
}
);
width = 1478;
},
{
hints = (
{
origin = (1,0);
target = (0,0);
type = Stem;
},
{
origin = (0,4);
target = (1,5);
type = Stem;
},
{
horizontal = 1;
origin = (1,8);
target = (0,1);
type = Stem;
},
{
horizontal = 1;
origin = (0,7);
target = (1,2);
type = Stem;
}
);
layerId = "6CA6CED3-33C1-4F88-A0AA-B66472516184";
shapes = (
{
closed = 1;
nodes = (
(264,71.986,l,{name = sv01;}),
(510,71.986,ls),
(962.451,71.986,o),
(1119.228,375.056,o),
(1119.228,729.747,cs),
(1119.228,1087.94,o),
(964.141,1372.016,o),
(510,1372.016,cs,{name = av01;}),
(264,1372.016,l)
);
},
{
closed = 1;
nodes = (
(187,-0.051,l,{name = sv03;}),
(187,1444.,l,{name = sv04;}),
(510,1444.001,ls,{name = dv01;}),
(1020.257,1444.003,o),
(1196.055,1148.602,o),
(1196.055,729.222,cs),
(1196.055,318.802,o),
(1013.305,0.083,o),
(510,0.001,cs)
);
}
);
width = 1376;
}
);
leftKerningGroup = B2;
rightKerningGroup = D;
unicode = 68;
},
{
glyphname = E;
layers = (
{
hints = (
{
horizontal = 1;
origin = (0,0);
target = up;
type = BottomGhost;
},
{
horizontal = 1;
origin = (0,11);
target = down;
type = TopGhost;
}
);
layerId = "FB39A38C-31F6-4F37-9C40-5E842EB56E93";
shapes = (
{
closed = 1;
nodes = (
(146.199,0,l,{name = n00;}),
(1246.444,0,l,{name = n11;}),
(1246.444,377.896,l,{name = n10;}),
(569.9,377.896,l,{name = n09;}),
(569.9,562.132,l),
(1208,562.132,l,{name = n07;}),
(1208,917.132,l,{name = n06;}),
(569.9,917.132,l),
(569.9,1066.104,l),
(1242.889,1066.104,l,{name = n03;}),
(1242.889,1444,l,{name = n02;}),
(146.199,1444,l)
);
}
);
width = 1328;
},
{
hints = (
{
horizontal = 1;
origin = (0,0);
target = up;
type = BottomGhost;
},
{
horizontal = 1;
origin = (0,11);
target = down;
type = TopGhost;
}
);
layerId = "BB5EAC9A-3BFE-4B64-B8A6-57F3EF362270";
shapes = (
{
closed = 1;
nodes = (
(166.6,0,l,{name = n00;}),
(1123.722,0,l,{name = n11;}),
(1123.722,225.477,l,{name = n10;}),
(417.45,225.477,l,{name = n09;}),
(417.45,650.661,l),
(1091.5,650.661,l,{name = n07;}),
(1091.5,863.617,l,{name = n06;}),
(417.45,863.617,l),
(417.45,1218.522,l),
(1129.944,1218.522,l,{name = n03;}),
(1129.944,1444,l,{name = n02;}),
(166.6,1444,l)
);
}
);
width = 1234;
},
{
hints = (
{
origin = (0,0);
target = (0,3);
type = Stem;
},
{
horizontal = 1;
origin = (0,0);
target = (0,3);
type = Stem;
},
{
horizontal = 1;
origin = (0,5);
target = (0,6);
type = Stem;
},
{
horizontal = 1;
origin = (0,9);
target = (0,10);
type = Stem;
}
);
layerId = "6CA6CED3-33C1-4F88-A0AA-B66472516184";
shapes = (
{
closed = 1;
nodes = (
(187,0,l,{name = .ab01;}),
(1001,0,l),
(1001,73.059,l,{name = .sv01;}),
(265,73.059,l,{name = .dh01;}),
(265,737.299,l,{name = av06;}),
(975,737.299,l,{name = av03;}),
(975,807.987,l,{name = av04;}),
(265,807.987,l,{name = av00;}),
(265,1371.068,l,{name = .dv01;}),
(1017,1371.068,l,{name = av01;}),
(1017,1443.898,l,{name = .av01;}),
(187,1443.898,l,{name = av05;})
);
}
);
width = 1139;
}
);
leftKerningGroup = B2;
rightKerningGroup = E;
unicode = 69;
},
{
glyphname = F;
layers = (
{
hints = (
{
horizontal = 1;
origin = (0,1);
target = down;
type = TopGhost;
},
{
horizontal = 1;
origin = (0,0);
target = up;
type = BottomGhost;
}
);
layerId = "FB39A38C-31F6-4F37-9C40-5E842EB56E93";
shapes = (
{
closed = 1;
nodes = (
(146.222,0,l,{name = n00;}),
(146.222,1444,l,{name = av01;}),
(1254,1444,l,{name = n02;}),
(1254,1079.318,l,{name = n03;}),
(618.222,1079.318,l),
(618.222,825.997,l),
(1216.889,825.997,l,{name = n06;}),
(1216.889,460.997,l,{name = n07;}),
(618.222,460.997,l),
(618.222,0,l,{name = n09;})
);
}
);
width = 1337;
},
{
hints = (
{
origin = (0,0);
target = (0,9);
type = Stem;
},
{
horizontal = 1;
origin = (0,7);
target = (0,6);
type = Stem;
},
{
horizontal = 1;
origin = (0,3);
target = (0,2);
type = Stem;
},
{
horizontal = 1;
origin = (0,0);
target = up;
type = BottomGhost;
}
);
layerId = "BB5EAC9A-3BFE-4B64-B8A6-57F3EF362270";
shapes = (
{
closed = 1;
nodes = (
(166.611,0,l,{name = n00;}),
(166.611,1444,l),
(1135.5,1444,l,{name = n02;}),
(1135.5,1224.592,l,{name = n03;}),
(417.111,1224.592,l,{name = sh01;}),
(417.111,830.405,l),
(1098.944,830.405,l,{name = n06;}),
(1098.944,612.987,l,{name = n07;}),
(417.111,612.987,l),
(417.111,0,l,{name = n09;})
);
}
);
width = 1232;
},
{
hints = (
{
origin = (0,0);
target = (0,9);
type = Stem;
},
{
horizontal = 1;
origin = (0,7);
target = (0,6);
type = Stem;
},
{
horizontal = 1;
origin = (0,3);
target = (0,2);
type = Stem;
},
{
horizontal = 1;
origin = (0,0);
target = up;
type = BottomGhost;
}
);
layerId = "6CA6CED3-33C1-4F88-A0AA-B66472516184";
shapes = (
{
closed = 1;
nodes = (
(187,0,l,{name = ab01;}),
(187,1444,l),
(1017,1444,l,{name = dv02;}),
(1017,1369.866,l,{name = dv01;}),
(264,1369.866,l,{name = sh01;}),
(264,834.812,l),
(981,834.812,l,{name = dv04;}),
(981,764.976,l,{name = dv03;}),
(264,764.976,l),
(264,0,l,{name = dh01;})
);
}
);
width = 1126;
}
);
leftKerningGroup = B2;
rightKerningGroup = F;
unicode = 70;
},
{
glyphname = G;
layers = (
{
hints = (
{
horizontal = 1;
origin = (0,30);
target = down;
type = TopGhost;
},
{
horizontal = 1;
place = (0,21);
target = up;
type = BottomGhost;
}
);
layerId = "FB39A38C-31F6-4F37-9C40-5E842EB56E93";
shapes = (
{
closed = 1;
nodes = (
(1114.9,-23.8,o),
(1179.65,66.75,o),
(1250.65,173.55,c),
(1271.2,173.55,l),
(1271.2,0,l,{name = ab01;}),
(1666.95,0,l),
(1666.95,812.3,l),
(872.15,812.3,l),
(872.15,505.1,l),
(1269.2,505.1,l,{name = iv01;}),
(1258.543,488.826,o),
(1246.049,474.603,o),
(1232.116,462.185,c),
(1156.025,394.373,o),
(1036.984,380.4,o),
(939.5,380.4,cs),
(688.2,380.4,o),
(546.35,526.95,o),
(546.35,724.1,cs),
(546.35,936.8,o),
(688.243,1065.35,o),
(900.05,1065.35,cs),
(1046.14,1065.35,o),
(1165.711,1029.021,o),
(1200.7,910.7,cs),
(1204.5,897.85,l),
(1663.55,897.85,l),
(1662.318,907.787,ls),
(1614.178,1296.219,o),
(1248.215,1464.35,o),
(893.15,1464.35,cs,{name = av01;}),
(436.7,1464.35,o),
(105.05,1176.05,o),
(105.05,722.15,cs),
(105.05,266.5,o),
(434.5,-23.8,o),
(888.6,-23.8,cs,{name = av02;})
);
}
);
width = 1777;
},
{
hints = (
{
origin = (0,3);
target = (0,6);
type = Stem;
},
{
horizontal = 1;
place = (0,215);
type = Stem;
},
{
horizontal = 1;
origin = (0,8);
target = (0,7);
type = Stem;
},
{
horizontal = 1;
origin = (0,21);
target = (0,30);
type = Stem;
},
{
horizontal = 1;
origin = (0,4);
target = up;
type = BottomGhost;
}
);
layerId = "BB5EAC9A-3BFE-4B64-B8A6-57F3EF362270";
shapes = (
{
closed = 1;
nodes = (
(1040.25,-23.9,o),
(1189.591,100,o),
(1236.075,220.15,c,{name = sv01;}),
(1252.1,220.198,l),
(1252.1,0,l,{name = n05;}),
(1489.95,0,l),
(1489.95,809.1,l),
(804.325,809.1,l,{name = n08;}),
(804.325,588.5,l,{name = n09;}),
(1251.1,588.5,l),
(1248.505,576.092,o),
(1245.735,563.727,o),
(1242.965,551.362,cs),
(1201.447,366.024,o),
(1039.936,215.2,o),
(829.4,215.2,cs,{name = dv02;}),
(547.975,215.2,o),
(369.05,419.475,o),
(369.05,722.55,cs),
(369.05,992.259,o),
(534.566,1229.175,o),
(822.4,1229.175,cs,{name = sv00;}),
(994.968,1229.175,o),
(1186.768,1134.921,o),
(1215.684,950.184,cs),
(1216.624,944.175,l),
(1486.149,944.175,l),
(1484.899,956.15,ls),
(1438.665,1266.449,o),
(1165.774,1465.675,o),
(818.949,1465.675,cs,{name = dv04;}),
(396.224,1465.675,o),
(108.399,1177.025,o),
(108.399,721.575,cs),
(108.399,263.75,o),
(394.124,-23.9,o),
(829.399,-23.9,cs,{name = dv01;})
);
}
);
width = 1610;
},
{
hints = (
{
place = (376,1037);
type = Stem;
},
{
origin = (0,9);
target = (0,6);
type = Stem;
},
{
horizontal = 1;
place = (0,235);
type = Stem;
},
{
horizontal = 1;
origin = (0,8);
target = (0,7);
type = Stem;
},
{
horizontal = 1;
origin = (0,17);
target = (0,29);
type = Stem;
},
{
horizontal = 1;
origin = (0,4);
target = up;
type = BottomGhost;
}
);
layerId = "6CA6CED3-33C1-4F88-A0AA-B66472516184";
shapes = (
{
closed = 1;
nodes = (
(966.405,-24,o),
(1135.019,93.627,o),
(1237.499,266.75,c),
(1248.999,266.845,l),
(1248.999,0,l,{name = ab01;}),
(1324.949,0,l,{name = .dh01;}),
(1324.949,745.9,l),
(752.499,745.9,l,{name = dv06;}),
(752.499,671.9,l,{name = dv05;}),
(1248.999,671.9,l,{name = .sh01;}),
(1248.999,476.152,ls),
(1248.999,234.943,o),
(985.209,50,o),
(760.749,50,cs,{name = dv02;}),
(375.696,50,o),
(207.749,374.703,o),
(207.749,721,cs),
(207.749,1064.625,o),
(377.254,1393,o),
(760.749,1393,cs,{name = dv03;}),
(1002.919,1393,o),
(1196.81,1231.039,o),
(1244.749,996,c,{name = .sh02;}),
(1244.749,990.5,l),
(1324.749,990.5,l,{name = .sh03;}),
(1324.749,999.824,o),
(1323.492,1010.79,o),
(1321.434,1022.42,cs),
(1274.484,1287.78,o),
(1025.096,1467,o),
(760.749,1467,cs,{name = dv04;}),
(324.933,1467,o),
(127.749,1119.171,o),
(127.749,721,cs),
(127.749,320.284,o),
(322.473,-24,o),
(760.749,-24,cs,{name = dv01;})
);
}
);
width = 1459;
}
);
leftKerningGroup = C2;
rightKerningGroup = G;
unicode = 71;
},
{
glyphname = H;
layers = (
{
hints = (
{
horizontal = 1;
origin = (0,0);
target = up;
type = BottomGhost;
},
{
horizontal = 1;
origin = (0,6);
target = down;
type = TopGhost;
}
);
layerId = "FB39A38C-31F6-4F37-9C40-5E842EB56E93";
shapes = (
{
closed = 1;
nodes = (
(126,0.001,l,{name = ab01;}),
(550,0.001,l),
(550,539.388,l),
(1058,539.388,l),
(1058,0.001,l,{name = ab02;}),
(1482,0.001,l),
(1482,1444.001,l,{name = av01;}),
(1058,1444.001,l),
(1058,915.621,l),
(550,915.621,l),
(550,1444.001,l,{name = av02;}),
(126,1444.001,l)
);
}
);
width = 1608;
},
{
hints = (
{
origin = (0,0);
target = (0,1);
type = Stem;
},
{
origin = (0,4);
target = (0,5);
type = Stem;
},
{
horizontal = 1;
origin = (0,2);
target = (0,9);
type = Stem;
},
{
horizontal = 1;
origin = (0,0);
target = up;
type = BottomGhost;
},
{
horizontal = 1;
origin = (0,6);
target = down;
type = TopGhost;
}
);
layerId = "BB5EAC9A-3BFE-4B64-B8A6-57F3EF362270";
shapes = (
{
closed = 1;
nodes = (
(156.5,0.,l,{name = n00;}),
(406.5,0.,l,{name = n01;}),
(406.5,631.769,l,{name = n02;}),
(1069.5,631.769,l),
(1069.5,0.,l,{name = n04;}),
(1319.5,0.,l,{name = n05;}),
(1319.5,1444.,l,{name = n06;}),
(1069.5,1444.,l),
(1069.5,855.34,l,{name = av05;}),
(406.5,855.34,l,{name = n09;}),
(406.5,1444.,l,{name = av01;}),
(156.5,1444.,l)
);
}
);
width = 1476;
},
{
hints = (
{
origin = (0,0);
target = (0,1);
type = Stem;
},
{
origin = (0,7);
target = (0,6);
type = Stem;
},
{
horizontal = 1;
origin = (0,2);
target = (0,9);
type = Stem;
},
{
horizontal = 1;
origin = (0,0);
target = up;
type = BottomGhost;
},
{
horizontal = 1;
origin = (0,6);
target = down;
type = TopGhost;
}
);
layerId = "6CA6CED3-33C1-4F88-A0AA-B66472516184";
shapes = (
{
closed = 1;
nodes = (
(187,0,l,{name = ab01;}),
(265,0,l),
(265,724.149,l,{name = av01;}),
(1079,724.149,l),
(1079,0,l,{name = ab02;}),
(1157,0,l),
(1157,1444,l,{name = av02;}),
(1079,1444,l),
(1079,795.06,l),
(265,795.06,l),
(265,1444,l,{name = av03;}),
(187,1444,l)
);
}
);
width = 1344;
}
);
leftKerningGroup = B2;
rightKerningGroup = H;
unicode = 72;
},
{
glyphname = I;
layers = (
{
layerId = "FB39A38C-31F6-4F37-9C40-5E842EB56E93";
shapes = (
{
closed = 1;
nodes = (
(126.444,0,l,{name = n00;}),
(550.444,0,l,{name = n03;}),
(550.444,1444,l,{name = .av01;}),
(126.444,1444,l,{name = n01;})
);
}
);
width = 677;
},
{
layerId = "BB5EAC9A-3BFE-4B64-B8A6-57F3EF362270";
shapes = (
{
closed = 1;
nodes = (
(156.722,0,l,{name = n00;}),
(406.722,0,l,{name = n03;}),
(406.722,1444,l,{name = .av01;}),
(156.722,1444,l,{name = n01;})
);
}
);
width = 565;
},
{
layerId = "6CA6CED3-33C1-4F88-A0AA-B66472516184";
shapes = (
{
closed = 1;
nodes = (
(187,0,l,{name = ab01;}),
(265,0,l,{name = ab02;}),
(265,1444,l,{name = av02;}),
(187,1444,l,{name = av01;})
);
}
);
width = 452;
}
);
leftKerningGroup = B2;
rightKerningGroup = H;
unicode = 73;
},
{
glyphname = J;
layers = (
{
hints = (
{
horizontal = 1;
origin = (0,17);
target = up;
type = BottomGhost;
},
{
horizontal = 1;
origin = (0,3);
target = down;
type = TopGhost;
}
);
layerId = "FB39A38C-31F6-4F37-9C40-5E842EB56E93";
shapes = (
{
closed = 1;
nodes = (
(994.626,-23.689,o),
(1213,180,o),
(1213,536,cs),
(1213,1444,l,{name = av01;}),
(789,1444.015,l),
(789,536,ls),
(789,385,o),
(740.25,307,o),
(612,307,cs),
(493.79,307,o),
(425.63,377.988,o),
(425.63,507.779,cs),
(425.63,622,l),
(31.587,622,l),
(31.587,476.898,ls),
(31.587,170.965,o),
(244.875,-23.689,o),
(608.626,-23.689,cs,{name = av02;})
);
}
);
width = 1333;
},
{
hints = (
{
origin = (0,13);
target = (0,12);
type = Stem;
},
{
origin = (0,4);
target = (0,3);
type = Stem;
},
{
horizontal = 1;
origin = (0,17);
target = (0,8);
type = Stem;
},
{
horizontal = 1;
origin = (0,3);
target = down;
type = TopGhost;
}
);
layerId = "BB5EAC9A-3BFE-4B64-B8A6-57F3EF362270";
shapes = (
{
closed = 1;
nodes = (
(943.788,-23.344,o),
(1111,173.137,o),
(1111,534.645,cs),
(1111,1444,l,{name = n04;}),
(861,1444.007,l,{name = n05;}),
(861,534.628,ls),
(861,310.64,o),
(799.7,180,o),
(603.2,180,cs,{name = n09;}),
(421.253,180,o),
(317.865,281.315,o),
(317.865,492.025,cs),
(317.865,587.95,l,{name = n13;}),
(81.786,587.95,l,{name = n14;}),
(81.786,475.889,ls),
(81.786,141.292,o),
(279.112,-23.344,o),
(601.208,-23.344,cs,{name = n02;})
);
}
);
width = 1264;
},
{
hints = (
{
origin = (0,13);
target = (0,12);
type = Stem;
},
{
origin = (0,4);
target = (0,3);
type = Stem;
},
{
horizontal = 1;
origin = (0,17);
target = (0,8);
type = Stem;
},
{
horizontal = 1;
origin = (0,3);
target = down;
type = TopGhost;
}
);
layerId = "6CA6CED3-33C1-4F88-A0AA-B66472516184";
shapes = (
{
closed = 1;
nodes = (
(894.626,-23,o),
(1011,166.275,o),
(1011,533.29,cs),
(1011,1444,l,{name = sh01;}),
(933,1444,l,{name = sh02;}),
(933,533.255,ls),
(933,236.281,o),
(859.15,53,o),
(594.4,53,cs,{name = dv02;}),
(348.716,53,o),
(210.099,184.643,o),
(210.099,476.272,cs),
(210.099,553.9,l,{name = sh04;}),
(131.985,553.9,l,{name = sh03;}),
(131.985,474.879,ls),
(131.985,111.62,o),
(313.732,-23,o),
(594.8,-23,cs,{name = dv01;})
);
}
);
width = 1195;
}
);
leftKerningGroup = J2;
rightKerningGroup = J;
unicode = 74;
},
{
glyphname = K;
layers = (
{
hints = (
{
horizontal = 1;
origin = (0,0);
target = up;
type = BottomGhost;
},
{
horizontal = 1;
origin = (0,3);
target = down;
type = TopGhost;
}
);
layerId = "FB39A38C-31F6-4F37-9C40-5E842EB56E93";
shapes = (
{
closed = 1;
nodes = (
(1032.9,0,l,{name = ab02;}),
(1555.8,0,l,{name = iv01;}),
(946.75,762,l),
(1555.8,1444,l,{name = av02;}),
(1032.9,1444,l),
(578.55,918.8,l),
(549.9,918.8,l),
(549.9,1443.9,l,{name = av01.1;}),
(126.2,1443.9,l),
(126.2,-0.1,l,{name = ab01.1;}),
(549.9,-0.1,l),
(549.9,565.3,l),
(578.5,565.3,l)
);
}
);
width = 1576;
},
{
hints = (
{
origin = (0,8);
target = (0,7);
type = Stem;
},
{
horizontal = 1;
origin = (0,0);
target = up;
type = BottomGhost;
},
{
horizontal = 1;
origin = (0,7);
target = down;
type = TopGhost;
}
);
layerId = "BB5EAC9A-3BFE-4B64-B8A6-57F3EF362270";
shapes = (
{
closed = 1;
nodes = (
(968.625,0,l,{name = ab01;}),
(1281.525,0,l,{name = iv01;}),
(652.475,761.5,l),
(1281.25,1444.1,l,{name = n03;}),
(968.35,1444.1,l),
(429.275,853.3,l),
(407.45,853.3,l),
(407.45,1443.95,l,{name = n07;}),
(156.6,1443.95,l,{name = n08;}),
(156.6,-0.05,l,{name = ab02;}),
(407.45,-0.05,l,{name = sh01;}),
(407.45,644.8,l),
(429.225,644.8,l)
);
}
);
width = 1321;
},
{
hints = (
{
origin = (0,8);
target = (0,7);
type = Stem;
},
{
horizontal = 1;
origin = (0,0);
target = up;
type = BottomGhost;
},
{
horizontal = 1;
origin = (0,7);
target = down;
type = TopGhost;
}
);
layerId = "6CA6CED3-33C1-4F88-A0AA-B66472516184";
shapes = (
{
closed = 1;
nodes = (
(904.35,0,l,{name = ab02;}),
(1007.25,0,l,{name = iv01;}),
(358.2,761,l),
(1006.7,1444.2,l,{name = av02;}),
(903.8,1444.2,l),
(280,787.8,l),
(265,787.8,l),
(265,1444,l,{name = av01.1;}),
(187,1444,l,{name = dh01;}),
(187,0,l,{name = ab01.1;}),
(265,0,l,{name = dh01.1;}),
(265,724.3,l),
(279.95,724.3,l)
);
}
);
width = 1065;
}
);
leftKerningGroup = B2;
rightKerningGroup = K;
unicode = 75;
},
{
glyphname = L;
layers = (
{
hints = (
{
horizontal = 1;
origin = (0,0);
target = up;
type = BottomGhost;
},
{
horizontal = 1;
origin = (0,4);
target = down;
type = TopGhost;
}
);
layerId = "FB39A38C-31F6-4F37-9C40-5E842EB56E93";
shapes = (
{
closed = 1;
nodes = (
(126,0,l,{name = ab01;}),
(1226,0,l),
(1226,366,l),
(550,366,l),
(550,1443,l,{name = av01;}),
(126,1443,l)
);
}
);
width = 1309;
},
{
hints = (
{
origin = (0,0);
target = (0,3);
type = Stem;
},
{
horizontal = 1;
origin = (0,0);
target = (0,3);
type = Stem;
},
{
horizontal = 1;
origin = (0,4);
target = down;
type = TopGhost;
}
);
layerId = "BB5EAC9A-3BFE-4B64-B8A6-57F3EF362270";
shapes = (
{
closed = 1;
nodes = (
(156.5,0,l,{name = ab01;}),
(1107.5,0,l,{name = n01;}),
(1107.5,218.966,l,{name = n02;}),
(407,218.966,l,{name = sv01;}),
(407,1443.5,l,{name = n04;}),
(156.5,1443.5,l,{name = n05;})
);
}
);
width = 1182;
},
{
hints = (
{
origin = (0,0);
target = (0,3);
type = Stem;
},
{
horizontal = 1;
origin = (0,0);
target = (0,3);
type = Stem;
},
{
horizontal = 1;
origin = (0,4);
target = down;
type = TopGhost;
}
);
layerId = "6CA6CED3-33C1-4F88-A0AA-B66472516184";
shapes = (
{
closed = 1;
nodes = (
(187,0,l,{name = ab01;}),
(989,0,l),
(989,71.932,l,{name = .sv01;}),
(265,71.932,l),
(265,1444,l,{name = av01;}),
(187,1444,l)
);
}
);
width = 1054;
}
);
leftKerningGroup = B2;
rightKerningGroup = L;
unicode = 76;
},
{
color = (153, 255, 154, 255);
glyphname = Lslash;
rightMetricsKey = L;
layers = (
{
hints = (
{
horizontal = 1;
origin = (0,0);
target = up;
type = BottomGhost;
},
{
horizontal = 1;
origin = (0,8);
target = down;
type = TopGhost;
}
);
layerId = "FB39A38C-31F6-4F37-9C40-5E842EB56E93";
shapes = (
{
closed = 1;
nodes = (
(228,0,l,{name = ab01;}),
(1328,0,l),
(1328,366,l),
(652,366,l),
(652,785.85,l),
(879.9,1013.75,l),
(691.1,1202.55,l),
(652,1163.45,l,{name = iv01;}),
(652,1443,l,{name = av01;}),
(228,1443,l),
(228,739.45,l),
(5.85,517.3,l,{name = n01;}),
(194.65,328.5,l,{name = n00;}),
(228,361.85,l,{name = iv02;})
);
}
);
width = 1411;
},
{
hints = (
{
origin = (0,13);
target = (0,4);
type = Stem;
},
{
horizontal = 1;
origin = (0,0);
target = (0,3);
type = Stem;
},
{
horizontal = 1;
origin = (0,8);
target = down;
type = TopGhost;
}
);
layerId = "BB5EAC9A-3BFE-4B64-B8A6-57F3EF362270";
shapes = (
{
closed = 1;
nodes = (
(264.5,0,l,{name = ab01;}),
(1215.5,0,l,{name = n01;}),
(1215.5,218.95,l,{name = n02;}),
(515,218.95,l,{name = dh01;}),
(515,769.45,l),
(782.1,1036.55,l),
(660.45,1158.15,l),
(515,1012.7,l,{name = iv01;}),
(515,1443.5,l,{name = n04;}),
(264.5,1443.5,l,{name = n05;}),
(264.5,762.2,l),
(17.3,515,l,{name = n01.1;}),
(138.95,393.4,l,{name = n00;}),
(264.5,518.95,l)
);
}
);
width = 1290;
},
{
hints = (
{
origin = (0,0);
target = (0,3);
type = Stem;
},
{
horizontal = 1;
origin = (0,0);
target = (0,3);
type = Stem;
},
{
horizontal = 1;
origin = (0,8);
target = down;
type = TopGhost;
}
);
layerId = "6CA6CED3-33C1-4F88-A0AA-B66472516184";
shapes = (
{
closed = 1;
nodes = (
(275,0,l,{name = ab01;}),
(1077,0,l),
(1077,71.95,l,{name = sv01;}),
(352,71.95,l,{name = dh01;}),
(352,665.05,l),
(682.25,995.3,l),
(627.8,1049.75,l),
(352,773.95,l,{name = iv01;}),
(352,1444,l,{name = av01;}),
(275,1444,l,{name = sh01;}),
(275,696.95,l),
(26.75,448.7,l,{name = dv02;}),
(81.2,394.25,l,{name = dv01;}),
(275,588.05,l)
);
}
);
width = 1142;
}
);
leftKerningGroup = B2;
rightKerningGroup = L;
unicode = 321;
},
{
glyphname = M;
layers = (
{
hints = (
{
horizontal = 1;
origin = (0,2);
target = down;
type = TopGhost;
},
{
horizontal = 1;
origin = (0,0);
target = up;
type = BottomGhost;
}
);
layerId = "FB39A38C-31F6-4F37-9C40-5E842EB56E93";
shapes = (
{
closed = 1;
nodes = (
(1655.3,0,l,{name = n01;}),
(2078.95,0,l,{name = n03;}),
(2078.95,1444,l,{name = av01;}),
(1288,1444,l),
(1115,305.4,l),
(1094.9,305.4,l),
(912.2,1444,l,{name = av03;}),
(126.4,1444,l,{name = n01.1;}),
(126.4,0,l,{name = n00.1;}),
(550.1,0,l,{name = n03.1;}),
(550.1,1144.95,l),
(569.4,1144.95,l),
(790.55,0,l,{name = ab01;}),
(1421.3,0,l),
(1634.9,1138.95,l),
(1655.3,1139.05,l)
);
}
);
width = 2205;
},
{
hints = (
{
origin = (0,7);
target = (0,10);
type = Stem;
},
{
origin = (0,15);
target = (0,2);
type = Stem;
},
{
horizontal = 1;
origin = (0,2);
target = down;
type = TopGhost;
},
{
horizontal = 1;
origin = (0,0);
target = up;
type = BottomGhost;
}
);
layerId = "BB5EAC9A-3BFE-4B64-B8A6-57F3EF362270";
shapes = (
{
closed = 1;
nodes = (
(1586.025,0,l,{name = n00;}),
(1835.85,0,l),
(1835.85,1444,l,{name = n02;}),
(1364.525,1444,l),
(1008.125,191.65,l),
(991.05,191.65,l),
(626.625,1444,l,{name = av01;}),
(156.7,1444,l),
(156.7,0,l,{name = n08;}),
(406.55,0,l,{name = n09;}),
(406.55,1253.025,l),
(427.1,1253.025,l),
(810.8,0,l,{name = ab01;}),
(1187.175,0,l),
(1565.1,1249.5,l),
(1586.025,1249.55,l)
);
}
);
width = 1992;
},
{
hints = (
{
origin = (0,7);
target = (0,10);
type = Stem;
},
{
origin = (0,0);
target = (0,1);
type = Stem;
},
{
horizontal = 1;
origin = (0,2);
target = down;
type = TopGhost;
},
{
horizontal = 1;
origin = (0,0);
target = up;
type = BottomGhost;
}
);
layerId = "6CA6CED3-33C1-4F88-A0AA-B66472516184";
shapes = (
{
closed = 1;
nodes = (
(1518.75,0,l,{name = ab01.2;}),
(1596.75,0,l,{name = ab02.1;}),
(1596.75,1444,l,{name = av01.2;}),
(1443.05,1444,l),
(903.25,77.9,l),
(889.2,77.9,l),
(343.05,1444,l,{name = av03.1;}),
(187,1444,l,{name = av02.3;}),
(187,0,l,{name = ab01.3;}),
(265,0,l,{name = ab02.2;}),
(265,1361.1,l,{name = sh01;}),
(286.8,1361.1,l),
(833.05,0,l,{name = ab01.1.1;}),
(955.05,0,l,{name = av02.1.1;}),
(1497.3,1360.05,l),
(1518.75,1360.05,l)
);
}
);
width = 1784;
}
);
leftKerningGroup = B2;
rightKerningGroup = H;
unicode = 77;
},
{
glyphname = N;
layers = (
{
hints = (
{
horizontal = 1;
origin = (0,2);
target = down;
type = TopGhost;
},
{
horizontal = 1;
origin = (0,0);
target = up;
type = BottomGhost;
}
);
layerId = "FB39A38C-31F6-4F37-9C40-5E842EB56E93";
shapes = (
{
closed = 1;
nodes = (
(827.95,0,l,{name = ab01;}),
(1573.8,0,l,{name = n03;}),
(1573.8,1444,l,{name = av01;}),
(1149.8,1444,l,{name = n01;}),
(1149.8,305.4,l),
(1132.3,305.4,l),
(909.6,1444,l,{name = av02;}),
(126.45,1444,l,{name = n01.1;}),
(126.45,0,l,{name = n00.1;}),
(550.45,0,l,{name = n03.1;}),
(550.45,1144.95,l),
(566.8,1144.95,l)
);
}
);
width = 1700;
},
{
hints = (
{
origin = (0,7);
target = (0,10);
type = Stem;
},
{
origin = (0,3);
target = (0,2);
type = Stem;
},
{
horizontal = 1;
origin = (0,2);
target = down;
type = TopGhost;
},
{
horizontal = 1;
origin = (0,0);
target = up;
type = BottomGhost;
}
);
layerId = "BB5EAC9A-3BFE-4B64-B8A6-57F3EF362270";
shapes = (
{
closed = 1;
nodes = (
(925.395,0,l,{name = n00;}),
(1368.045,0,l),
(1368.045,1444,l,{name = n02;}),
(1118.045,1444,l),
(1118.045,191.65,l),
(1100.645,191.65,l),
(620.22,1444,l,{name = av01;}),
(156.72,1444,l),
(156.72,0,l,{name = n08;}),
(406.72,0,l,{name = n09;}),
(406.72,1253.025,l),
(427.195,1253.025,l)
);
}
);
width = 1525;
},
{
hints = (
{
origin = (0,7);
target = (0,10);
type = Stem;
},
{
origin = (0,3);
target = (0,2);
type = Stem;
},
{
horizontal = 1;
origin = (0,2);
target = down;
type = TopGhost;
},
{
horizontal = 1;
origin = (0,0);
target = up;
type = BottomGhost;
}
);
layerId = "6CA6CED3-33C1-4F88-A0AA-B66472516184";
shapes = (
{
closed = 1;
nodes = (
(1024.839,0,l,{name = ab01.1;}),
(1166.289,0,l,{name = ab02;}),
(1166.289,1444,l,{name = av02;}),
(1088.289,1444,l,{name = av01;}),
(1088.289,77.9,l),
(1070.989,77.9,l),
(332.839,1444,l,{name = av04;}),
(186.989,1444,l,{name = av01.1;}),
(186.989,0,l,{name = ab01.2;}),
(264.989,0,l,{name = ab02.1;}),
(264.989,1361.1,l,{name = sh01;}),
(289.589,1361.1,l)
);
}
);
width = 1354;
}
);
leftKerningGroup = B2;
rightKerningGroup = H;
unicode = 78;
},
{
glyphname = O;
layers = (
{
hints = (
{
horizontal = 1;
origin = (1,2);
target = up;
type = BottomGhost;
},
{
horizontal = 1;
origin = (1,8);
target = down;
type = TopGhost;
}
);
layerId = "FB39A38C-31F6-4F37-9C40-5E842EB56E93";
shapes = (
{
closed = 1;
nodes = (
(661.286,380.379,o),
(536.759,526.973,o),
(536.759,724.122,cs,{name = n09;}),
(536.759,915.781,o),
(660.616,1065.509,o),
(882.002,1065.509,cs,{name = n06;}),
(1103.053,1065.509,o),
(1226.574,915.781,o),
(1226.574,724.122,cs,{name = n03;}),
(1226.574,526.973,o),
(1103.388,380.379,o),
(882.002,380.379,cs,{name = n00;})
);
},
{
closed = 1;
nodes = (
(95.459,266.501,o),
(426.337,-23.778,o),
(882.429,-23.778,cs,{name = n21;}),
(1340.675,-23.778,o),
(1667.874,264.724,o),
(1667.874,722.174,cs,{name = n18;}),
(1667.874,1177.848,o),
(1342.573,1464.333,o),
(886.226,1464.333,cs,{name = n15;}),
(428.235,1464.333,o),
(95.459,1176.07,o),
(95.459,722.174,cs,{name = n12;})
);
}
);
width = 1763;
},
{
hints = (
{
horizontal = 1;
origin = (1,2);
target = (0,11);
type = Stem;
},
{
horizontal = 1;
origin = (0,5);
target = (1,8);
type = Stem;
}
);
layerId = "BB5EAC9A-3BFE-4B64-B8A6-57F3EF362270";
shapes = (
{
closed = 1;
nodes = (
(568.033,216.396,o),
(367.795,431.381,o),
(367.795,724.917,cs,{name = n09;}),
(367.795,1013.567,o),
(565.555,1229.047,o),
(847.643,1229.047,cs,{name = n06;}),
(1128.493,1229.047,o),
(1322.872,1013.567,o),
(1322.872,724.917,cs,{name = n03;}),
(1322.872,431.381,o),
(1129.732,216.396,o),
(847.643,216.396,cs,{name = n00;})
);
},
{
closed = 1;
nodes = (
(107.296,276.507,o),
(425.92,-22.889,o),
(847.857,-22.889,cs,{name = n21;}),
(1271.942,-22.889,o),
(1583.37,275.618,o),
(1583.37,722.872,cs,{name = n18;}),
(1583.37,1169.238,o),
(1272.891,1465.665,o),
(849.756,1465.665,cs,{name = n15;}),
(426.869,1465.665,o),
(107.296,1168.349,o),
(107.296,722.872,cs,{name = n12;})
);
}
);
width = 1695;
},
{
hints = (
{
origin = (1,11);
target = (0,2);
type = Stem;
},
{
origin = (0,8);
target = (1,5);
type = Stem;
},
{
horizontal = 1;
origin = (1,2);
target = (0,11);
type = Stem;
},
{
horizontal = 1;
origin = (0,5);
target = (1,8);
type = Stem;
}
);
layerId = "6CA6CED3-33C1-4F88-A0AA-B66472516184";
shapes = (
{
closed = 1;
nodes = (
(474.779,52.413,o),
(198.831,335.788,o),
(198.831,725.713,cs,{name = .sh02;}),
(198.831,1111.352,o),
(470.494,1392.585,o),
(813.285,1392.585,cs,{name = at01;}),
(1153.933,1392.585,o),
(1419.169,1111.352,o),
(1419.169,725.713,cs,{name = .ah01;}),
(1419.169,335.788,o),
(1156.076,52.413,o),
(813.285,52.413,cs,{name = .dv02;})
);
},
{
closed = 1;
nodes = (
(119.133,286.512,o),
(425.503,-22,o),
(813.285,-22,cs,{name = .dv01;}),
(1203.209,-22,o),
(1498.867,286.512,o),
(1498.867,723.57,cs,{name = .sh03;}),
(1498.867,1160.629,o),
(1203.209,1466.998,o),
(813.285,1466.998,cs,{name = av01;}),
(425.503,1466.998,o),
(119.133,1160.629,o),
(119.133,723.57,cs,{name = .sh01;})
);
}
);
width = 1626;
}
);
leftKerningGroup = C2;
rightKerningGroup = D;
unicode = 79;
},
{
color = (153, 255, 154, 255);
glyphname = Oslash;
rightMetricsKey = O;
layers = (
{
hints = (
{
horizontal = 1;
origin = (0,16);
target = down;
type = TopGhost;
},
{
horizontal = 1;
origin = (0,11);
target = down;
type = TopGhost;
},
{
horizontal = 1;
origin = (0,23);
target = up;
type = BottomGhost;
}
);
layerId = "FB39A38C-31F6-4F37-9C40-5E842EB56E93";
shapes = (
{
closed = 1;
nodes = (
(710.747,-149.016,l,{name = n00.1;}),
(755.41,-15.928,l,{name = av01;}),
(796.496,-21.111,o),
(838.899,-23.766,o),
(882.447,-23.766,cs,{name = n21;}),
(1340.697,-23.766,o),
(1667.898,264.734,o),
(1667.898,722.184,cs,{name = n18;}),
(1667.898,1051.732,o),
(1497.729,1292.788,o),
(1230.897,1400.979,c),
(1295.347,1593.034,l,{name = n01;}),
(1050.247,1593.034,l),
(1004.948,1457.583,l,{name = av02;}),
(966.511,1462.048,o),
(926.902,1464.334,o),
(886.247,1464.334,cs,{name = n15;}),
(428.247,1464.334,o),
(95.448,1176.084,o),
(95.448,722.184,cs,{name = n12;}),
(95.448,394.743,o),
(266.294,152.726,o),
(531.674,42.431,c),
(467.647,-149.016,l)
);
},
{
closed = 1;
nodes = (
(665.978,444.018,l,{name = iv01;}),
(581.903,505.109,o),
(536.748,605.452,o),
(536.748,724.134,cs,{name = n09;}),
(536.748,892.654,o),
(632.516,1028.763,o),
(806.156,1059.163,cs),
(827.536,1062.906,o),
(850.097,1065.046,o),
(873.805,1065.447,c,{name = n06;})
);
},
{
closed = 1;
nodes = (
(1096.962,1001.866,l,{name = iv02;}),
(1181.458,940.455,o),
(1226.597,839.954,o),
(1226.597,724.134,cs,{name = n03;}),
(1226.597,552.83,o),
(1133.569,419.71,o),
(963.936,387.75,cs),
(940.246,383.287,o),
(915.061,380.796,o),
(888.427,380.451,c,{name = n00;})
);
}
);
width = 1763;
},
{
hints = (
{
horizontal = 1;
origin = (0,4);
target = (2,9);
type = Stem;
},
{
horizontal = 1;
origin = (1,6);
target = (0,16);
type = Stem;
},
{
horizontal = 1;
origin = (0,11);
target = down;
type = TopGhost;
}
);
layerId = "BB5EAC9A-3BFE-4B64-B8A6-57F3EF362270";
shapes = (
{
closed = 1;
nodes = (
(681.548,-96.5,l,{name = n00.1;}),
(709.536,-11.714,l,{name = sv01;}),
(754.126,-19.09,o),
(800.329,-22.9,o),
(847.848,-22.9,cs,{name = n21;}),
(1271.948,-22.9,o),
(1583.348,275.6,o),
(1583.348,722.85,cs,{name = n18;}),
(1583.348,1043.909,o),
(1422.758,1287.375,o),
(1175.151,1398.785,c),
(1221.998,1540.7,l,{name = n01;}),
(1011.448,1540.7,l),
(983.375,1455.344,l,{name = sv02;}),
(940.33,1462.149,o),
(895.705,1465.65,o),
(849.748,1465.65,cs,{name = n15;}),
(426.848,1465.65,o),
(107.298,1168.35,o),
(107.298,722.85,cs,{name = n12;}),
(107.298,402.667,o),
(271.244,158.107,o),
(519.676,45.429,c),
(472.998,-96.5,l)
);
},
{
closed = 1;
nodes = (
(598.017,283.632,l),
(456.41,369.225,o),
(367.798,529.683,o),
(367.798,724.9,cs,{name = n09;}),
(367.798,1013.55,o),
(565.548,1229.05,o),
(847.648,1229.05,cs,{name = n06;}),
(868.187,1229.05,o),
(888.249,1227.865,o),
(907.821,1225.615,c,{name = sv03;})
);
},
{
closed = 1;
nodes = (
(826.639,216.4,o),
(806.089,217.637,o),
(786.028,220.007,c,{name = sv04;}),
(1096.889,1161.704,l),
(1236.955,1076.284,o),
(1322.848,916.767,o),
(1322.848,724.9,cs,{name = n03;}),
(1322.848,431.4,o),
(1129.748,216.4,o),
(847.648,216.4,cs,{name = n00;})
);
}
);
width = 1695;
},
{
hints = (
{
origin = (0,19);
target = (1,3);
type = Stem;
},
{
origin = (2,6);
target = (0,7);
type = Stem;
},
{
horizontal = 1;
origin = (0,4);
target = (2,9);
type = Stem;
},
{
horizontal = 1;
origin = (1,6);
target = (0,16);
type = Stem;
},
{
horizontal = 1;
origin = (0,11);
target = down;
type = TopGhost;
},
{
horizontal = 1;
origin = (0,0);
target = up;
type = BottomGhost;
}
);
layerId = "6CA6CED3-33C1-4F88-A0AA-B66472516184";
shapes = (
{
closed = 1;
nodes = (
(584.722,-93,l,{name = ab01;}),
(616.906,5.825,l),
(679.008,-12.388,o),
(744.872,-22,o),
(813.272,-22,cs,{name = dv01;}),
(1203.222,-22,o),
(1498.872,286.5,o),
(1498.872,723.55,cs,{name = sh01;}),
(1498.872,1055.226,o),
(1328.636,1311.612,o),
(1076.143,1415.995,c),
(1115.272,1536.15,l,{name = av01.1;}),
(1039.272,1536.15,l),
(1008.028,1439.847,l),
(946.706,1457.629,o),
(881.432,1467,o),
(813.272,1467,cs,{name = av01;}),
(425.522,1467,o),
(119.122,1160.65,o),
(119.122,723.55,cs,{name = sh02;}),
(119.122,391.781,o),
(295.688,134.096,o),
(550.367,29.197,c),
(510.722,-93,l,{name = ih01;})
);
},
{
closed = 1;
nodes = (
(574.267,102.862,l),
(353.954,200.895,o),
(198.822,433.361,o),
(198.822,725.7,cs,{name = sh03;}),
(198.822,1111.35,o),
(470.472,1392.6,o),
(813.272,1392.6,cs,{name = at01;}),
(873.039,1392.6,o),
(930.48,1383.931,o),
(984.58,1367.571,c)
);
},
{
closed = 1;
nodes = (
(753.304,52.4,o),
(695.302,61.305,o),
(640.446,78.111,c),
(1052.173,1342.391,l),
(1270.203,1245.077,o),
(1419.172,1014.708,o),
(1419.172,725.7,cs,{name = sh04;}),
(1419.172,335.8,o),
(1156.072,52.4,o),
(813.272,52.4,cs,{name = dv02;})
);
}
);
width = 1626;
}
);
leftKerningGroup = C2;
rightKerningGroup = D;
unicode = 216;
},
{
color = (153, 255, 154, 255);
glyphname = OE;
rightMetricsKey = E;
layers = (
{
hints = (
{
horizontal = 1;
origin = (0,16);
target = up;
type = BottomGhost;
},
{
horizontal = 1;
origin = (0,2);
target = down;
type = TopGhost;
},
{
horizontal = 1;
origin = (0,21);
target = up;
type = BottomGhost;
}
);
layerId = "FB39A38C-31F6-4F37-9C40-5E842EB56E93";
shapes = (
{
closed = 1;
nodes = (
(95.478,1176.089,o),
(428.278,1464.289,o),
(886.178,1464.289,cs,{name = n15;}),
(1026.452,1464.289,o),
(1154.31,1437.194,o),
(1264.178,1386.486,c,{name = iv01;}),
(1264.178,1442.289,l),
(2360.878,1442.289,l,{name = n02;}),
(2360.878,1064.389,l,{name = n03.1;}),
(1687.878,1064.389,l),
(1687.878,915.389,l),
(2325.978,915.389,l,{name = n06.1;}),
(2325.978,560.389,l,{name = n07;}),
(1687.878,560.389,l),
(1687.878,376.189,l,{name = n09.1;}),
(2364.478,376.189,l,{name = n10;}),
(2364.478,-1.711,l,{name = n11;}),
(1264.178,-1.711,l,{name = n00.1;}),
(1264.178,55.465,l,{name = iv02;}),
(1153.335,3.813,o),
(1024.183,-23.811,o),
(882.478,-23.811,cs,{name = n21;}),
(426.378,-23.811,o),
(95.478,266.489,o),
(95.478,722.189,cs,{name = n12;})
);
},
{
closed = 1;
nodes = (
(1103.378,380.389,o),
(1226.578,526.989,o),
(1226.578,724.089,cs,{name = n03;}),
(1226.578,915.789,o),
(1103.078,1065.489,o),
(881.978,1065.489,cs,{name = n06;}),
(660.578,1065.489,o),
(536.778,915.789,o),
(536.778,724.089,cs,{name = n09;}),
(536.778,526.989,o),
(661.278,380.389,o),
(881.978,380.389,cs,{name = n00;})
);
}
);
width = 2446;
},
{
hints = (
{
horizontal = 1;
origin = (0,21);
target = (1,11);
type = Stem;
},
{
horizontal = 1;
origin = (0,16);
target = (0,15);
type = Stem;
},
{
horizontal = 1;
origin = (0,12);
target = (0,11);
type = Stem;
},
{
horizontal = 1;
origin = (0,8);
target = (0,7);
type = Stem;
},
{
horizontal = 1;
origin = (1,5);
target = (0,2);
type = Stem;
}
);
layerId = "BB5EAC9A-3BFE-4B64-B8A6-57F3EF362270";
shapes = (
{
closed = 1;
nodes = (
(107.289,1168.344,o),
(426.889,1465.644,o),
(849.789,1465.644,cs,{name = n15;}),
(1060.025,1465.644,o),
(1242.435,1392.436,o),
(1372.789,1264.032,c,{name = iv01;}),
(1372.789,1443.344,l),
(2336.089,1443.344,l,{name = n02;}),
(2336.089,1217.944,l,{name = n03.1;}),
(1623.589,1217.944,l),
(1623.589,863.044,l),
(2297.689,863.044,l,{name = n06.1;}),
(2297.689,650.044,l,{name = n07;}),
(1623.589,650.044,l),
(1623.589,224.844,l,{name = n09.1;}),
(2329.889,224.844,l,{name = n10;}),
(2329.889,-0.656,l,{name = n11;}),
(1372.789,-0.656,l,{name = n00.1;}),
(1372.789,180.46,l,{name = iv02;}),
(1242.047,51.084,o),
(1058.932,-22.856,o),
(847.889,-22.856,cs,{name = n21;}),
(425.889,-22.856,o),
(107.289,276.544,o),
(107.289,722.844,cs,{name = n12;})
);
},
{
closed = 1;
nodes = (
(1129.689,216.444,o),
(1322.889,431.344,o),
(1322.889,724.944,cs,{name = n03;}),
(1322.889,1013.544,o),
(1128.489,1229.044,o),
(847.689,1229.044,cs,{name = n06;}),
(565.589,1229.044,o),
(367.789,1013.544,o),
(367.789,724.944,cs,{name = n09;}),
(367.789,431.344,o),
(567.989,216.444,o),
(847.689,216.444,cs,{name = n00;})
);
}
);
width = 2441;
},
{
hints = (
{
origin = (0,24);
target = (1,8);
type = Stem;
},
{
origin = (1,2);
target = (0,13);
type = Stem;
},
{
origin = (0,5);
target = (0,10);
type = Stem;
},
{
horizontal = 1;
origin = (0,21);
target = (1,11);
type = Stem;
},
{
horizontal = 1;
origin = (0,16);
target = (0,15);
type = Stem;
},
{
horizontal = 1;
origin = (0,12);
target = (0,11);
type = Stem;
},
{
horizontal = 1;
origin = (0,8);
target = (0,7);
type = Stem;
},
{
horizontal = 1;
origin = (1,5);
target = (0,2);
type = Stem;
}
);
layerId = "6CA6CED3-33C1-4F88-A0AA-B66472516184";
shapes = (
{
closed = 1;
nodes = (
(119.1,1160.6,o),
(425.5,1467,o),
(813.3,1467,cs,{name = av01;}),
(1100.674,1467,o),
(1336.85,1300.534,o),
(1441.2,1038.027,c,{name = sh01;}),
(1441.2,1444.5,l,{name = av05;}),
(2271.2,1444.5,l,{name = dv03;}),
(2271.2,1371.4,l,{name = av01.1;}),
(1519.2,1371.4,l,{name = sh02;}),
(1519.2,810.6,l,{name = av00;}),
(2229.2,810.6,l,{name = av04;}),
(2229.2,739.7,l,{name = av03;}),
(1519.2,739.7,l,{name = av06;}),
(1519.2,73.6,l,{name = sv01;}),
(2255.2,73.6,l),
(2255.2,0.5,l,{name = ab01;}),
(1441.2,0.5,l,{name = sh03;}),
(1441.2,408.754,l,{name = ih01;}),
(1336.85,145.607,o),
(1100.674,-22,o),
(813.3,-22,cs,{name = dv01;}),
(425.5,-22,o),
(119.1,286.5,o),
(119.1,723.6,cs,{name = dh01;})
);
},
{
closed = 1;
nodes = (
(1156.1,52.4,o),
(1419.2,335.8,o),
(1419.2,725.7,cs,{name = dh03;}),
(1419.2,1111.4,o),
(1153.9,1392.6,o),
(813.3,1392.6,cs,{name = at01;}),
(470.5,1392.6,o),
(198.8,1111.4,o),
(198.8,725.7,cs,{name = dh02;}),
(198.8,335.8,o),
(474.8,52.4,o),
(813.3,52.4,cs,{name = dv02;})
);
}
);
width = 2394;
}
);
leftKerningGroup = C2;
rightKerningGroup = E;
unicode = 338;
},
{
glyphname = P;
layers = (
{
hints = (
{
horizontal = 1;
origin = (0,9);
target = down;
type = TopGhost;
},
{
horizontal = 1;
origin = (0,0);
target = up;
type = BottomGhost;
}
);
layerId = "FB39A38C-31F6-4F37-9C40-5E842EB56E93";
shapes = (
{
closed = 1;
nodes = (
(126,0,l,{name = ab01;}),
(550,0,l),
(550,374,l),
(771,374,ls),
(1096.069,374,o),
(1322,566.153,o),
(1322,906.971,cs),
(1322,1246.073,o),
(1095.374,1443,o),
(771,1443,cs,{name = av01;}),
(126,1443,l)
);
},
{
closed = 1;
nodes = (
(894,792.439,o),
(805.485,737,o),
(670,737,cs),
(550,737,l),
(550,1084,l),
(670,1084,ls),
(807.441,1084,o),
(894,1028.971,o),
(894,910.084,cs)
);
}
);
width = 1403;
},
{
hints = (
{
origin = (0,0);
target = (0,1);
type = Stem;
},
{
horizontal = 1;
origin = (0,2);
target = (1,3);
type = Stem;
},
{
horizontal = 1;
origin = (1,4);
target = (0,10);
type = Stem;
},
{
horizontal = 1;
origin = (0,0);
target = up;
type = BottomGhost;
}
);
layerId = "BB5EAC9A-3BFE-4B64-B8A6-57F3EF362270";
shapes = (
{
closed = 1;
nodes = (
(156.5,0,l,{name = n00;}),
(407,0,l,{name = n01;}),
(407,478.164,l,{name = n02;}),
(669,478.164,ls),
(951.534,478.164,o),
(1181.5,623.125,o),
(1181.5,966.514,cs,{name = n06;}),
(1181.5,1302.598,o),
(942.187,1443.5,o),
(673,1443.5,cs,{name = n09;}),
(156.5,1443.5,l,{name = dv02;})
);
},
{
closed = 1;
nodes = (
(927.5,756.682,o),
(771.243,696.193,o),
(619.5,696.193,cs),
(407,696.193,l,{name = n15;}),
(407,1227.47,l,{name = dv01;}),
(622.5,1227.47,ls,{name = n17;}),
(750.221,1227.47,o),
(927.5,1171.484,o),
(927.5,968.07,cs,{name = n11;})
);
}
);
width = 1271;
},
{
hints = (
{
origin = (0,0);
target = (0,1);
type = Stem;
},
{
origin = (1,8);
target = (0,6);
type = Stem;
},
{
horizontal = 1;
origin = (0,2);
target = (1,3);
type = Stem;
},
{
horizontal = 1;
origin = (1,4);
target = (0,10);
type = Stem;
},
{
horizontal = 1;
origin = (0,0);
target = up;
type = BottomGhost;
}
);
layerId = "6CA6CED3-33C1-4F88-A0AA-B66472516184";
shapes = (
{
closed = 1;
nodes = (
(187,0,l,{name = sh01;}),
(264,0,l,{name = ab01;}),
(264,582.327,l,{name = dv07;}),
(567,582.327,ls,{name = dv03;}),
(807,582.327,o),
(1041,680.098,o),
(1041,1026.057,cs,{name = sh02;}),
(1041,1359.122,o),
(789,1444,o),
(575,1444,cs,{name = dv02;}),
(187,1444,l,{name = dv06;})
);
},
{
closed = 1;
nodes = (
(961,720.926,o),
(737,655.387,o),
(569,655.387,cs,{name = dv04;}),
(264,655.387,l,{name = sh03;}),
(264,1370.94,l,{name = dv05;}),
(575,1370.94,ls,{name = dv01;}),
(693,1370.94,o),
(961,1313.997,o),
(961,1026.057,cs,{name = ah01;})
);
}
);
width = 1139;
}
);
leftKerningGroup = B2;
rightKerningGroup = P;
unicode = 80;
},
{
color = (153, 254, 255, 255);
glyphname = Thorn;
layers = (
{
hints = (
{
horizontal = 1;
origin = (0,1);
target = down;
type = TopGhost;
},
{
horizontal = 1;
origin = (0,0);
target = up;
type = BottomGhost;
}
);
layerId = "FB39A38C-31F6-4F37-9C40-5E842EB56E93";
shapes = (
{
closed = 1;
nodes = (
(164.222,0,l,{name = n00;}),
(164.222,1404.556,l,{name = n01;}),
(591.222,1404.556,l),
(591.222,1248,l,{name = n03;}),
(700,1248,ls,{name = dv04;}),
(1066.667,1248,o),
(1270.889,1024.793,o),
(1270.889,696.705,cs,{name = n07;}),
(1270.889,370.574,o),
(1064.889,149.444,o),
(700,149.444,cs,{name = dv01;}),
(591.222,149.444,l,{name = n11;}),
(591.222,0,l,{name = n12;})
);
},
{
closed = 1;
nodes = (
(591.222,534.111,l,{name = n13;}),
(698.329,534.111,ls,{name = dv02;}),
(836.939,534.111,o),
(880,588.34,o),
(880,696.868,cs,{name = n17;}),
(880,805.395,o),
(836.939,859.556,o),
(698.329,859.556,cs,{name = dv03;}),
(591.222,859.556,l,{name = n21;})
);
}
);
width = 1339;
},
{
hints = (
{
origin = (1,4);
target = (0,7);
type = Stem;
},
{
horizontal = 1;
origin = (0,10);
target = (1,1);
type = Stem;
},
{
horizontal = 1;
origin = (1,7);
target = (0,4);
type = Stem;
},
{
horizontal = 1;
origin = (0,1);
target = down;
type = TopGhost;
},
{
horizontal = 1;
origin = (0,0);
target = up;
type = BottomGhost;
}
);
layerId = "BB5EAC9A-3BFE-4B64-B8A6-57F3EF362270";
shapes = (
{
closed = 1;
nodes = (
(153.111,0,l,{name = n00;}),
(153.111,1374.778,l,{name = n01;}),
(405.611,1374.778,l),
(405.611,1192,l,{name = n03;}),
(645.63,1192,ls,{name = dv04;}),
(970.494,1192,o),
(1186.444,1011.396,o),
(1186.444,689.353,cs,{name = n07;}),
(1186.444,368.287,o),
(969.605,189.222,o),
(645.63,189.222,cs,{name = dv01;}),
(405.611,189.222,l,{name = n11;}),
(405.611,0,l,{name = n12;})
);
},
{
closed = 1;
nodes = (
(405.611,417.556,l,{name = n13;}),
(649.991,417.556,ls,{name = dv02;}),
(825.667,417.556,o),
(952.5,490.67,o),
(952.5,689.434,cs,{name = n17;}),
(952.5,888.198,o),
(825.667,960.778,o),
(649.991,960.778,cs,{name = dv03;}),
(405.611,960.778,l,{name = n21;})
);
}
);
width = 1254;
},
{
hints = (
{
origin = (0,0);
target = (0,12);
type = Stem;
},
{
origin = (1,4);
target = (0,7);
type = Stem;
},
{
horizontal = 1;
origin = (0,10);
target = (1,1);
type = Stem;
},
{
horizontal = 1;
origin = (1,7);
target = (0,4);
type = Stem;
},
{
horizontal = 1;
origin = (0,1);
target = down;
type = TopGhost;
},
{
horizontal = 1;
origin = (0,0);
target = up;
type = BottomGhost;
}
);
layerId = "6CA6CED3-33C1-4F88-A0AA-B66472516184";
shapes = (
{
closed = 1;
nodes = (
(142,0,l,{name = ab01;}),
(142,1345,l,{name = av01;}),
(220,1345,l,{name = sh03;}),
(220,1136,l),
(591.26,1136,ls,{name = dv02;}),
(874.321,1136,o),
(1102,998,o),
(1102,682,cs,{name = sh04;}),
(1102,366,o),
(874.321,229,o),
(591.26,229,cs,{name = dv03;}),
(220,229,l),
(220,0,l,{name = sh01;})
);
},
{
closed = 1;
nodes = (
(220,301,l,{name = sh02;}),
(601.653,301,ls,{name = dv04;}),
(814.396,301,o),
(1025,393,o),
(1025,682,cs,{name = ah01;}),
(1025,971,o),
(814.396,1062,o),
(601.653,1062,cs,{name = dv01;}),
(220,1062,l)
);
}
);
width = 1168;
}
);
leftKerningGroup = B2;
unicode = 222;
},
{
glyphname = Q;
layers = (
{
hints = (
{
horizontal = 1;
origin = (0,11);
target = down;
type = TopGhost;
}
);
layerId = "FB39A38C-31F6-4F37-9C40-5E842EB56E93";
shapes = (
{
closed = 1;
nodes = (
(719.254,-105.426,o),
(1075.249,-266.936,o),
(1415.056,-455.096,c),
(1612.106,-116.896,l),
(1084.86,137.792,l),
(1084.86,158.576,l),
(1447.271,143.318,o),
(1657.856,429.597,o),
(1657.856,722.154,cs,{name = n18;}),
(1657.856,1177.854,o),
(1332.556,1464.354,o),
(876.206,1464.354,cs,{name = n15;}),
(418.256,1464.354,o),
(85.456,1176.054,o),
(85.456,722.154,cs,{name = n12;}),
(85.456,450.729,o),
(204.359,237.167,o),
(395.634,109.385,cs)
);
},
{
closed = 1;
nodes = (
(651.306,380.404,o),
(526.756,526.954,o),
(526.756,724.104,cs,{name = n09;}),
(526.756,915.804,o),
(650.606,1065.504,o),
(872.006,1065.504,cs,{name = n06;}),
(1093.056,1065.504,o),
(1216.556,915.804,o),
(1216.556,724.104,cs,{name = n03;}),
(1216.556,526.954,o),
(1093.406,380.404,o),
(872.006,380.404,cs,{name = n00;})
);
}
);
width = 1739;
},
{
hints = (
{
horizontal = 1;
origin = (0,5);
target = (1,11);
type = Stem;
},
{
horizontal = 1;
origin = (1,5);
target = (0,11);
type = Stem;
}
);
layerId = "BB5EAC9A-3BFE-4B64-B8A6-57F3EF362270";
shapes = (
{
closed = 1;
nodes = (
(714.746,-77.625,o),
(1191.964,-308.238,o),
(1436.553,-439.723,c),
(1556.353,-235.373,l),
(933.992,61.198,l),
(933.992,78.014,l,{name = dv01;}),
(1326.942,59.178,o),
(1578.353,362.592,o),
(1578.353,722.852,cs,{name = n09;}),
(1578.353,1169.252,o),
(1267.878,1465.677,o),
(844.753,1465.677,cs,{name = n12;}),
(421.878,1465.677,o),
(102.303,1168.352,o),
(102.303,722.852,cs,{name = n15;}),
(102.303,418.987,o),
(252.454,182.118,o),
(478.251,67.185,c)
);
},
{
closed = 1;
nodes = (
(563.053,216.402,o),
(362.803,431.377,o),
(362.803,724.902,cs,{name = n21;}),
(362.803,1013.577,o),
(560.553,1229.052,o),
(842.653,1229.052,cs,{name = n24;}),
(1123.503,1229.052,o),
(1317.853,1013.577,o),
(1317.853,724.902,cs,{name = n27;}),
(1317.853,431.377,o),
(1124.753,216.402,o),
(842.653,216.402,cs,{name = dv02;})
);
}
);
width = 1677;
},
{
hints = (
{
origin = (0,14);
target = (1,2);
type = Stem;
},
{
origin = (1,8);
target = (0,8);
type = Stem;
},
{
horizontal = 1;
origin = (0,5);
target = (1,11);
type = Stem;
},
{
horizontal = 1;
origin = (1,5);
target = (0,11);
type = Stem;
}
);
layerId = "6CA6CED3-33C1-4F88-A0AA-B66472516184";
shapes = (
{
closed = 1;
nodes = (
(710.238,-49.824,o),
(1308.679,-349.541,o),
(1458.05,-424.35,c),
(1500.6,-353.85,l,{name = sh02;}),
(783.124,-15.396,l,{name = ab01;}),
(783.124,-2.547,l),
(1206.612,-24.962,o),
(1498.85,295.588,o),
(1498.85,723.55,cs,{name = sh01;}),
(1498.85,1160.65,o),
(1203.2,1467,o),
(813.3,1467,cs,{name = av01;}),
(425.5,1467,o),
(119.15,1160.65,o),
(119.15,723.55,cs,{name = sh03;}),
(119.15,387.245,o),
(300.55,127.069,o),
(560.867,24.985,c)
);
},
{
closed = 1;
nodes = (
(474.8,52.4,o),
(198.85,335.8,o),
(198.85,725.7,cs,{name = sh04;}),
(198.85,1111.35,o),
(470.5,1392.6,o),
(813.3,1392.6,cs,{name = at01;}),
(1153.95,1392.6,o),
(1419.15,1111.35,o),
(1419.15,725.7,cs,{name = sh05;}),
(1419.15,335.8,o),
(1156.1,52.4,o),
(813.3,52.4,cs,{name = sv01;})
);
}
);
width = 1614;
}
);
leftKerningGroup = C2;
unicode = 81;
},
{
glyphname = R;
layers = (
{
hints = (
{
horizontal = 1;
origin = (1,3);
target = down;
type = TopGhost;
},
{
horizontal = 1;
origin = (1,1);
target = up;
type = BottomGhost;
}
);
layerId = "FB39A38C-31F6-4F37-9C40-5E842EB56E93";
shapes = (
{
closed = 1;
nodes = (
(549.9,805.711,l,{name = n01;}),
(742,805.711,ls,{name = dv01;}),
(797.889,805.711,o),
(884.889,814.767,o),
(884.889,942.513,cs,{name = n13;}),
(884.889,1071.85,o),
(798.889,1088.66,o),
(749.667,1088.66,cs,{name = n16;}),
(549.9,1088.66,l,{name = n13;})
);
},
{
closed = 1;
nodes = (
(549.9,-0.116,l),
(126.199,0.009,l,{name = ab01;}),
(126.199,1444.067,l),
(851.333,1444,ls,{name = n20;}),
(1167.556,1443.971,o),
(1308.6,1244.565,o),
(1308.6,974.198,cs,{name = n23;}),
(1308.6,809.189,o),
(1243.508,694.663,o),
(1067.045,641,c),
(1067.045,626.24,l),
(1242.625,611.654,o),
(1306.222,525.5,o),
(1306.222,377.096,cs,{name = n29;}),
(1306.222,0.009,l,{name = ab02;}),
(882.5,0.009,l,{name = n01;}),
(882.5,364.557,ls,{name = n04;}),
(882.5,454.282,o),
(842.088,483.815,o),
(739.889,483.815,cs,{name = n07;}),
(549.9,483.815,l,{name = n08;})
);
}
);
width = 1384;
},
{
hints = (
{
origin = (1,1);
target = (1,0);
type = Stem;
},
{
horizontal = 1;
origin = (1,19);
target = (0,1);
type = Stem;
},
{
horizontal = 1;
origin = (0,7);
target = (1,3);
type = Stem;
},
{
horizontal = 1;
origin = (1,1);
target = up;
type = BottomGhost;
}
);
layerId = "BB5EAC9A-3BFE-4B64-B8A6-57F3EF362270";
shapes = (
{
closed = 1;
nodes = (
(406.681,780.055,l),
(708.293,780.055,ls,{name = dv02;}),
(813.934,780.055,o),
(943.175,824.756,o),
(943.175,1009.855,cs,{name = n04;}),
(943.175,1198.137,o),
(808.424,1229.8,o),
(719.397,1229.8,cs,{name = n07;}),
(406.681,1229.8,l,{name = n08;})
);
},
{
closed = 1;
nodes = (
(406.403,-0.098,l,{name = n09;}),
(156.831,0.003,l,{name = n10;}),
(156.831,1444.033,l,{name = n11;}),
(770.648,1444,ls,{name = n12;}),
(1063.009,1443.984,o),
(1195.031,1266.493,o),
(1195.031,1018.324,cs,{name = n15;}),
(1195.031,853.513,o),
(1118.912,714.495,o),
(949.417,675.5,c),
(949.417,663.008,l),
(1099.807,654.852,o),
(1181.611,580.84,o),
(1181.606,399.125,cs),
(1181.596,0.004,l,{name = ab01;}),
(930.557,0.004,l),
(930.557,392.472,ls),
(930.557,565.487,o),
(806.166,574.077,o),
(707.61,574.077,cs,{name = dv01;}),
(406.682,574.077,l)
);
}
);
width = 1313;
},
{
hints = (
{
origin = (1,1);
target = (1,0);
type = Stem;
},
{
origin = (1,15);
target = (1,14);
type = Stem;
},
{
origin = (0,4);
target = (1,6);
type = Stem;
},
{
horizontal = 1;
origin = (1,19);
target = (0,1);
type = Stem;
},
{
horizontal = 1;
origin = (0,7);
target = (1,3);
type = Stem;
},
{
horizontal = 1;
origin = (1,14);
target = up;
type = BottomGhost;
}
);
layerId = "6CA6CED3-33C1-4F88-A0AA-B66472516184";
shapes = (
{
closed = 1;
nodes = (
(265.462,734.399,l,{name = sh01;}),
(675.462,734.399,ls,{name = sv02;}),
(830.462,734.399,o),
(1001.462,816.731,o),
(1001.462,1067.416,cs,{name = dh01;}),
(1001.462,1323.016,o),
(818.462,1370.94,o),
(689.962,1370.94,cs,{name = dv01;}),
(265.462,1370.94,l)
);
},
{
closed = 1;
nodes = (
(264.906,-0.08,l,{name = sv01;}),
(187.462,-0.003,l,{name = sv04;}),
(187.462,1444,l,{name = sv05;}),
(689.962,1444,ls,{name = dv02;}),
(958.462,1444,o),
(1081.462,1288.42,o),
(1081.462,1062.449,cs,{name = dh02;}),
(1081.462,897.837,o),
(994.316,734.327,o),
(831.79,710,c),
(831.79,699.776,l),
(956.989,698.049,o),
(1057,636.179,o),
(1056.99,421.155,cs),
(1056.969,0,l,{name = ab01;}),
(978.613,0,l,{name = dh03;}),
(978.613,420.386,ls,{name = ih01;}),
(978.613,676.692,o),
(770.719,664.339,o),
(676.182,664.339,cs,{name = dv03;}),
(265.463,664.339,l)
);
}
);
width = 1242;
}
);
leftKerningGroup = B2;
rightKerningGroup = R;
unicode = 82;
},
{
glyphname = S;
layers = (
{
hints = (
{
horizontal = 1;
origin = (0,24);
target = up;
type = BottomGhost;
},
{
horizontal = 1;
origin = (0,5);
target = down;
type = TopGhost;
}
);
layerId = "FB39A38C-31F6-4F37-9C40-5E842EB56E93";
shapes = (
{
closed = 1;
nodes = (
(310.699,633.925,o),
(76.833,701.526,o),
(76.833,1011.912,cs),
(76.833,1330.697,o),
(374.389,1464.044,o),
(698.842,1464.044,cs,{name = .av01;}),
(1068.328,1464.044,o),
(1358.002,1309.83,o),
(1350.531,988.984,c),
(915.402,988.984,l),
(915.402,1105.379,o),
(831.21,1146.959,o),
(709.405,1146.959,cs),
(619.958,1146.959,o),
(522.575,1125.782,o),
(522.575,1037.52,cs),
(522.575,967.939,o),
(641.238,934.086,o),
(762.321,915.897,cs),
(1089.196,866.794,o),
(1367.895,758.461,o),
(1367.895,445.652,cs),
(1367.895,120.169,o),
(1047.254,-23.998,o),
(723.162,-23.998,cs,{name = ab01;}),
(349.091,-23.998,o),
(63.281,88.43,o),
(54.316,497.899,c),
(490.218,497.899,l),
(495.834,349.146,o),
(566.217,293.087,o),
(724.09,293.087,cs),
(823.842,293.087,o),
(942.195,319.725,o),
(942.195,415.613,cs),
(942.195,508.668,o),
(742.684,540.923,o),
(535.302,585.57,cs)
);
}
);
width = 1417;
},
{
hints = (
{
horizontal = 1;
origin = (0,24);
target = (0,31);
type = Stem;
},
{
horizontal = 1;
origin = (0,12);
target = (0,5);
type = Stem;
}
);
layerId = "BB5EAC9A-3BFE-4B64-B8A6-57F3EF362270";
shapes = (
{
closed = 1;
nodes = (
(314.266,691.016,o),
(91.207,766.73,o),
(91.207,1053.219,cs,{name = n35;}),
(91.207,1338.181,o),
(363.835,1465.77,o),
(638.771,1465.77,cs,{name = n32;}),
(947.95,1465.77,o),
(1206.913,1328.979,o),
(1205.281,1037.303,c,{name = n29;}),
(950.926,1036.614,l,{name = n28;}),
(949.999,1183.234,o),
(804.005,1241.999,o),
(642.288,1241.999,cs,{name = n25;}),
(505.338,1241.999,o),
(351.911,1193.409,o),
(351.911,1062.658,cs,{name = n22;}),
(351.911,931.834,o),
(505.598,891.392,o),
(669.69,859.304,c),
(958.678,807.311,o),
(1237.252,737.068,o),
(1237.252,420.522,cs,{name = n16;}),
(1237.252,111.073,o),
(945.414,-23.675,o),
(658.58,-23.675,cs,{name = n13;}),
(327.517,-23.675,o),
(68.225,79.039,o),
(61.84,443.084,c,{name = n10;}),
(317.188,443.084,l,{name = n09;}),
(321.199,249.184,o),
(459.235,190.096,o),
(654.46,190.096,cs,{name = n06;}),
(802.84,190.096,o),
(973.93,246.492,o),
(973.93,402.666,cs,{name = n03;}),
(973.93,565.528,o),
(755.111,592.601,o),
(535.738,641.574,cs)
);
}
);
width = 1283;
},
{
hints = (
{
origin = (0,27);
target = (0,28);
type = Stem;
},
{
origin = (0,2);
target = (0,15);
type = Stem;
},
{
origin = (0,9);
target = (0,8);
type = Stem;
},
{
origin = (0,34);
target = (0,21);
type = Stem;
},
{
horizontal = 1;
origin = (0,24);
target = (0,31);
type = Stem;
},
{
horizontal = 1;
origin = (0,12);
target = (0,5);
type = Stem;
}
);
layerId = "6CA6CED3-33C1-4F88-A0AA-B66472516184";
shapes = (
{
closed = 1;
nodes = (
(318.912,777.862,o),
(105,844.454,o),
(105,1101.649,cs,{name = ih02;}),
(105,1347.716,o),
(353.29,1467,o),
(580.025,1467,cs,{name = dv04;}),
(830.514,1467,o),
(1059.535,1347.191,o),
(1063.571,1083.979,c,{name = .dh02;}),
(984.777,1082.622,l,{name = .dh01;}),
(982.951,1300.681,o),
(777.063,1393,o),
(576.702,1393,cs,{name = dv03;}),
(393.729,1393,o),
(186,1307.248,o),
(186,1106.845,cs,{name = sh02;}),
(186,903.682,o),
(370.173,848.057,o),
(572.26,801,cs),
(817.896,743.803,o),
(1090,696.829,o),
(1090,384.912,cs,{name = sh01;}),
(1090,99.093,o),
(831.16,-23,o),
(585.444,-23,cs,{name = dv01;}),
(301.845,-23,o),
(72.77,70.232,o),
(69,390,c,{name = dh01;}),
(149,390,l,{name = dh02;}),
(151.487,122.197,o),
(356.341,51,o),
(589.464,51,cs,{name = dv02;}),
(786.289,51,o),
(1010,143.592,o),
(1010,378.531,cs,{name = ih01;}),
(1010,630.269,o),
(771.066,671.21,o),
(538.739,726.01,cs)
);
}
);
width = 1149;
}
);
leftKerningGroup = S2;
rightKerningGroup = S;
unicode = 83;
},
{
glyphname = T;
layers = (
{
hints = (
{
horizontal = 1;
origin = (0,4);
target = down;
type = TopGhost;
},
{
horizontal = 1;
origin = (0,0);
target = up;
type = BottomGhost;
}
);
layerId = "FB39A38C-31F6-4F37-9C40-5E842EB56E93";
shapes = (
{
closed = 1;
nodes = (
(508.812,0.001,l,{name = n00;}),
(933.194,0.001,l),
(933.194,1059.08,l),
(1395.689,1059.08,l),
(1395.689,1443.782,l),
(46.74,1443.782,l),
(46.74,1059.08,l),
(508.812,1059.08,l)
);
}
);
width = 1442;
},
{
hints = (
{
origin = (0,0);
target = (0,1);
type = Stem;
},
{
horizontal = 1;
origin = (0,2);
target = (0,4);
type = Stem;
},
{
horizontal = 1;
origin = (0,0);
target = up;
type = BottomGhost;
}
);
layerId = "BB5EAC9A-3BFE-4B64-B8A6-57F3EF362270";
shapes = (
{
closed = 1;
nodes = (
(529.757,0.024,l,{name = n00;}),
(779.703,0.024,l,{name = n01;}),
(779.703,1211.718,l),
(1276.095,1211.718,l,{name = n03;}),
(1276.095,1445.165,l,{name = n04;}),
(40.967,1445.165,l),
(40.967,1211.718,l),
(529.757,1211.718,l)
);
}
);
width = 1311;
},
{
hints = (
{
origin = (0,0);
target = (0,1);
type = Stem;
},
{
horizontal = 1;
origin = (0,3);
target = (0,4);
type = Stem;
},
{
horizontal = 1;
origin = (0,0);
target = up;
type = BottomGhost;
}
);
layerId = "6CA6CED3-33C1-4F88-A0AA-B66472516184";
shapes = (
{
closed = 1;
nodes = (
(550.45,0.075,l,{name = ab01;}),
(628.65,0.075,l),
(628.65,1371.564,l),
(1138.1,1371.564,l),
(1138.1,1443.989,l),
(41.8,1443.989,l),
(41.8,1371.564,l),
(550.45,1371.564,l)
);
}
);
width = 1179;
}
);
leftKerningGroup = T2;
rightKerningGroup = T;
unicode = 84;
},
{
glyphname = U;
layers = (
{
hints = (
{
horizontal = 1;
origin = (0,17);
target = up;
type = BottomGhost;
},
{
horizontal = 1;
origin = (0,3);
target = down;
type = TopGhost;
}
);
layerId = "FB39A38C-31F6-4F37-9C40-5E842EB56E93";
shapes = (
{
closed = 1;
nodes = (
(1137,-39,o),
(1388,174,o),
(1388,500,cs),
(1388,1444,l,{name = av02;}),
(964,1444,l),
(964,542,ls),
(964,391,o),
(890,307,o),
(752,307,cs),
(614,307,o),
(540,391,o),
(540,542,cs),
(540,1444,l,{name = av03;}),
(116,1444,l),
(116,500,ls),
(116,172,o),
(370,-39,o),
(751,-39,cs,{name = av01;})
);
}
);
width = 1504;
},
{
hints = (
{
origin = (0,13);
target = (0,12);
type = Stem;
},
{
origin = (0,4);
target = (0,3);
type = Stem;
},
{
horizontal = 1;
origin = (0,17);
target = (0,8);
type = Stem;
},
{
horizontal = 1;
origin = (0,3);
target = down;
type = TopGhost;
}
);
layerId = "BB5EAC9A-3BFE-4B64-B8A6-57F3EF362270";
shapes = (
{
closed = 1;
nodes = (
(1081.5,-30.5,o),
(1291,184,o),
(1291,531,cs),
(1291,1444.075,l,{name = n04;}),
(1041,1444.075,l,{name = n05;}),
(1041,552,ls),
(1041,317.5,o),
(937,181.5,o),
(721,181.5,cs,{name = n09;}),
(504,181.5,o),
(400,317.5,o),
(400,552,cs,{name = sh01;}),
(400,1444.075,l,{name = n13;}),
(150,1444.075,l,{name = n14;}),
(150,531,ls),
(150,183,o),
(362,-30.5,o),
(720.5,-30.5,cs,{name = n00;})
);
}
);
width = 1442;
},
{
hints = (
{
origin = (0,13);
target = (0,12);
type = Stem;
},
{
origin = (0,4);
target = (0,3);
type = Stem;
},
{
horizontal = 1;
origin = (0,17);
target = (0,8);
type = Stem;
},
{
horizontal = 1;
origin = (0,3);
target = down;
type = TopGhost;
}
);
layerId = "6CA6CED3-33C1-4F88-A0AA-B66472516184";
shapes = (
{
closed = 1;
nodes = (
(1026,-22,o),
(1194,194,o),
(1194,562,cs),
(1194,1444.15,l,{name = av03;}),
(1116,1444.15,l),
(1116,562,ls),
(1116,244,o),
(984,56,o),
(690,56,cs,{name = dv02;}),
(394,56,o),
(262,244,o),
(262,562,cs),
(262,1444.15,l,{name = av01;}),
(184,1444.15,l,{name = av02;}),
(184,562,ls),
(184,194,o),
(354,-22,o),
(690,-22,cs,{name = dv01;})
);
}
);
width = 1380;
}
);
leftKerningGroup = U;
rightKerningGroup = J;
unicode = 85;
},
{
glyphname = V;
layers = (
{
hints = (
{
horizontal = 1;
origin = (0,0);
target = up;
type = BottomGhost;
},
{
horizontal = 1;
origin = (0,2);
target = down;
type = TopGhost;
}
);
layerId = "FB39A38C-31F6-4F37-9C40-5E842EB56E93";
shapes = (
{
closed = 1;
nodes = (
(425.556,-0.001,l,{name = ab01;}),
(1141.333,-0.001,l),
(1549.778,1443.999,l,{name = av01;}),
(1112,1443.999,l),
(787.009,275.42,l),
(766.948,275.42,l),
(456.222,1443.999,l,{name = av02;}),
(18.222,1443.999,l)
);
}
);
width = 1568;
},
{
hints = (
{
horizontal = 1;
origin = (0,0);
target = up;
type = BottomGhost;
},
{
horizontal = 1;
origin = (0,2);
target = down;
type = TopGhost;
}
);
layerId = "BB5EAC9A-3BFE-4B64-B8A6-57F3EF362270";
shapes = (
{
closed = 1;
nodes = (
(489.778,-0.001,l,{name = n00;}),
(908.667,-0.001,l),
(1371.389,1443.999,l,{name = n02;}),
(1110.5,1443.999,l),
(705.614,176.671,l),
(688.544,176.671,l),
(290.111,1443.999,l,{name = av01;}),
(28.111,1443.999,l)
);
}
);
width = 1399;
},
{
hints = (
{
horizontal = 1;
origin = (0,0);
target = up;
type = BottomGhost;
},
{
horizontal = 1;
origin = (0,2);
target = down;
type = TopGhost;
}
);
layerId = "6CA6CED3-33C1-4F88-A0AA-B66472516184";
shapes = (
{
closed = 1;
nodes = (
(554,0,l,{name = ab01;}),
(676,0,l,{name = av02;}),
(1193,1444,l,{name = av01;}),
(1109,1444,l),
(624.219,77.922,l),
(610.139,77.922,l),
(124,1444,l,{name = av03;}),
(38,1444,l)
);
}
);
width = 1230;
}
);
leftKerningGroup = V2;
rightKerningGroup = V;
unicode = 86;
},
{
glyphname = W;
layers = (
{
hints = (
{
horizontal = 1;
origin = (0,2);
target = up;
type = BottomGhost;
},
{
horizontal = 1;
origin = (0,0);
target = down;
type = TopGhost;
}
);
layerId = "FB39A38C-31F6-4F37-9C40-5E842EB56E93";
shapes = (
{
closed = 1;
nodes = (
(1994.322,1443.978,l,{name = n00;}),
(2417.972,1443.978,l,{name = n03;}),
(2217.972,-0.022,l,{name = av01;}),
(1467.022,-0.022,l),
(1244.022,1138.578,l),
(1223.922,1138.578,l),
(991.222,-0.022,l,{name = av03;}),
(245.422,-0.022,l,{name = n01.1;}),
(35.422,1443.978,l,{name = n00.1;}),
(459.122,1443.978,l,{name = n03.1;}),
(625.632,299.028,l),
(648.422,299.028,l),
(908.572,1443.978,l,{name = ab01;}),
(1560.322,1443.978,l),
(1813.922,305.028,l),
(1836.563,304.955,l)
);
}
);
width = 2469;
},
{
hints = (
{
horizontal = 1;
origin = (0,2);
target = up;
type = BottomGhost;
},
{
horizontal = 1;
origin = (0,0);
target = down;
type = TopGhost;
}
);
layerId = "BB5EAC9A-3BFE-4B64-B8A6-57F3EF362270";
shapes = (
{
closed = 1;
nodes = (
(1892.036,1443.989,l,{name = av01;}),
(2142.861,1443.989,l),
(1887.861,-0.011,l,{name = ab01;}),
(1447.261,-0.011,l),
(1107.361,1252.339,l),
(1088.286,1252.339,l),
(739.861,-0.011,l,{name = ab02;}),
(300.711,-0.011,l),
(45.711,1443.989,l,{name = av02;}),
(296.561,1443.989,l),
(521.204,190.964,l),
(542.336,190.964,l),
(904.536,1443.989,l,{name = av03;}),
(1291.411,1443.989,l),
(1647.336,194.489,l),
(1667.168,194.453,l)
);
}
);
width = 2192;
},
{
hints = (
{
horizontal = 1;
origin = (0,2);
target = up;
type = BottomGhost;
},
{
horizontal = 1;
origin = (0,0);
target = down;
type = TopGhost;
}
);
layerId = "6CA6CED3-33C1-4F88-A0AA-B66472516184";
shapes = (
{
closed = 1;
nodes = (
(1789.75,1444,l,{name = ab01.2;}),
(1867.75,1444,l,{name = ab02.1;}),
(1557.75,0,l,{name = av01.2;}),
(1427.5,0,l),
(970.7,1366.1,l),
(952.65,1366.1,l),
(488.5,0,l,{name = av03;}),
(356,0,l,{name = av02;}),
(56,1444,l,{name = ab01;}),
(134,1444,l,{name = ab02;}),
(416.777,82.9,l),
(436.25,82.9,l),
(900.5,1444,l,{name = ab01.1;}),
(1022.5,1444,l,{name = av02.1;}),
(1480.75,83.95,l),
(1497.773,83.95,l)
);
}
);
width = 1914;
}
);
leftKerningGroup = V2;
rightKerningGroup = V;
unicode = 87;
},
{
glyphname = X;
layers = (
{
hints = (
{
horizontal = 1;
origin = (0,8);
target = down;
type = TopGhost;
},
{
horizontal = 1;
origin = (0,0);
target = up;
type = BottomGhost;
}
);
layerId = "FB39A38C-31F6-4F37-9C40-5E842EB56E93";
shapes = (
{
closed = 1;
nodes = (
(40,0.001,l,{name = ab01;}),
(528,0.001,l),
(775,435.302,l),
(783,435.302,l),
(1032,0.001,l,{name = ab02;}),
(1544,0.001,l),
(1099,721.501,l),
(1099,729.506,l),
(1546,1444,l,{name = av01;}),
(1036,1444,l),
(808,983.681,l),
(800,983.681,l),
(573,1444,l,{name = av02;}),
(39,1444,l),
(465,731.507,l),
(465,723.501,l)
);
}
);
width = 1578;
},
{
hints = (
{
horizontal = 1;
origin = (0,8);
target = down;
type = TopGhost;
},
{
horizontal = 1;
origin = (0,0);
target = up;
type = BottomGhost;
}
);
layerId = "BB5EAC9A-3BFE-4B64-B8A6-57F3EF362270";
shapes = (
{
closed = 1;
nodes = (
(36.25,-0.001,l,{name = n00;}),
(326.25,-0.001,l),
(684.25,545.377,l),
(690.75,545.377,l),
(1048.75,-0.001,l,{name = ab01;}),
(1352.25,-0.001,l),
(873.25,720.498,l),
(873.25,726.503,l),
(1354.75,1443.999,l,{name = n08;}),
(1053.75,1443.999,l),
(705.25,885.112,l),
(698.75,885.112,l),
(351.25,1443.999,l,{name = av01;}),
(36.75,1443.999,l),
(506.25,728.504,l),
(506.25,722.5,l)
);
}
);
width = 1386;
},
{
hints = (
{
horizontal = 1;
origin = (0,0);
target = up;
type = BottomGhost;
},
{
horizontal = 1;
origin = (0,8);
target = down;
type = TopGhost;
}
);
layerId = "6CA6CED3-33C1-4F88-A0AA-B66472516184";
shapes = (
{
closed = 1;
nodes = (
(32.5,-0.001,l,{name = ab01;}),
(124.5,-0.001,l),
(593.5,655.453,l),
(598.5,655.453,l,{name = iv01;}),
(1065.5,-0.001,l,{name = ab02;}),
(1160.5,-0.001,l),
(647.5,719.497,l),
(647.5,723.5,l),
(1163.5,1443.999,l,{name = av01;}),
(1071.5,1443.999,l),
(602.5,786.544,l),
(597.5,786.544,l,{name = iv02;}),
(129.5,1443.999,l,{name = av02;}),
(34.5,1443.999,l),
(547.5,725.501,l),
(547.5,721.499,l)
);
}
);
width = 1193;
}
);
leftKerningGroup = X2;
rightKerningGroup = X;
unicode = 88;
},
{
glyphname = Y;
layers = (
{
hints = (
{
horizontal = 1;
origin = (0,3);
target = down;
type = TopGhost;
},
{
horizontal = 1;
origin = (0,0);
target = up;
type = BottomGhost;
}
);
layerId = "FB39A38C-31F6-4F37-9C40-5E842EB56E93";
shapes = (
{
closed = 1;
nodes = (
(523,-0.001,l,{name = ab01;}),
(947,-0.001,l),
(947,417.999,l),
(1440,1443.999,l,{name = av01;}),
(991,1443.999,l),
(746,890.999,l),
(726,890.999,l),
(479,1443.999,l,{name = av02;}),
(30,1443.999,l),
(523,417.999,l)
);
}
);
width = 1465;
},
{
hints = (
{
origin = (0,0);
target = (0,1);
type = Stem;
},
{
horizontal = 1;
origin = (0,3);
target = down;
type = TopGhost;
},
{
horizontal = 1;
origin = (0,0);
target = up;
type = BottomGhost;
}
);
layerId = "BB5EAC9A-3BFE-4B64-B8A6-57F3EF362270";
shapes = (
{
closed = 1;
nodes = (
(541.5,-0.001,l,{name = n00;}),
(791.5,-0.001,l,{name = n01;}),
(791.5,493.999,l),
(1301.5,1443.999,l,{name = n03;}),
(1031,1443.999,l),
(675,780.999,l),
(660.5,780.999,l),
(303,1443.999,l,{name = av01;}),
(32.5,1443.999,l,{name = iv02;}),
(541.5,493.999,l)
);
}
);
width = 1332;
},
{
hints = (
{
origin = (0,0);
target = (0,1);
type = Stem;
},
{
horizontal = 1;
origin = (0,3);
target = down;
type = TopGhost;
},
{
horizontal = 1;
origin = (0,0);
target = up;
type = BottomGhost;
}
);
layerId = "6CA6CED3-33C1-4F88-A0AA-B66472516184";
shapes = (
{
closed = 1;
nodes = (
(560,-0.001,l,{name = ab01;}),
(638,-0.001,l,{name = ab00;}),
(638,569.999,l),
(1163,1443.999,l,{name = av01;}),
(1071,1443.999,l),
(604,670.999,l),
(595,670.999,l),
(127,1443.999,l,{name = av02;}),
(35,1443.999,l),
(560,569.999,l)
);
}
);
width = 1198;
}
);
leftKerningGroup = Y2;
rightKerningGroup = Y;
unicode = 89;
},
{
glyphname = Z;
layers = (
{
hints = (
{
horizontal = 1;
origin = (0,7);
target = down;
type = TopGhost;
},
{
horizontal = 1;
origin = (0,0);
target = up;
type = BottomGhost;
}
);
layerId = "FB39A38C-31F6-4F37-9C40-5E842EB56E93";
shapes = (
{
closed = 1;
nodes = (
(35.556,0,l,{name = ab01;}),
(1282.222,0,l,{name = n09;}),
(1282.222,363.673,l,{name = n08;}),
(613.111,363.673,l),
(613.111,388.578,l),
(1296.222,962,l),
(1296.222,1444,l,{name = .av01;}),
(47.778,1444,l,{name = n04;}),
(47.778,1051.882,l,{name = n03;}),
(785.397,1051.882,l),
(785.397,1024,l),
(35.556,408,l)
);
}
);
width = 1353;
},
{
hints = (
{
horizontal = 1;
origin = (0,0);
target = (0,3);
type = Stem;
},
{
horizontal = 1;
origin = (0,9);
target = (0,6);
type = Stem;
}
);
layerId = "BB5EAC9A-3BFE-4B64-B8A6-57F3EF362270";
shapes = (
{
closed = 1;
nodes = (
(52.778,0,l,{name = .ab01;}),
(1174.111,0,l,{name = n11;}),
(1174.111,218.366,l,{name = n10;}),
(380.134,218.366,l),
(380.134,238.214,l),
(1188.111,1146,l),
(1188.111,1444,l,{name = .av01;}),
(65.889,1444,l,{name = n05;}),
(65.889,1211.411,l,{name = n04;}),
(893.744,1211.411,l),
(893.744,1189.992,l),
(52.778,261.5,l)
);
}
);
width = 1245;
},
{
hints = (
{
horizontal = 1;
origin = (0,0);
target = (0,3);
type = Stem;
},
{
horizontal = 1;
origin = (0,9);
target = (0,6);
type = Stem;
}
);
layerId = "6CA6CED3-33C1-4F88-A0AA-B66472516184";
shapes = (
{
closed = 1;
nodes = (
(70,0,l,{name = .ab01;}),
(1066,0,l),
(1066,73.06,l,{name = .sv01;}),
(147.158,73.06,l),
(147.158,87.851,l),
(1080,1330,l,{name = at01;}),
(1080,1444,l,{name = .av01;}),
(84,1444,l,{name = .dv02;}),
(84,1370.94,l,{name = .dv01;}),
(1002.091,1370.94,l),
(1002.091,1355.984,l),
(70,115,l)
);
}
);
width = 1136;
}
);
leftKerningGroup = Z2;
rightKerningGroup = Z;
unicode = 90;
},
{
glyphname = a;
layers = (
{
hints = (
{
horizontal = 1;
origin = (0,6);
target = down;
type = TopGhost;
},
{
horizontal = 1;
origin = (0,24);
target = up;
type = BottomGhost;
},
{
horizontal = 1;
origin = (0,1);
target = up;
type = BottomGhost;
}
);
layerId = "FB39A38C-31F6-4F37-9C40-5E842EB56E93";
shapes = (
{
closed = 1;
nodes = (
(705.527,137.232,l),
(705.527,-0.578,l,{name = n01;}),
(1116.327,-0.578,l),
(1116.327,754,ls),
(1116.327,994.466,o),
(916.878,1126.333,o),
(610.,1126.333,cs,{name = av02;}),
(302.691,1126.333,o),
(105.391,982.205,o),
(93.712,753.578,c),
(485.49,753.578,l),
(491.807,822.485,o),
(549.828,837.511,o),
(602.826,837.511,cs),
(655.801,837.511,o),
(705.591,805.978,o),
(705.591,741.511,cs),
(705.591,669.519,l),
(482.576,654.19,ls),
(214.566,635.768,o),
(57.016,521.56,o),
(57.016,316.263,cs),
(57.016,112.038,o),
(193.16,-24.,o),
(390.504,-24.159,cs,{name = av01;}),
(521.867,-24.265,o),
(644.049,40.609,o),
(689.,137.232,c)
);
},
{
closed = 1;
nodes = (
(456.,401.316,o),
(509.104,429.803,o),
(592.831,439.265,cs),
(705.591,452.008,l),
(705.591,404,ls),
(705.591,315.591,o),
(674.965,239.052,o),
(582.717,239.262,cs),
(505.629,239.437,o),
(456.,271.358,o),
(456.,335.238,cs)
);
}
);
width = 1233;
},
{
hints = (
{
origin = (0,3);
target = (1,6);
type = Stem;
},
{
origin = (1,0);
target = (0,13);
type = Stem;
},
{
horizontal = 1;
origin = (0,6);
target = (1,3);
type = Stem;
},
{
horizontal = 1;
origin = (0,23);
target = (0,16);
type = Stem;
},
{
horizontal = 1;
origin = (0,11);
target = up;
type = BottomGhost;
}
);
layerId = "BB5EAC9A-3BFE-4B64-B8A6-57F3EF362270";
shapes = (
{
closed = 1;
nodes = (
(495.319,661.45,ls),
(266.119,641.05,o),
(87.769,540,o),
(87.769,320.9,cs),
(87.769,100.4,o),
(241.669,-23.474,o),
(435.069,-23.5,cs,{name = dv01;}),
(618.119,-23.524,o),
(712.919,65.35,o),
(766.569,192.35,c),
(778.519,192.35,l),
(778.519,-0.3,l,{name = ab01;}),
(1018.919,-0.3,l),
(1018.919,740,ls),
(1018.919,1039.95,o),
(814.369,1129,o),
(565.169,1129,cs,{name = dv04;}),
(330.219,1129,o),
(130.969,1008.05,o),
(118.769,765.3,c),
(360.019,765.3,l),
(370.719,891.554,o),
(500.319,910.75,o),
(576.019,910.75,cs,{name = dv03;}),
(662.719,910.75,o),
(778.819,886.12,o),
(778.819,739.811,cs),
(778.819,686.7,l)
);
},
{
closed = 1;
nodes = (
(778.819,430.65,ls),
(778.82,291.4,o),
(657.319,172.721,o),
(522.369,171.5,cs,{name = dv02;}),
(408.669,170.471,o),
(324.719,218.45,o),
(324.719,324.25,cs),
(324.719,422.6,o),
(422.969,466.75,o),
(540.419,478.55,cs),
(778.819,502.45,l)
);
}
);
width = 1141;
},
{
hints = (
{
origin = (0,21);
target = (1,10);
type = Stem;
},
{
origin = (0,16);
target = (0,3);
type = Stem;
},
{
horizontal = 1;
origin = (0,24);
target = (1,7);
type = Stem;
},
{
horizontal = 1;
origin = (0,13);
target = (0,6);
type = Stem;
},
{
horizontal = 1;
origin = (0,1);
target = up;
type = BottomGhost;
}
);
layerId = "6CA6CED3-33C1-4F88-A0AA-B66472516184";
shapes = (
{
closed = 1;
nodes = (
(862.5,207.489,l,{name = iv00;}),
(862.5,0,l,{name = ab01;}),
(936.5,0,l),
(936.5,806.001,ls),
(936.5,1045.391,o),
(746.513,1129.001,o),
(560.614,1129.001,cs,{name = at01;}),
(392.03,1129.001,o),
(207.397,1060.242,o),
(175.565,837.001,c),
(247.565,837.001,l),
(279.818,1028.366,o),
(461.47,1062.001,o),
(559.238,1062.001,cs,{name = sv01;}),
(679.624,1062.001,o),
(862.074,1011.004,o),
(862.074,806.001,cs),
(862.074,703.869,l,{name = dv02;}),
(518.015,668.708,ls),
(327.448,649.234,o),
(128.5,558.437,o),
(128.5,325.572,cs),
(128.5,88.716,o),
(300.156,-22.876,o),
(489.624,-22.876,cs,{name = dv03;}),
(634.101,-22.876,o),
(784.425,61.635,o),
(858.165,207.489,c,{name = iv01;})
);
},
{
closed = 1;
nodes = (
(205.395,500.97,o),
(366.955,590.657,o),
(518.,606.585,cs),
(862.074,642.869,l,{name = dv01;}),
(862.074,410.232,ls),
(862.074,178.549,o),
(669.708,46.415,o),
(492.,43.723,cs,{name = dv04;}),
(347.934,41.54,o),
(201.319,136.948,o),
(203.405,323.202,cs)
);
}
);
width = 1105;
}
);
leftKerningGroup = a2;
rightKerningGroup = a;
unicode = 97;
},
{
color = (153, 255, 154, 255);
glyphname = ae;
rightMetricsKey = e;
layers = (
{
hints = (
{
horizontal = 1;
origin = (0,16);
target = (1,0);
type = Stem;
},
{
horizontal = 1;
origin = (0,21);
target = down;
type = TopGhost;
},
{
horizontal = 1;
origin = (0,1);
target = up;
type = BottomGhost;
}
);
layerId = "FB39A38C-31F6-4F37-9C40-5E842EB56E93";
shapes = (
{
closed = 1;
nodes = (
(695.538,137.25,l),
(695.538,-0.6,l,{name = n01;}),
(1106.338,-0.6,l),
(1106.338,64.926,l,{name = iv01;}),
(1202.425,3.967,o),
(1321.412,-28.07,o),
(1454.938,-23.75,cs,{name = av01.1;}),
(1778.988,-13.3,o),
(1951.538,151.55,o),
(1971.388,372.9,c),
(1578.538,372.9,l),
(1578.538,303.85,o),
(1544.938,256.25,o),
(1431.388,256.25,cs),
(1295.188,256.25,o),
(1246.688,354.45,o),
(1248.238,461.45,c,{name = sv01;}),
(1980.988,461.45,l),
(1980.388,503.75,ls),
(1974.838,899.6,o),
(1779.388,1127.75,o),
(1418.488,1127.75,cs,{name = av03;}),
(1244.321,1127.75,o),
(1114.395,1069.733,o),
(1023.485,981.472,c),
(937.51,1076.235,o),
(789.162,1126.35,o),
(599.988,1126.35,cs,{name = av02;}),
(292.688,1126.35,o),
(95.388,982.2,o),
(83.688,753.6,c),
(475.488,753.6,l),
(481.788,822.5,o),
(539.838,837.5,o),
(592.838,837.5,cs),
(645.788,837.5,o),
(695.588,806,o),
(695.588,741.5,cs),
(695.588,669.5,l),
(472.588,654.2,ls),
(204.588,635.75,o),
(47.038,521.55,o),
(47.038,316.25,cs),
(47.038,112.05,o),
(183.138,-24,o),
(380.488,-24.15,cs,{name = av01;}),
(511.888,-24.25,o),
(634.038,40.6,o),
(678.988,137.25,c)
);
},
{
closed = 1;
nodes = (
(1252.788,687.25,l,{name = av02.1;}),
(1267.838,784.15,o),
(1328.788,850.7,o),
(1430.788,850.7,cs),
(1529.688,850.7,o),
(1587.388,786.9,o),
(1606.338,687.25,c)
);
},
{
closed = 1;
nodes = (
(445.988,401.3,o),
(499.088,429.8,o),
(582.838,439.25,cs),
(695.588,452,l,{name = sv02;}),
(695.588,404,ls),
(695.588,315.6,o),
(664.988,239.05,o),
(572.738,239.25,cs),
(495.638,239.45,o),
(445.988,271.35,o),
(445.988,335.25,cs)
);
}
);
width = 2041;
},
{
hints = (
{
origin = (0,3);
target = (2,6);
type = Stem;
},
{
horizontal = 1;
origin = (0,16);
target = (2,3);
type = Stem;
},
{
horizontal = 1;
origin = (1,3);
target = (0,31);
type = Stem;
},
{
horizontal = 1;
origin = (0,26);
target = (1,0);
type = Stem;
},
{
horizontal = 1;
origin = (0,16);
target = (0,23);
type = Stem;
},
{
horizontal = 1;
origin = (0,11);
target = up;
type = BottomGhost;
}
);
layerId = "BB5EAC9A-3BFE-4B64-B8A6-57F3EF362270";
shapes = (
{
closed = 1;
nodes = (
(495.319,661.45,ls),
(266.119,641.05,o),
(87.769,540,o),
(87.769,320.9,cs,{name = dh01;}),
(87.769,100.4,o),
(241.669,-23.474,o),
(435.069,-23.5,cs,{name = sv01;}),
(618.119,-23.524,o),
(712.919,65.35,o),
(766.569,192.35,c,{name = sv03;}),
(778.519,192.35,l),
(778.519,-0.3,l,{name = ab01;}),
(1018.919,-0.3,l),
(1018.919,90.055,l,{name = iv01;}),
(1110.293,16.398,o),
(1228.959,-23.644,o),
(1365.969,-21.15,cs,{name = dv01;}),
(1645.721,-16.057,o),
(1816.819,130.7,o),
(1848.869,340.55,c),
(1610.619,340.55,l),
(1590.519,255.55,o),
(1509.969,200.03,o),
(1362.269,198.7,cs,{name = sv02;}),
(1182.369,197.08,o),
(1068.119,307.6,o),
(1062.419,486.95,c,{name = dv05;}),
(1863.619,486.95,l),
(1863.369,537.55,ls),
(1861.619,904.35,o),
(1666.869,1127.65,o),
(1343.019,1127.65,cs,{name = dv04;}),
(1176.563,1127.65,o),
(1048.139,1067.021,o),
(960.192,968.561,c,{name = iv02;}),
(882.002,1087.487,o),
(733.81,1127.65,o),
(565.169,1127.65,cs,{name = sv04;}),
(330.219,1127.65,o),
(130.969,1008.05,o),
(118.769,765.3,c),
(360.019,765.3,l),
(370.719,891.55,o),
(500.319,910.75,o),
(576.019,910.75,cs,{name = sv05;}),
(662.719,910.75,o),
(778.819,886.1,o),
(778.819,739.8,cs),
(778.819,686.7,l,{name = sv06;})
);
},
{
closed = 1;
nodes = (
(1068.669,682,l,{name = dv06;}),
(1093.619,817.55,o),
(1201.319,908.35,o),
(1340.669,908.35,cs,{name = dv03;}),
(1483.919,908.35,o),
(1581.119,822.8,o),
(1605.769,682,c)
);
},
{
closed = 1;
nodes = (
(778.819,430.65,ls),
(778.819,291.4,o),
(657.319,172.721,o),
(522.369,171.5,cs,{name = dv02;}),
(408.669,170.471,o),
(323.631,218.45,o),
(324.719,324.25,cs,{name = dh02;}),
(325.731,422.6,o),
(422.969,466.75,o),
(540.419,478.55,cs,{name = sv07;}),
(778.819,502.45,l)
);
}
);
width = 1954;
},
{
hints = (
{
origin = (0,42);
target = (2,10);
type = Stem;
},
{
origin = (2,4);
target = (0,3);
type = Stem;
},
{
origin = (1,6);
target = (0,18);
type = Stem;
},
{
origin = (2,3);
target = (0,16);
type = Stem;
},
{
horizontal = 1;
origin = (0,45);
target = (0,13);
type = Stem;
},
{
horizontal = 1;
origin = (0,6);
target = (0,13);
type = Stem;
},
{
horizontal = 1;
origin = (0,16);
target = (1,0);
type = Stem;
},
{
horizontal = 1;
origin = (1,3);
target = (0,21);
type = Stem;
},
{
horizontal = 1;
origin = (0,1);
target = up;
type = BottomGhost;
}
);
layerId = "6CA6CED3-33C1-4F88-A0AA-B66472516184";
shapes = (
{
closed = 1;
nodes = (
(861.5,207.5,l,{name = iv00;}),
(861.5,0,l,{name = ab01;}),
(936.5,0,l),
(936.5,298.232,l,{name = dh04;}),
(1009.519,100.075,o),
(1170.112,-16.95,o),
(1385.8,-16.95,cs,{name = dv00;}),
(1621.65,-16.95,o),
(1791.3,111.75,o),
(1835.4,310.1,c),
(1770.1,310.1,l),
(1729,149.25,o),
(1592.3,47.75,o),
(1392.75,47.75,cs,{name = dv04.1;}),
(1139.15,47.75,o),
(970.5,235.4,o),
(966.15,553.5,c,{name = dv07;}),
(1855.35,553.5,l),
(1855.35,591.15,ls,{name = dh06;}),
(1855.35,917.65,o),
(1663.3,1129,o),
(1376.25,1129,cs,{name = dv06;}),
(1168.323,1129,o),
(1008.799,1018.672,o),
(936.114,824.445,c,{name = sh01;}),
(926.575,1049.711,o),
(741.643,1129,o),
(560.6,1129,cs,{name = at01;}),
(392.05,1129,o),
(207.4,1060.25,o),
(175.55,837,c),
(247.55,837,l),
(279.8,1028.35,o),
(461.45,1062,o),
(559.25,1062,cs,{name = sv01;}),
(679.6,1062,o),
(862.05,1011,o),
(862.05,806,cs,{name = sh02;}),
(862.05,703.85,l,{name = dv02;}),
(518,668.7,ls),
(327.45,649.25,o),
(128.5,558.45,o),
(128.5,325.55,cs,{name = dh01;}),
(128.5,88.7,o),
(300.15,-22.9,o),
(489.6,-22.9,cs,{name = dv03;}),
(634.1,-22.9,o),
(783.4,61.65,o),
(857.15,207.5,c,{name = iv00.1;})
);
},
{
closed = 1;
nodes = (
(966.5,618.55,l,{name = dv08;}),
(980.05,883.2,o),
(1156.05,1064.35,o),
(1375.25,1064.35,cs,{name = dv05;}),
(1605.25,1064.35,o),
(1769.65,895.9,o),
(1782.9,618.55,c,{name = dh05;})
);
},
{
closed = 1;
nodes = (
(205.402,500.95,o),
(366.946,590.685,o),
(518,606.6,cs,{name = sv02;}),
(862.05,642.85,l,{name = dv01;}),
(862.05,410.25,ls,{name = dh03;}),
(862.05,178.55,o),
(669.7,46.4,o),
(492,43.7,cs,{name = dv04;}),
(347.95,41.55,o),
(201.302,136.95,o),
(203.4,323.2,cs,{name = dh02;})
);
}
);
width = 1973;
}
);
leftKerningGroup = a2;
rightKerningGroup = e;
unicode = 230;
},
{
glyphname = b;
layers = (
{
hints = (
{
horizontal = 1;
origin = (0,8);
target = up;
type = BottomGhost;
},
{
horizontal = 1;
origin = (0,3);
target = up;
type = BottomGhost;
},
{
horizontal = 1;
origin = (0,0);
target = down;
type = TopGhost;
}
);
layerId = "FB39A38C-31F6-4F37-9C40-5E842EB56E93";
shapes = (
{
closed = 1;
nodes = (
(535.95,1507,l,{name = .av02;}),
(126.35,1507,l),
(126.35,0.2,l,{name = .ab01;}),
(535.95,0.2,l),
(535.95,181.55,l),
(553.75,181.55,l),
(582.7,6.95,o),
(685.55,-25,o),
(852.7,-25,cs,{name = .av01;}),
(1144.25,-25,o),
(1232.7,224.3,o),
(1232.7,504.2,cs),
(1232.7,636.9,ls),
(1232.7,893.65,o),
(1144.55,1127.1,o),
(862.4,1127.1,cs),
(689.35,1127.1,o),
(588.5,1080.55,o),
(553.75,923.6,c),
(535.95,923.6,l)
);
},
{
closed = 1;
nodes = (
(581.85,249.501,o),
(535.95,337.751,o),
(535.95,445.601,cs),
(535.95,658.751,ls),
(535.95,771.504,o),
(586.15,843.051,o),
(671.75,843.051,cs),
(768.4,843.051,o),
(804.6,758.351,o),
(804.6,632.701,cs),
(804.6,475.401,ls),
(804.6,343.751,o),
(769.1,249.501,o),
(673.4,249.501,cs)
);
}
);
width = 1330;
},
{
hints = (
{
origin = (0,2);
target = (0,3);
type = Stem;
},
{
horizontal = 1;
origin = (0,8);
target = (1,13);
type = Stem;
},
{
horizontal = 1;
origin = (1,6);
target = (0,15);
type = Stem;
},
{
horizontal = 1;
origin = (0,3);
target = up;
type = BottomGhost;
},
{
horizontal = 1;
origin = (0,0);
target = down;
type = TopGhost;
}
);
layerId = "BB5EAC9A-3BFE-4B64-B8A6-57F3EF362270";
shapes = (
{
closed = 1;
nodes = (
(374.925,1518.25,l,{name = .av01;}),
(131.625,1518.25,l,{name = .dh01;}),
(131.625,0.35,l,{name = .ab01;}),
(374.925,0.35,l,{name = .sh01;}),
(374.925,226.525,l),
(387.825,226.525,l,{name = .sh02;}),
(422.225,42.55,o),
(548.4,-23.25,o),
(715.725,-23.25,cs,{name = .dv01;}),
(1002.875,-23.25,o),
(1111.3,167.525,o),
(1111.3,443.475,cs),
(1111.3,657.375,ls),
(1111.3,937.075,o),
(996.45,1128.725,o),
(720.575,1128.725,cs,{name = .dv04;}),
(547.375,1128.725,o),
(427.425,1045.225,o),
(387.325,878.05,c),
(374.925,878.05,l)
);
},
{
closed = 1;
nodes = (
(470.4,145.501,o),
(374.925,276.421,o),
(374.925,432.925,cs,{name = .sh03;}),
(374.925,674.475,ls),
(374.925,823.984,o),
(483.625,955.2,o),
(625.25,955.2,cs,{name = .dv03;}),
(789.4,955.2,o),
(858.75,841.325,o),
(858.75,653.45,cs),
(858.75,431.95,ls),
(858.75,257.7,o),
(793.225,145.501,o),
(626.075,145.501,cs,{name = .dv02;})
);
}
);
width = 1252;
},
{
hints = (
{
origin = (0,2);
target = (0,3);
type = Stem;
},
{
origin = (1,10);
target = (0,11);
type = Stem;
},
{
horizontal = 1;
origin = (0,8);
target = (1,13);
type = Stem;
},
{
horizontal = 1;
origin = (1,6);
target = (0,15);
type = Stem;
},
{
horizontal = 1;
origin = (0,3);
target = up;
type = BottomGhost;
},
{
horizontal = 1;
origin = (0,0);
target = down;
type = TopGhost;
}
);
layerId = "6CA6CED3-33C1-4F88-A0AA-B66472516184";
shapes = (
{
closed = 1;
nodes = (
(210.9,1529.5,l,{name = .av01;}),
(136.9,1529.5,l,{name = .sh07;}),
(136.9,0.5,l,{name = .sh01;}),
(210.9,0.5,l,{name = .sh02;}),
(210.9,271.5,l),
(218.9,271.5,l,{name = .sh05;}),
(258.75,78.15,o),
(408.25,-21.5,o),
(575.75,-21.5,cs,{name = .dv01;}),
(858.5,-21.5,o),
(986.9,110.75,o),
(986.9,382.75,cs,{name = .sh04;}),
(986.9,677.85,ls,{name = .sh08;}),
(986.9,980.5,o),
(845.35,1130.35,o),
(575.75,1130.35,cs,{name = .dv04;}),
(402.4,1130.35,o),
(263.35,1009.9,o),
(217.9,832.5,c,{name = .sh03;}),
(210.9,832.5,l)
);
},
{
closed = 1;
nodes = (
(355.95,41.5,o),
(210.9,215.087,o),
(210.9,420.25,cs,{name = .sh09;}),
(210.9,690.2,ls,{name = .sh06;}),
(210.9,877.022,o),
(378.1,1067.35,o),
(575.75,1067.35,cs,{name = .dv03;}),
(807.4,1067.35,o),
(909.9,924.3,o),
(909.9,674.2,cs,{name = .ah02;}),
(909.9,388.5,ls,{name = .ah01;}),
(909.9,171.65,o),
(814.35,41.5,o),
(575.75,41.5,cs,{name = .dv02;})
);
}
);
width = 1173;
}
);
leftKerningGroup = b2;
rightKerningGroup = b;
unicode = 98;
},
{
glyphname = c;
layers = (
{
hints = (
{
horizontal = 1;
origin = (0,15);
target = up;
type = BottomGhost;
},
{
horizontal = 1;
origin = (0,9);
target = down;
type = TopGhost;
}
);
layerId = "FB39A38C-31F6-4F37-9C40-5E842EB56E93";
shapes = (
{
closed = 1;
nodes = (
(483.132,677.753,o),
(507.365,837.,o),
(648.369,837.,cs),
(737.914,837.,o),
(785.078,776.876,o),
(796.967,689.031,c),
(1185.623,689.031,l),
(1163.456,982.224,o),
(951.889,1126.892,o),
(648.619,1126.892,cs),
(255.314,1126.892,o),
(56.228,921.507,o),
(56.228,553.411,cs),
(56.228,184.401,o),
(252.088,-23.387,o),
(648.264,-23.387,cs,{name = av01;}),
(940.099,-23.387,o),
(1164.151,121.258,o),
(1184.422,406.755,c),
(795.807,406.755,l),
(785.669,318.972,o),
(735.612,266.,o),
(647.9,266.,cs),
(507.518,266.,o),
(483.132,425.27,o),
(483.132,551.44,cs)
);
}
);
width = 1242;
},
{
hints = (
{
origin = (0,12);
target = (0,25);
type = Stem;
},
{
horizontal = 1;
origin = (0,15);
target = (0,22);
type = Stem;
},
{
horizontal = 1;
origin = (0,2);
target = (0,9);
type = Stem;
}
);
layerId = "BB5EAC9A-3BFE-4B64-B8A6-57F3EF362270";
shapes = (
{
closed = 1;
nodes = (
(336.84,725.845,o),
(416.487,909.449,o),
(627.453,909.449,cs,{name = n03;}),
(758.155,909.449,o),
(850.274,847.32,o),
(880.032,752.6,c),
(1116.754,752.6,l),
(1087.093,994.124,o),
(887.129,1129.021,o),
(631.307,1129.021,cs,{name = n10;}),
(275.097,1129.021,o),
(89.792,886.935,o),
(89.792,554.542,cs,{name = n13;}),
(89.792,223.529,o),
(272.189,-21.012,o),
(629.674,-21.012,cs,{name = n16;}),
(881.618,-21.012,o),
(1087.844,116.835,o),
(1114.676,355.517,c),
(878.154,355.517,l),
(855.367,259.257,o),
(757.791,198.809,o),
(625.683,198.809,cs,{name = n23;}),
(416.31,198.809,o),
(336.84,381.998,o),
(336.84,553.85,cs,{name = n00;})
);
}
);
width = 1202;
},
{
hints = (
{
origin = (0,12);
target = (0,25);
type = Stem;
},
{
horizontal = 1;
origin = (0,15);
target = (0,22);
type = Stem;
},
{
horizontal = 1;
origin = (0,2);
target = (0,9);
type = Stem;
}
);
layerId = "6CA6CED3-33C1-4F88-A0AA-B66472516184";
shapes = (
{
closed = 1;
nodes = (
(200.438,810.595,o),
(335.145,1061.428,o),
(619.602,1061.428,cs),
(793.775,1061.428,o),
(931.552,963.707,o),
(978.088,811.128,c),
(1051.906,811.128,l),
(1015.24,1003.568,o),
(826.552,1129.028,o),
(615.862,1129.028,cs),
(295.211,1129.028,o),
(123.207,852.8,o),
(123.207,554.613,cs),
(123.207,259.962,o),
(292.607,-18.765,o),
(613.029,-18.765,cs,{name = av01;}),
(826.965,-18.765,o),
(1016.042,112.439,o),
(1049.006,306.615,c),
(975.,306.615,l),
(940.338,148.914,o),
(795.067,47.854,o),
(616.435,47.854,cs),
(334.62,47.854,o),
(200.438,297.759,o),
(200.438,554.088,cs)
);
}
);
width = 1161;
}
);
leftKerningGroup = c2;
rightKerningGroup = c;
unicode = 99;
},
{
color = (255, 153, 153, 255);
glyphname = ccedilla;
layers = (
{
hints = (
{
horizontal = 1;
origin = (0,9);
target = down;
type = TopGhost;
}
);
layerId = "FB39A38C-31F6-4F37-9C40-5E842EB56E93";
shapes = (
{
closed = 1;
nodes = (
(483.149,677.773,o),
(507.373,837.018,o),
(648.351,837.018,cs),
(737.902,837.018,o),
(785.06,776.854,o),
(796.973,689.041,c),
(1185.605,689.041,l),
(1163.465,982.215,o),
(951.9,1126.915,o),
(648.599,1126.915,cs,{name = av02;}),
(255.302,1126.915,o),
(56.245,921.505,o),
(56.245,553.425,cs),
(56.245,255.297,o),
(184.089,62.43,o),
(442.097,-0.684,c,{name = n10;}),
(442.097,-187.998,l),
(485.284,-188.247,o),
(587.741,-186.261,o),
(587.741,-274.471,cs,{name = n06;}),
(587.741,-368.142,o),
(424.127,-309.666,o),
(370.169,-281.272,c),
(370.169,-482.115,l),
(540.434,-580.949,o),
(871.83,-538.109,o),
(871.83,-282.91,cs,{name = n15;}),
(871.83,-152.009,o),
(770.168,-102.568,o),
(649.741,-83.457,c,{name = sh01;}),
(649.306,-23.384,l,{name = av01;}),
(660.542,-23.371,o),
(671.677,-23.142,o),
(682.703,-22.7,cs),
(957.566,-11.669,o),
(1164.965,132.601,o),
(1184.413,406.738,c),
(795.782,406.738,l),
(785.655,318.975,o),
(735.618,266.009,o),
(647.904,266.009,cs),
(507.522,266.009,o),
(483.149,425.254,o),
(483.149,551.439,cs)
);
}
);
width = 1242;
},
{
hints = (
{
origin = (0,12);
target = (0,43);
type = Stem;
},
{
origin = (0,40);
target = (0,26);
type = Stem;
},
{
horizontal = 1;
origin = (0,33);
target = (0,40);
type = Stem;
},
{
horizontal = 1;
origin = (0,2);
target = (0,9);
type = Stem;
}
);
layerId = "BB5EAC9A-3BFE-4B64-B8A6-57F3EF362270";
shapes = (
{
closed = 1;
nodes = (
(336.824,725.839,o),
(416.49,909.462,o),
(627.44,909.462,cs,{name = n03;}),
(758.145,909.462,o),
(850.294,847.339,o),
(880.03,752.588,c),
(1116.764,752.588,l),
(1087.076,994.141,o),
(887.114,1129.039,o),
(631.295,1129.039,cs,{name = n10;}),
(275.086,1129.039,o),
(89.776,886.955,o),
(89.776,554.554,cs,{name = n13;}),
(89.776,279.218,o),
(216.005,63.717,o),
(464.203,-0.983,c,{name = n07;}),
(464.203,-168.274,l),
(522.327,-169.238,o),
(626.331,-174.25,o),
(626.331,-251.218,cs,{name = n03.1;}),
(626.331,-353.006,o),
(460.444,-307.606,o),
(402.273,-281.243,c,{name = ih01;}),
(402.273,-410.165,l),
(538.183,-481.59,o),
(799.737,-463.324,o),
(799.737,-258.399,cs,{name = n12;}),
(799.737,-142.153,o),
(699.636,-103.5,o),
(597.993,-89.283,c),
(597.758,-20.321,l,{name = sv01;}),
(608.232,-20.762,o),
(618.863,-20.99,o),
(629.657,-20.99,cs,{name = n16;}),
(881.62,-20.99,o),
(1087.847,116.847,o),
(1114.691,355.509,c),
(878.15,355.509,l),
(855.354,259.264,o),
(757.807,198.827,o),
(625.705,198.827,cs,{name = n23;}),
(416.298,198.827,o),
(336.824,382.016,o),
(336.824,553.831,cs,{name = n00;})
);
}
);
width = 1202;
},
{
hints = (
{
origin = (0,12);
target = (0,43);
type = Stem;
},
{
origin = (0,16);
target = (0,26);
type = Stem;
},
{
origin = (0,19);
target = (0,26);
type = Stem;
},
{
horizontal = 1;
origin = (0,33);
target = (0,40);
type = Stem;
},
{
horizontal = 1;
origin = (0,2);
target = (0,9);
type = Stem;
}
);
layerId = "6CA6CED3-33C1-4F88-A0AA-B66472516184";
shapes = (
{
closed = 1;
nodes = (
(200.438,810.58,o),
(335.125,1061.44,o),
(619.598,1061.44,cs,{name = dv01;}),
(793.789,1061.44,o),
(931.561,963.686,o),
(978.077,811.141,c),
(1051.896,811.141,l),
(1015.244,1003.564,o),
(826.561,1129.041,o),
(615.858,1129.041,cs,{name = dv02;}),
(295.2,1129.041,o),
(123.207,852.795,o),
(123.207,554.624,cs,{name = dh03;}),
(123.207,297.139,o),
(252.575,51.832,o),
(498.983,-5.975,c,{name = av01.1;}),
(498.983,-128.02,l,{name = dh05;}),
(562.984,-129.469,o),
(654.988,-140.081,o),
(654.988,-197.07,cs,{name = dh01;}),
(654.988,-292.954,o),
(508.427,-265.184,o),
(454.01,-244.007,c,{name = iv01;}),
(454.01,-292.019,l),
(541.666,-329.699,o),
(707.021,-335.777,o),
(707.021,-202.212,cs,{name = dh02;}),
(707.021,-114.042,o),
(621.188,-90.012,o),
(549.52,-82.018,c),
(549.52,-14.943,l,{name = sv01;}),
(569.977,-17.457,o),
(591.137,-18.765,o),
(613.007,-18.765,cs,{name = av01;}),
(826.981,-18.765,o),
(1016.038,112.415,o),
(1048.997,306.615,c),
(975.553,306.615,l),
(940.864,148.927,o),
(795.051,47.854,o),
(616.419,47.854,cs,{name = dv03;}),
(334.61,47.854,o),
(200.438,297.779,o),
(200.438,554.109,cs,{name = dh04;})
);
}
);
width = 1161;
}
);
leftKerningGroup = c2;
rightKerningGroup = c;
unicode = 231;
},
{
glyphname = d;
layers = (
{
hints = (
{
horizontal = 1;
origin = (0,12);
target = up;
type = BottomGhost;
},
{
horizontal = 1;
origin = (0,5);
target = down;
type = TopGhost;
},
{
horizontal = 1;
origin = (0,17);
target = up;
type = BottomGhost;
},
{
horizontal = 1;
origin = (0,0);
target = down;
type = TopGhost;
}
);
layerId = "FB39A38C-31F6-4F37-9C40-5E842EB56E93";
shapes = (
{
closed = 1;
nodes = (
(792.8,1507.25,l,{name = av03;}),
(792.8,923.85,l),
(775,923.85,l),
(740.25,1080.8,o),
(639.4,1127.35,o),
(466.35,1127.35,cs,{name = av02;}),
(184.2,1127.35,o),
(96.05,893.9,o),
(96.05,637.15,cs),
(96.05,504.45,ls),
(96.05,224.55,o),
(184.5,-24.75,o),
(476.05,-24.75,cs,{name = av01;}),
(643.2,-24.75,o),
(746.05,7.2,o),
(775,181.8,c),
(792.8,181.8,l),
(792.8,0.45,l,{name = ab01;}),
(1203.4,0.45,l),
(1203.4,1507.25,l)
);
},
{
closed = 1;
nodes = (
(559.65,249.75,o),
(524.15,344,o),
(524.15,475.65,cs,{name = iv00;}),
(524.15,632.95,ls,{name = iv03;}),
(524.15,758.6,o),
(560.35,843.3,o),
(657,843.3,cs),
(742.6,843.3,o),
(792.8,771.753,o),
(792.8,659,cs,{name = iv02;}),
(792.8,445.85,ls,{name = iv01;}),
(792.8,338,o),
(746.9,249.75,o),
(655.35,249.75,cs)
);
}
);
width = 1330;
},
{
hints = (
{
origin = (0,17);
target = (0,18);
type = Stem;
},
{
horizontal = 1;
origin = (0,12);
target = (1,13);
type = Stem;
},
{
horizontal = 1;
origin = (1,6);
target = (0,5);
type = Stem;
},
{
horizontal = 1;
origin = (0,17);
target = up;
type = BottomGhost;
},
{
horizontal = 1;
origin = (0,19);
target = down;
type = TopGhost;
}
);
layerId = "BB5EAC9A-3BFE-4B64-B8A6-57F3EF362270";
shapes = (
{
closed = 1;
nodes = (
(851.275,1517.7,l,{name = n00;}),
(851.275,877.5,l),
(838.875,877.5,l),
(798.775,1044.675,o),
(678.825,1128.175,o),
(505.625,1128.175,cs,{name = n05;}),
(229.75,1128.175,o),
(114.9,936.525,o),
(114.9,656.825,cs,{name = n08;}),
(114.9,442.925,ls),
(114.9,166.975,o),
(223.325,-23.8,o),
(510.475,-23.8,cs,{name = n12;}),
(677.8,-23.8,o),
(803.975,42,o),
(838.375,225.975,c),
(851.275,225.975,l),
(851.275,-0.2,l,{name = n17;}),
(1093.575,-0.2,l,{name = n18;}),
(1093.575,1517.7,l)
);
},
{
closed = 1;
nodes = (
(432.975,144.95,o),
(367.45,257.15,o),
(367.45,431.4,cs),
(367.45,652.9,ls,{name = n24;}),
(367.45,840.775,o),
(436.8,954.65,o),
(600.95,954.65,cs,{name = n27;}),
(742.55,954.65,o),
(829.575,821.875,o),
(851.275,673.925,c),
(851.275,432.375,ls),
(851.275,275.894,o),
(755.8,144.95,o),
(600.125,144.95,cs,{name = n20;})
);
}
);
width = 1251;
},
{
hints = (
{
origin = (0,8);
target = (1,3);
type = Stem;
},
{
origin = (0,17);
target = (0,18);
type = Stem;
},
{
horizontal = 1;
origin = (0,12);
target = (1,13);
type = Stem;
},
{
horizontal = 1;
origin = (1,6);
target = (0,5);
type = Stem;
},
{
horizontal = 1;
origin = (0,17);
target = up;
type = BottomGhost;
},
{
horizontal = 1;
origin = (0,19);
target = down;
type = TopGhost;
}
);
layerId = "6CA6CED3-33C1-4F88-A0AA-B66472516184";
shapes = (
{
closed = 1;
nodes = (
(909.75,1499.15,l,{name = av01;}),
(909.75,831.15,l),
(902.75,831.15,l,{name = sh02;}),
(857.3,1008.55,o),
(718.25,1129,o),
(544.9,1129,cs,{name = dv04;}),
(275.3,1129,o),
(133.75,979.15,o),
(133.75,676.5,cs,{name = sh03;}),
(133.75,381.4,ls),
(133.75,109.4,o),
(262.15,-22.85,o),
(544.9,-22.85,cs,{name = dv01;}),
(712.4,-22.85,o),
(861.9,76.8,o),
(901.75,270.15,c,{name = sh04;}),
(909.75,270.15,l),
(909.75,-0.85,l,{name = ab01;}),
(983.75,-0.85,l),
(983.75,1499.15,l,{name = sh01;})
);
},
{
closed = 1;
nodes = (
(306.3,40.15,o),
(210.75,170.3,o),
(210.75,387.15,cs),
(210.75,672.85,ls,{name = sh05;}),
(210.75,922.95,o),
(313.25,1066,o),
(544.9,1066,cs,{name = dv03;}),
(742.5,1066,o),
(909.75,875.721,o),
(909.75,688.85,cs,{name = iv02;}),
(909.75,418.9,ls,{name = iv01;}),
(909.75,213.784,o),
(764.7,40.15,o),
(544.9,40.15,cs,{name = dv02;})
);
}
);
width = 1172;
}
);
leftKerningGroup = c2;
rightKerningGroup = d;
unicode = 100;
},
{
color = (255, 153, 153, 255);
glyphname = dcroat;
layers = (
{
hints = (
{
horizontal = 1;
origin = (0,3);
target = (0,2);
type = Stem;
},
{
horizontal = 1;
origin = (0,16);
target = up;
type = BottomGhost;
},
{
horizontal = 1;
origin = (0,9);
target = down;
type = TopGhost;
},
{
horizontal = 1;
origin = (0,21);
target = up;
type = BottomGhost;
},
{
horizontal = 1;
origin = (0,0);
target = down;
type = TopGhost;
}
);
layerId = "FB39A38C-31F6-4F37-9C40-5E842EB56E93";
shapes = (
{
closed = 1;
nodes = (
(792.8,1507.25,l,{name = av03;}),
(792.8,1416.55,l),
(288.45,1416.55,l,{name = n01;}),
(288.45,1173.55,l,{name = n00;}),
(792.8,1173.55,l),
(792.8,923.85,l),
(775,923.85,l),
(740.25,1080.8,o),
(639.4,1127.35,o),
(466.35,1127.35,cs,{name = av02;}),
(184.2,1127.35,o),
(96.05,893.9,o),
(96.05,637.15,cs),
(96.05,504.45,ls),
(96.05,224.55,o),
(184.5,-24.75,o),
(476.05,-24.75,cs,{name = av01;}),
(643.2,-24.75,o),
(746.05,7.2,o),
(775,181.8,c),
(792.8,181.8,l),
(792.8,0.45,l,{name = ab01;}),
(1203.4,0.45,l),
(1203.4,1507.25,l)
);
},
{
closed = 1;
nodes = (
(559.65,249.75,o),
(524.15,344,o),
(524.15,475.65,cs,{name = iv00;}),
(524.15,632.95,ls,{name = iv03;}),
(524.15,758.6,o),
(560.35,843.3,o),
(657,843.3,cs),
(742.6,843.3,o),
(785.25,771.5,o),
(792.8,659,c,{name = iv02;}),
(792.8,445.85,l,{name = iv01;}),
(790,338,o),
(746.9,249.75,o),
(655.35,249.75,cs)
);
}
);
width = 1330;
},
{
hints = (
{
origin = (0,0);
target = (0,23);
type = Stem;
},
{
horizontal = 1;
origin = (0,16);
target = (1,13);
type = Stem;
},
{
horizontal = 1;
origin = (1,6);
target = (0,9);
type = Stem;
},
{
horizontal = 1;
origin = (0,3);
target = (0,2);
type = Stem;
},
{
horizontal = 1;
origin = (0,21);
target = up;
type = BottomGhost;
},
{
horizontal = 1;
origin = (0,23);
target = down;
type = TopGhost;
}
);
layerId = "BB5EAC9A-3BFE-4B64-B8A6-57F3EF362270";
shapes = (
{
closed = 1;
nodes = (
(851.3,1517.7,l,{name = n00;}),
(851.3,1403.8,l),
(337.7,1403.8,l,{name = n01;}),
(337.7,1243.8,l,{name = n00.1;}),
(851.3,1243.8,l,{name = sh01;}),
(851.3,877.5,l),
(838.9,877.5,l,{name = sh02;}),
(798.8,1044.65,o),
(678.85,1128.15,o),
(505.65,1128.15,cs,{name = n05;}),
(229.75,1128.15,o),
(114.9,936.5,o),
(114.9,656.8,cs,{name = n08;}),
(114.9,442.9,ls),
(114.9,166.95,o),
(223.35,-23.8,o),
(510.5,-23.8,cs,{name = n12;}),
(677.8,-23.8,o),
(804,42,o),
(838.4,226,c),
(851.3,226,l,{name = sh03;}),
(851.3,-0.2,l,{name = n17;}),
(1093.6,-0.2,l,{name = n18;}),
(1093.6,1517.7,l,{name = dh01;})
);
},
{
closed = 1;
nodes = (
(433,144.95,o),
(367.45,257.15,o),
(367.45,431.4,cs),
(367.45,652.9,ls,{name = n24;}),
(367.45,840.75,o),
(436.8,954.65,o),
(600.95,954.65,cs,{name = n27;}),
(742.55,954.65,o),
(829.6,821.85,o),
(851.3,673.9,c,{name = sh04;}),
(851.3,432.35,l),
(843.75,276.05,o),
(755.8,144.95,o),
(600.15,144.95,cs,{name = n20;})
);
}
);
width = 1251;
},
{
hints = (
{
origin = (0,14);
target = (1,10);
type = Stem;
},
{
origin = (0,6);
target = (0,5);
type = Stem;
},
{
horizontal = 1;
origin = (0,11);
target = (1,13);
type = Stem;
},
{
horizontal = 1;
origin = (1,6);
target = (0,18);
type = Stem;
},
{
horizontal = 1;
origin = (0,0);
target = (0,1);
type = Stem;
},
{
horizontal = 1;
origin = (0,3);
target = down;
type = TopGhost;
},
{
horizontal = 1;
origin = (0,5);
target = up;
type = BottomGhost;
}
);
layerId = "6CA6CED3-33C1-4F88-A0AA-B66472516184";
shapes = (
{
closed = 1;
nodes = (
(387,1254,l,{name = dv01.1;}),
(387,1331,l,{name = dv02.1;}),
(909.75,1331,l),
(909.75,1528.15,l,{name = av01;}),
(983.75,1528.15,l,{name = sh01;}),
(983.75,-0.85,l,{name = ab02;}),
(909.75,-0.85,l,{name = ab01;}),
(909.75,270.15,l),
(901.75,270.15,l,{name = sh02;}),
(861.9,76.8,o),
(712.4,-22.85,o),
(544.9,-22.85,cs,{name = dv01;}),
(262.15,-22.85,o),
(133.75,109.4,o),
(133.75,381.4,cs,{name = sh03;}),
(133.75,676.5,ls),
(133.75,979.15,o),
(275.3,1129,o),
(544.9,1129,cs,{name = dv04;}),
(718.25,1129,o),
(857.3,1008.55,o),
(902.75,831.15,c,{name = sh04;}),
(909.75,831.15,l),
(909.75,1254,l,{name = sh05;})
);
},
{
closed = 1;
nodes = (
(764.7,40.15,o),
(897.5,214.15,o),
(909.75,418.9,c,{name = iv01;}),
(909.75,688.85,l,{name = iv02;}),
(873.9,872.25,o),
(742.5,1066,o),
(544.9,1066,cs,{name = dv03;}),
(313.25,1066,o),
(210.75,922.95,o),
(210.75,672.85,cs),
(210.75,387.15,ls,{name = sh06;}),
(210.75,170.3,o),
(306.3,40.15,o),
(544.9,40.15,cs,{name = dv02;})
);
}
);
width = 1172;
}
);
leftKerningGroup = c2;
rightKerningGroup = d;
unicode = 273;
},
{
glyphname = e;
layers = (
{
hints = (
{
horizontal = 1;
origin = (0,6);
target = (1,0);
type = Stem;
},
{
horizontal = 1;
origin = (0,11);
target = down;
type = TopGhost;
}
);
layerId = "FB39A38C-31F6-4F37-9C40-5E842EB56E93";
shapes = (
{
closed = 1;
nodes = (
(779.015,373.193,l),
(779.015,304.138,o),
(745.431,256.563,o),
(631.863,256.563,cs),
(495.656,256.563,o),
(448.695,354.741,o),
(448.695,461.777,c,{name = sv01;}),
(1181.192,461.777,l),
(1181.192,504.072,ls),
(1181.192,899.907,o),
(979.854,1128.06,o),
(618.974,1128.06,cs),
(223.838,1128.06,o),
(56.106,829.399,o),
(56.106,556.504,cs),
(56.106,202.532,o),
(306.097,-34.76,o),
(655.399,-23.46,cs,{name = av01;}),
(979.473,-12.976,o),
(1151.994,151.867,o),
(1171.854,373.193,c)
);
},
{
closed = 1;
nodes = (
(453.289,687.583,l,{name = av02;}),
(468.32,784.457,o),
(529.29,851.021,o),
(631.258,851.021,cs),
(730.179,851.021,o),
(787.854,787.204,o),
(806.829,687.583,c)
);
}
);
width = 1242;
},
{
hints = (
{
origin = (0,7);
target = (0,20);
type = Stem;
},
{
horizontal = 1;
origin = (0,10);
target = (0,17);
type = Stem;
},
{
horizontal = 1;
origin = (0,20);
target = (1,0);
type = Stem;
},
{
horizontal = 1;
origin = (1,3);
target = (0,4);
type = Stem;
}
);
layerId = "BB5EAC9A-3BFE-4B64-B8A6-57F3EF362270";
shapes = (
{
closed = 1;
nodes = (
(1133.79,487.899,l),
(1133.542,538.478,ls),
(1131.803,905.302,o),
(937.038,1128.587,o),
(613.191,1128.587,cs),
(271.855,1128.587,o),
(90.256,873.603,o),
(90.256,560.339,cs),
(90.256,205.638,o),
(311.805,-26.045,o),
(636.145,-20.23,cs,{name = av01;}),
(915.876,-15.214,o),
(1086.987,131.657,o),
(1119.034,341.477,c),
(880.781,341.477,l),
(860.708,256.472,o),
(780.149,200.992,o),
(632.444,199.651,cs),
(452.525,198.018,o),
(338.27,308.532,o),
(332.57,487.899,c)
);
},
{
closed = 1;
nodes = (
(338.83,682.912,l),
(363.772,818.503,o),
(471.489,909.277,o),
(610.856,909.277,cs),
(754.098,909.277,o),
(851.281,823.72,o),
(875.925,682.912,c)
);
}
);
width = 1224;
},
{
hints = (
{
origin = (0,14);
target = (0,6);
type = Stem;
},
{
origin = (1,6);
target = (0,8);
type = Stem;
},
{
horizontal = 1;
origin = (0,17);
target = (0,3);
type = Stem;
},
{
horizontal = 1;
origin = (0,6);
target = (1,0);
type = Stem;
},
{
horizontal = 1;
origin = (1,3);
target = (0,11);
type = Stem;
}
);
layerId = "6CA6CED3-33C1-4F88-A0AA-B66472516184";
shapes = (
{
closed = 1;
nodes = (
(1001.916,310.029,l),
(960.84,149.184,o),
(824.117,47.704,o),
(624.568,47.704,cs,{name = dv04;}),
(370.992,47.704,o),
(202.337,235.341,o),
(197.987,553.423,c),
(1087.183,553.423,l),
(1087.183,591.088,ls),
(1087.183,917.574,o),
(895.148,1128.936,o),
(608.108,1128.936,cs),
(320.029,1128.936,o),
(124.781,917.178,o),
(124.781,564.001,cs),
(124.781,208.698,o),
(318.102,-16.999,o),
(617.648,-16.999,cs,{name = dv00;}),
(853.478,-16.999,o),
(1023.122,111.667,o),
(1067.213,310.029,c)
);
},
{
closed = 1;
nodes = (
(198.333,618.473,l),
(211.877,883.121,o),
(387.897,1064.282,o),
(607.069,1064.282,cs),
(837.067,1064.282,o),
(1001.471,895.824,o),
(1014.719,618.473,c)
);
}
);
width = 1205;
}
);
leftKerningGroup = c2;
rightKerningGroup = e;
unicode = 101;
},
{
glyphname = f;
layers = (
{
hints = (
{
horizontal = 1;
origin = (0,4);
target = down;
type = TopGhost;
},
{
horizontal = 1;
origin = (0,0);
target = up;
type = BottomGhost;
},
{
horizontal = 1;
origin = (0,11);
target = down;
type = TopGhost;
}
);
layerId = "FB39A38C-31F6-4F37-9C40-5E842EB56E93";
shapes = (
{
closed = 1;
nodes = (
(340.5,0,l,{name = ab00;}),
(750.5,0,l),
(750.5,747.75,l),
(1178.2,747.75,l),
(1178.2,1106,l,{name = av01;}),
(698.9,1106,l,{name = av01.01;}),
(696.05,1125.6,ls),
(680.944,1229.485,o),
(741.05,1298.75,o),
(846,1298.75,cs),
(1079,1298.75,l),
(1079,1658.6,l,{name = av02;}),
(765.55,1658.6,ls),
(450.5,1658.6,o),
(290.8,1454.65,o),
(366.25,1148.8,cs),
(376.8,1106,l,{name = av03;}),
(26.7,1106,l,{name = av04;}),
(26.7,747.75,l),
(340.5,747.75,l)
);
}
);
width = 1233;
},
{
hints = (
{
origin = (0,0);
target = (0,1);
type = Stem;
},
{
horizontal = 1;
origin = (0,2);
target = (0,5);
type = Stem;
},
{
horizontal = 1;
origin = (0,9);
target = (0,12);
type = Stem;
},
{
horizontal = 1;
origin = (0,0);
target = up;
type = BottomGhost;
}
);
layerId = "BB5EAC9A-3BFE-4B64-B8A6-57F3EF362270";
shapes = (
{
closed = 1;
nodes = (
(306.05,0,l,{name = n00;}),
(548.5,0,l,{name = n01;}),
(548.5,896.2,l,{name = n02;}),
(956.45,896.2,l),
(956.45,1105.85,l),
(518.95,1105.85,l,{name = n09;}),
(517,1190.15,ls),
(514.784,1285.95,o),
(568.7,1349.35,o),
(664.8,1349.35,cs,{name = dv01;}),
(889.7,1349.35,l,{name = n10;}),
(889.7,1563.4,l,{name = n11;}),
(610.2,1563.4,ls,{name = dv02;}),
(394.7,1563.4,o),
(293.3,1425.3,o),
(325.7,1212.55,cs),
(341.95,1105.85,l,{name = sv01;}),
(53,1105.85,l),
(53,896.2,l,{name = sv02;}),
(306.05,896.2,l)
);
}
);
width = 1020;
},
{
hints = (
{
origin = (0,19);
target = (0,2);
type = Stem;
},
{
horizontal = 1;
origin = (0,18);
target = (0,17);
type = Stem;
},
{
horizontal = 1;
origin = (0,9);
target = (0,12);
type = Stem;
},
{
horizontal = 1;
origin = (0,0);
target = up;
type = BottomGhost;
}
);
layerId = "6CA6CED3-33C1-4F88-A0AA-B66472516184";
shapes = (
{
closed = 1;
nodes = (
(281.55,0,l,{name = ab00;}),
(356.55,0,l,{name = dh01;}),
(356.55,1040.7,l,{name = dv00;}),
(734.7,1040.7,l,{name = sv01;}),
(734.7,1105.7,l),
(348.7,1105.7,l,{name = sv03.01;}),
(330.95,1254.7,ls),
(320.645,1341.205,o),
(381.55,1399.9,o),
(468.7,1399.9,cs,{name = dv01;}),
(681.85,1399.9,l,{name = dv02;}),
(681.85,1468.2,l,{name = dv03;}),
(468.7,1468.2,ls,{name = dv04;}),
(352.7,1468.2,o),
(242.986,1391.448,o),
(257.15,1276.35,cs),
(278.15,1105.7,l,{name = sv03;}),
(79.3,1105.7,l),
(79.3,1040.7,l,{name = sv05;}),
(281.55,1040.7,l,{name = dv05;})
);
}
);
width = 807;
}
);
leftKerningGroup = f1;
rightKerningGroup = f;
unicode = 102;
},
{
glyphname = g;
layers = (
{
hints = (
{
horizontal = 1;
origin = (0,23);
target = up;
type = BottomGhost;
},
{
horizontal = 1;
origin = (0,6);
target = down;
type = TopGhost;
},
{
horizontal = 1;
origin = (0,0);
target = down;
type = TopGhost;
}
);
layerId = "FB39A38C-31F6-4F37-9C40-5E842EB56E93";
shapes = (
{
closed = 1;
nodes = (
(1202.25,1106,l,{name = av04;}),
(790.75,1106,l,{name = ab02;}),
(790.75,923.85,l),
(775,923.85,l),
(740.25,1080.8,o),
(639.4,1127.35,o),
(466.4,1127.35,cs,{name = av02;}),
(184.2,1127.35,o),
(96.1,893.85,o),
(96.1,637.15,cs),
(96.1,504.45,ls),
(96.1,224.55,o),
(184.5,-24.75,o),
(476.05,-24.75,cs,{name = av01;}),
(643.2,-24.75,o),
(746.05,7.2,o),
(775,181.8,c),
(790.75,181.8,l),
(790.75,-94.75,ls),
(790.75,-132.75,o),
(765.45,-157.15,o),
(727.45,-157.15,cs),
(225.55,-157.15,l),
(225.45,-496.5,l,{name = av03;}),
(970,-496.5,ls),
(1149,-496.5,o),
(1202.25,-414,o),
(1202.25,-245,cs)
);
},
{
closed = 1;
nodes = (
(790.75,414.3,l),
(780.95,321.3,o),
(737.75,249.75,o),
(655.35,249.75,cs),
(559.65,249.75,o),
(524.15,344,o),
(524.15,475.65,cs,{name = iv00;}),
(524.15,632.95,ls,{name = iv03;}),
(524.15,758.6,o),
(560.4,843.3,o),
(657,843.3,cs),
(736.65,843.3,o),
(779.2,781.05,o),
(790.75,681.7,c)
);
}
);
width = 1329;
},
{
hints = (
{
origin = (1,0);
target = (0,27);
type = Stem;
},
{
horizontal = 1;
origin = (0,23);
target = (0,22);
type = Stem;
},
{
horizontal = 1;
origin = (0,13);
target = (1,3);
type = Stem;
},
{
horizontal = 1;
origin = (1,10);
target = (0,6);
type = Stem;
},
{
horizontal = 1;
origin = (0,0);
target = down;
type = TopGhost;
}
);
layerId = "BB5EAC9A-3BFE-4B64-B8A6-57F3EF362270";
shapes = (
{
closed = 1;
nodes = (
(1110.05,1106,l,{name = n01;}),
(867.35,1106,l,{name = n02;}),
(867.35,877.5,l),
(856.875,877.5,l),
(816.775,1044.675,o),
(696.825,1128.175,o),
(523.65,1128.175,cs,{name = n07;}),
(247.75,1128.175,o),
(132.925,936.5,o),
(132.925,656.825,cs),
(132.925,442.925,ls),
(132.925,166.975,o),
(241.325,-23.8,o),
(528.475,-23.8,cs,{name = dv01;}),
(695.8,-23.8,o),
(821.975,42,o),
(856.375,225.975,c,{name = sh02;}),
(867.35,225.975,l),
(867.35,-164.675,ls),
(867.35,-188.175,o),
(851.775,-203.375,o),
(828.425,-203.375,cs),
(275,-203.375,l,{name = n23;}),
(274.95,-430.7,l,{name = n24;}),
(957.85,-430.7,ls),
(1069.3,-430.7,o),
(1110.05,-374.4,o),
(1110.05,-267.3,c)
);
},
{
closed = 1;
nodes = (
(867.35,405.525,l),
(852.35,261.525,o),
(765.225,144.95,o),
(618.125,144.95,cs,{name = dv02;}),
(450.975,144.95,o),
(385.45,257.15,o),
(385.45,431.4,cs),
(385.45,652.9,ls),
(385.45,840.775,o),
(454.825,954.65,o),
(618.95,954.65,cs,{name = n38;}),
(756,954.65,o),
(842.425,829.725,o),
(867.35,689.7,c)
);
}
);
width = 1292;
},
{
hints = (
{
origin = (0,9);
target = (1,7);
type = Stem;
},
{
origin = (0,18);
target = (0,27);
type = Stem;
},
{
horizontal = 1;
origin = (0,23);
target = (0,22);
type = Stem;
},
{
horizontal = 1;
origin = (0,13);
target = (1,3);
type = Stem;
},
{
horizontal = 1;
origin = (1,10);
target = (0,6);
type = Stem;
},
{
horizontal = 1;
origin = (0,0);
target = down;
type = TopGhost;
}
);
layerId = "6CA6CED3-33C1-4F88-A0AA-B66472516184";
shapes = (
{
closed = 1;
nodes = (
(989.85,1106,l,{name = av01;}),
(915.95,1106,l,{name = sh01;}),
(915.95,831.15,l),
(910.75,831.15,l,{name = sh02;}),
(865.3,1008.55,o),
(726.25,1129,o),
(552.9,1129,cs,{name = dv04;}),
(283.3,1129,o),
(141.75,979.15,o),
(141.75,676.5,cs,{name = sh03;}),
(141.75,381.4,ls),
(141.75,109.4,o),
(270.15,-22.85,o),
(552.9,-22.85,cs,{name = dv01;}),
(720.4,-22.85,o),
(869.9,76.8,o),
(909.75,270.15,c,{name = sh04;}),
(915.95,270.15,l),
(915.95,-274.6,ls,{name = sh05;}),
(915.95,-283.6,o),
(910.1,-289.6,o),
(901.4,-289.6,cs,{name = sh06;}),
(296.45,-289.6,l,{name = dv06;}),
(296.45,-364.9,l,{name = dv05;}),
(917.7,-364.9,ls,{name = sh07;}),
(961.6,-364.9,o),
(989.85,-334.8,o),
(989.85,-289.6,cs)
);
},
{
closed = 1;
nodes = (
(915.95,396.75,l,{name = iv01;}),
(895.75,201.75,o),
(764.7,40.15,o),
(552.9,40.15,cs,{name = dv02;}),
(314.3,40.15,o),
(218.75,170.3,o),
(218.75,387.15,cs),
(218.75,672.85,ls,{name = sh08;}),
(218.75,922.95,o),
(321.25,1066,o),
(552.9,1066,cs,{name = dv03;}),
(747.35,1066,o),
(877.65,878.4,o),
(915.95,697.7,c)
);
}
);
width = 1153;
}
);
leftKerningGroup = c2;
rightKerningGroup = g;
unicode = 103;
},
{
glyphname = h;
layers = (
{
hints = (
{
horizontal = 1;
origin = (0,6);
target = down;
type = TopGhost;
},
{
horizontal = 1;
origin = (0,0);
target = down;
type = TopGhost;
},
{
horizontal = 1;
origin = (0,10);
target = up;
type = BottomGhost;
}
);
layerId = "FB39A38C-31F6-4F37-9C40-5E842EB56E93";
shapes = (
{
closed = 1;
nodes = (
(126.667,1507.12,l,{name = av01;}),
(537.667,1507.12,l),
(537.667,927.25,l),
(558.,927.25,l),
(597.048,1048.207,o),
(685.934,1126.868,o),
(834.633,1126.868,cs,{name = av02;}),
(1065.022,1126.868,o),
(1215.531,978.951,o),
(1215.531,727.945,cs),
(1215.531,0,l,{name = ab01;}),
(804.531,0,l),
(804.531,611.999,ls),
(804.531,729.832,o),
(762.435,804.34,o),
(674.813,804.34,cs),
(589.639,804.34,o),
(537.667,721.364,o),
(537.667,606.239,cs),
(537.667,0,l,{name = ab02;}),
(126.667,0,l)
);
}
);
width = 1332;
},
{
hints = (
{
origin = (0,0);
target = (0,1);
type = Stem;
},
{
origin = (0,11);
target = (0,10);
type = Stem;
},
{
horizontal = 1;
origin = (0,15);
target = (0,6);
type = Stem;
},
{
horizontal = 1;
origin = (0,0);
target = down;
type = TopGhost;
},
{
horizontal = 1;
origin = (0,10);
target = up;
type = BottomGhost;
}
);
layerId = "BB5EAC9A-3BFE-4B64-B8A6-57F3EF362270";
shapes = (
{
closed = 1;
nodes = (
(157.333,1516.582,l,{name = n00;}),
(399.804,1516.582,l,{name = n01;}),
(399.804,903.521,l),
(412.368,903.521,l),
(462.574,1042.623,o),
(577.012,1127.979,o),
(740.054,1127.979,cs,{name = n06;}),
(968.391,1127.979,o),
(1111.702,974.253,o),
(1111.702,733.21,cs),
(1111.702,0,l,{name = n10;}),
(869.21,0,l,{name = n11;}),
(869.21,675.236,ls),
(869.21,825.003,o),
(793.308,934.661,o),
(650.713,934.661,cs,{name = n15;}),
(503.34,934.661,o),
(399.804,812.704,o),
(399.804,646.438,cs),
(399.804,0,l,{name = ab01;}),
(157.333,0,l)
);
}
);
width = 1255;
},
{
hints = (
{
origin = (0,0);
target = (0,1);
type = Stem;
},
{
origin = (0,11);
target = (0,10);
type = Stem;
},
{
horizontal = 1;
origin = (0,15);
target = (0,6);
type = Stem;
},
{
horizontal = 1;
origin = (0,0);
target = down;
type = TopGhost;
},
{
horizontal = 1;
origin = (0,10);
target = up;
type = BottomGhost;
}
);
layerId = "6CA6CED3-33C1-4F88-A0AA-B66472516184";
shapes = (
{
closed = 1;
nodes = (
(188,1500,l,{name = av01;}),
(262.942,1500,l),
(262.942,879.791,l),
(267.736,879.791,l,{name = iv01;}),
(329.101,1037.039,o),
(469.091,1129.089,o),
(645.971,1129.089,cs,{name = dv02;}),
(871.578,1129.089,o),
(1008.281,969.556,o),
(1008.281,738.474,cs),
(1008.281,0,l,{name = ab01;}),
(935.516,0,l),
(935.516,738.474,ls),
(935.516,920.174,o),
(824.142,1064.982,o),
(627.165,1064.982,cs,{name = dv01;}),
(418.042,1064.982,o),
(262.942,904.044,o),
(262.942,686.637,cs),
(262.942,0,l,{name = ab02;}),
(188,0,l)
);
}
);
width = 1180;
}
);
leftKerningGroup = b2;
rightKerningGroup = a;
unicode = 104;
},
{
glyphname = i;
layers = (
{
hints = (
{
horizontal = 1;
origin = (0,1);
target = down;
type = TopGhost;
},
{
horizontal = 1;
origin = (0,0);
target = up;
type = BottomGhost;
},
{
horizontal = 1;
origin = (1,2);
target = down;
type = TopGhost;
}
);
layerId = "FB39A38C-31F6-4F37-9C40-5E842EB56E93";
shapes = (
{
closed = 1;
nodes = (
(153.222,0,l,{name = n00;}),
(153.222,1106.02,l),
(563.333,1106.02,l),
(563.333,0,l)
);
},
{
closed = 1;
locked = 1;
nodes = (
(126.907,1584.579,o),
(219.581,1671.61,o),
(357.552,1671.61,cs),
(502.291,1671.61,o),
(594.966,1584.579,o),
(594.966,1455.012,cs),
(594.966,1319.089,o),
(502.291,1232.058,o),
(357.552,1232.058,cs,{name = ab02;}),
(219.581,1232.058,o),
(126.907,1319.089,o),
(126.907,1455.012,cs)
);
}
);
width = 721;
},
{
hints = (
{
origin = (0,0);
target = (0,3);
type = Stem;
},
{
horizontal = 1;
origin = (0,1);
target = down;
type = TopGhost;
},
{
horizontal = 1;
origin = (0,0);
target = up;
type = BottomGhost;
},
{
horizontal = 1;
origin = (1,2);
target = down;
type = TopGhost;
}
);
layerId = "BB5EAC9A-3BFE-4B64-B8A6-57F3EF362270";
shapes = (
{
closed = 1;
nodes = (
(170.611,0,l,{name = n00;}),
(170.611,1106.099,l,{name = n01;}),
(413.167,1106.099,l),
(413.167,0,l,{name = n03;})
);
},
{
closed = 1;
locked = 1;
nodes = (
(150.186,1467.391,o),
(206.646,1521.439,o),
(290.964,1521.439,cs,{name = n07;}),
(379.368,1521.439,o),
(435.827,1467.391,o),
(435.827,1386.675,cs,{name = n10;}),
(435.827,1302.048,o),
(379.368,1248,o),
(290.964,1248,cs,{name = n13;}),
(206.646,1248,o),
(150.186,1302.048,o),
(150.186,1386.675,cs,{name = n04;})
);
}
);
width = 586;
},
{
hints = (
{
origin = (1,11);
target = (1,5);
type = Stem;
},
{
origin = (0,0);
target = (0,3);
type = Stem;
},
{
horizontal = 1;
origin = (1,8);
target = (1,2);
type = Stem;
},
{
horizontal = 1;
origin = (0,1);
target = down;
type = TopGhost;
},
{
horizontal = 1;
origin = (0,0);
target = up;
type = BottomGhost;
}
);
layerId = "6CA6CED3-33C1-4F88-A0AA-B66472516184";
shapes = (
{
closed = 1;
nodes = (
(188,0,l,{name = ab03;}),
(188,1106.178,l),
(262,1106.178,l),
(262,0,l)
);
},
{
closed = 1;
locked = 1;
nodes = (
(154.5,1378.523,o),
(182.5,1406.523,o),
(224.5,1406.523,cs),
(268.5,1406.523,o),
(296.5,1378.523,o),
(296.5,1336.523,cs),
(296.5,1292.523,o),
(268.5,1264.523,o),
(224.5,1264.523,cs,{name = ab02;}),
(182.5,1264.523,o),
(154.5,1292.523,o),
(154.5,1336.523,cs)
);
}
);
width = 451;
}
);
leftKerningGroup = i1;
rightKerningGroup = i;
unicode = 105;
},
{
color = (255, 153, 153, 255);
glyphname = dotlessi;
layers = (
{
hints = (
{
horizontal = 1;
origin = (0,1);
target = down;
type = TopGhost;
},
{
horizontal = 1;
origin = (0,0);
target = up;
type = BottomGhost;
}
);
layerId = "FB39A38C-31F6-4F37-9C40-5E842EB56E93";
shapes = (
{
closed = 1;
locked = 1;
nodes = (
(153.222,0.,l,{name = n00;}),
(153.222,1106.02,l),
(563.333,1106.02,l),
(563.333,0.,l)
);
}
);
width = 721;
},
{
hints = (
{
origin = (0,0);
target = (0,3);
type = Stem;
},
{
horizontal = 1;
origin = (0,1);
target = down;
type = TopGhost;
},
{
horizontal = 1;
origin = (0,0);
target = up;
type = BottomGhost;
}
);
layerId = "BB5EAC9A-3BFE-4B64-B8A6-57F3EF362270";
shapes = (
{
closed = 1;
nodes = (
(170.611,0,l,{name = n00;}),
(170.611,1106.099,l,{name = n01;}),
(413.167,1106.099,l),
(413.167,0,l,{name = n04;})
);
}
);
width = 586;
},
{
hints = (
{
origin = (0,0);
target = (0,3);
type = Stem;
},
{
horizontal = 1;
origin = (0,1);
target = down;
type = TopGhost;
},
{
horizontal = 1;
origin = (0,0);
target = up;
type = BottomGhost;
}
);
layerId = "6CA6CED3-33C1-4F88-A0AA-B66472516184";
shapes = (
{
closed = 1;
nodes = (
(188,0,l,{name = ab01;}),
(188,1106.178,l),
(263,1106.178,l),
(263,0,l)
);
}
);
width = 451;
}
);
leftKerningGroup = m;
rightKerningGroup = g;
unicode = 305;
},
{
glyphname = j;
layers = (
{
hints = (
{
horizontal = 1;
place = (-502,21);
target = up;
type = BottomGhost;
},
{
horizontal = 1;
place = (1106,-20);
target = down;
type = TopGhost;
},
{
horizontal = 1;
origin = (0,8);
target = down;
type = TopGhost;
}
);
layerId = "FB39A38C-31F6-4F37-9C40-5E842EB56E93";
shapes = (
{
closed = 1;
locked = 1;
nodes = (
(107.97,1319.03,o),
(200.645,1232,o),
(338.616,1232,cs,{name = ab02;}),
(483.355,1232,o),
(576.03,1319.03,o),
(576.03,1454.954,cs),
(576.03,1584.521,o),
(483.355,1671.551,o),
(338.616,1671.551,cs,{name = .av02;}),
(200.645,1671.551,o),
(107.97,1584.521,o),
(107.97,1454.954,cs)
);
},
{
closed = 1;
locked = 1;
nodes = (
(557.338,1106.197,l,{name = .av03;}),
(146.82,1106.197,l),
(146.82,-112.406,ls),
(146.82,-154.181,o),
(117.471,-154.181,qs),
(-59.577,-154.181,l),
(-59.577,-502.446,l,{name = .av01;}),
(371.255,-502.446,ls),
(474.904,-502.446,o),
(557.338,-392.458,o),
(557.338,-302.046,qs)
);
}
);
width = 684;
},
{
hints = (
{
place = (100,243);
type = Stem;
},
{
horizontal = 1;
place = (-428,228);
type = Stem;
},
{
horizontal = 1;
place = (1106,-20);
target = down;
type = TopGhost;
},
{
horizontal = 1;
origin = (0,8);
target = down;
type = TopGhost;
}
);
layerId = "BB5EAC9A-3BFE-4B64-B8A6-57F3EF362270";
shapes = (
{
closed = 1;
nodes = (
(173.18,1302.048,o),
(229.639,1248,o),
(313.957,1248,cs,{name = n13;}),
(402.361,1248,o),
(458.82,1302.048,o),
(458.82,1386.675,cs,{name = n10;}),
(458.82,1467.392,o),
(402.361,1521.439,o),
(313.957,1521.439,cs,{name = n07;}),
(229.639,1521.439,o),
(173.18,1467.392,o),
(173.18,1386.675,cs,{name = n04;})
);
},
{
closed = 1;
nodes = (
(424.893,1106.197,l,{name = .av01;}),
(182.043,1106.197,l,{name = .dh01;}),
(182.043,-157.962,ls),
(182.043,-199.736,o),
(144.117,-199.736,qs),
(57.201,-199.736,l,{name = .dv02;}),
(57.201,-428.002,l,{name = .dv01;}),
(289.314,-428.002,ls),
(357.104,-428.002,o),
(424.893,-365.595,o),
(424.893,-309.429,qs)
);
}
);
width = 609;
},
{
hints = (
{
place = (141,144);
type = Stem;
},
{
origin = (1,2);
target = (1,10);
type = Stem;
},
{
horizontal = 1;
origin = (1,7);
target = (1,4);
type = Stem;
},
{
horizontal = 1;
place = (1274,144);
type = Stem;
},
{
horizontal = 1;
origin = (1,0);
target = down;
type = TopGhost;
},
{
place = (141,144);
type = Stem;
},
{
horizontal = 1;
place = (1274,144);
type = Stem;
}
);
layerId = "6CA6CED3-33C1-4F88-A0AA-B66472516184";
shapes = (
{
closed = 1;
nodes = (
(140.512,1302.259,o),
(168.85,1273.922,o),
(211.356,1273.922,cs,{name = ab01;}),
(255.886,1273.922,o),
(284.223,1302.259,o),
(284.223,1346.789,cs,{name = .dh02;}),
(284.223,1389.296,o),
(255.886,1417.633,o),
(211.356,1417.633,cs,{name = .dv03;}),
(168.85,1417.633,o),
(140.512,1389.296,o),
(140.512,1346.789,cs,{name = .dh01;})
);
},
{
closed = 1;
nodes = (
(253.893,1106.197,l,{name = .av01;}),
(180.043,1106.197,l,{name = .ih01;}),
(180.043,-227.962,ls),
(180.043,-269.736,o),
(142.117,-269.736,qs),
(-12.799,-269.736,l,{name = .dv02;}),
(-12.799,-338.002,l,{name = .dv01;}),
(155.287,-338.002,ls),
(204.59,-338.002,o),
(253.893,-282.606,o),
(253.893,-232.75,qs)
);
}
);
width = 432;
}
);
leftKerningGroup = j;
rightKerningGroup = i;
unicode = 106;
},
{
glyphname = k;
layers = (
{
hints = (
{
horizontal = 1;
origin = (0,0);
target = up;
type = BottomGhost;
},
{
horizontal = 1;
origin = (0,7);
target = down;
type = TopGhost;
},
{
horizontal = 1;
origin = (0,11);
target = down;
type = TopGhost;
}
);
layerId = "FB39A38C-31F6-4F37-9C40-5E842EB56E93";
shapes = (
{
closed = 1;
nodes = (
(126.444,0,l,{name = ab01;}),
(537.868,0,l),
(537.868,314.334,l),
(585.657,368.818,l,{name = iv01;}),
(819.317,-0.,l,{name = ab02;}),
(1305.489,-0.,l,{name = iv02;}),
(888.984,627.388,l),
(1299.388,1106.094,l,{name = av02;}),
(820.894,1106.094,l),
(553.809,782.492,l),
(537.868,782.492,l),
(537.868,1500.,l,{name = av01;}),
(126.444,1500.,l)
);
}
);
width = 1318;
},
{
hints = (
{
origin = (0,12);
target = (0,11);
type = Stem;
},
{
horizontal = 1;
origin = (0,0);
target = up;
type = BottomGhost;
},
{
horizontal = 1;
origin = (0,7);
target = down;
type = TopGhost;
},
{
horizontal = 1;
origin = (0,11);
target = down;
type = TopGhost;
}
);
layerId = "BB5EAC9A-3BFE-4B64-B8A6-57F3EF362270";
shapes = (
{
closed = 1;
nodes = (
(157.222,0,l,{name = n00;}),
(399.934,0,l,{name = n01;}),
(399.934,399.596,l),
(495.197,492.518,l),
(838.791,0,l,{name = ab01;}),
(1129.819,0,l,{name = iv01;}),
(674.668,645.774,l),
(1121.974,1106.138,l,{name = n07;}),
(834.447,1106.138,l),
(412.156,685.658,l),
(399.934,685.658,l),
(399.934,1501.333,l,{name = n11;}),
(157.222,1501.333,l)
);
}
);
width = 1198;
},
{
hints = (
{
origin = (0,0);
target = (0,1);
type = Stem;
},
{
horizontal = 1;
origin = (0,7);
target = down;
type = TopGhost;
},
{
horizontal = 1;
origin = (0,0);
target = up;
type = BottomGhost;
},
{
horizontal = 1;
origin = (0,11);
target = down;
type = TopGhost;
}
);
layerId = "6CA6CED3-33C1-4F88-A0AA-B66472516184";
shapes = (
{
closed = 1;
nodes = (
(188,0,l,{name = ab01;}),
(262,0,l),
(262,484.859,l),
(404.738,616.217,l),
(858.266,0,l,{name = ab02;}),
(954.149,0,l),
(460.351,664.16,l),
(944.56,1106.182,l,{name = av02;}),
(848,1106.182,l),
(270.504,588.824,l),
(262,588.824,l),
(262,1444,l,{name = av01;}),
(188,1444,l)
);
}
);
width = 1079;
}
);
leftKerningGroup = b2;
rightKerningGroup = k;
unicode = 107;
},
{
glyphname = l;
layers = (
{
layerId = "FB39A38C-31F6-4F37-9C40-5E842EB56E93";
shapes = (
{
closed = 1;
nodes = (
(126.444,0,l,{name = .ab01;}),
(537.444,0,l),
(537.444,1500,l,{name = .av01;}),
(126.444,1500,l)
);
}
);
width = 664;
},
{
layerId = "BB5EAC9A-3BFE-4B64-B8A6-57F3EF362270";
shapes = (
{
closed = 1;
nodes = (
(157.222,0,l,{name = .ab01;}),
(400.222,0,l,{name = .dh01;}),
(400.222,1525.333,l,{name = .av01;}),
(157.222,1525.333,l)
);
}
);
width = 558;
},
{
layerId = "6CA6CED3-33C1-4F88-A0AA-B66472516184";
shapes = (
{
closed = 1;
nodes = (
(188,0,l,{name = .ab01;}),
(264,0,l,{name = .dh01;}),
(264,1500,l,{name = .av01;}),
(188,1500,l)
);
}
);
width = 452;
}
);
leftKerningGroup = b2;
rightKerningGroup = d;
unicode = 108;
},
{
color = (153, 255, 154, 255);
glyphname = lslash;
layers = (
{
hints = (
{
horizontal = 1;
origin = (0,5);
target = down;
type = TopGhost;
},
{
horizontal = 1;
origin = (0,11);
target = up;
type = BottomGhost;
}
);
layerId = "FB39A38C-31F6-4F37-9C40-5E842EB56E93";
shapes = (
{
closed = 1;
nodes = (
(242.489,0.011,l,{name = n00;}),
(242.489,200.917,l,{name = iv01;}),
(201.489,159.911,l,{name = n00.1;}),
(12.689,348.711,l,{name = n01.1;}),
(242.489,578.511,l),
(242.489,1634.711,l,{name = n01;}),
(652.489,1634.711,l),
(652.489,988.511,l,{name = iv02;}),
(697.989,1034.011,l),
(886.689,845.211,l),
(652.489,610.977,l),
(652.489,0.011,l,{name = n03;})
);
}
);
width = 900;
},
{
hints = (
{
origin = (0,0);
target = (0,11);
type = Stem;
},
{
horizontal = 1;
origin = (0,5);
target = down;
type = TopGhost;
},
{
horizontal = 1;
origin = (0,0);
target = up;
type = BottomGhost;
}
);
layerId = "BB5EAC9A-3BFE-4B64-B8A6-57F3EF362270";
shapes = (
{
closed = 1;
nodes = (
(265.244,-0.044,l,{name = n00;}),
(265.244,342.856,l,{name = iv01;}),
(130.244,207.856,l,{name = n00.1;}),
(8.544,329.456,l,{name = n01.1;}),
(265.244,586.116,l,{name = sh01;}),
(265.244,1525.356,l,{name = n01;}),
(508.244,1525.356,l,{name = sh02;}),
(508.244,829.078,l,{name = iv02;}),
(651.744,972.556,l),
(773.344,850.956,l),
(508.244,585.856,l),
(508.244,-0.044,l,{name = n03;})
);
}
);
width = 779;
},
{
hints = (
{
origin = (0,0);
target = (0,11);
type = Stem;
},
{
horizontal = 1;
origin = (0,5);
target = down;
type = TopGhost;
},
{
horizontal = 1;
origin = (0,0);
target = up;
type = BottomGhost;
}
);
layerId = "6CA6CED3-33C1-4F88-A0AA-B66472516184";
shapes = (
{
closed = 1;
nodes = (
(293,0,l,{name = ab01;}),
(293,491.8,l,{name = iv01;}),
(57,255.8,l,{name = dv01;}),
(2.5,310.2,l,{name = dv02;}),
(293,600.7,l,{name = sh01;}),
(293,1416,l,{name = av01;}),
(369,1416,l,{name = av06;}),
(369,676.7,l,{name = iv02;}),
(603.5,911.2,l),
(658,856.8,l),
(369,567.8,l),
(369,0,l,{name = dh01;})
);
}
);
width = 663;
}
);
leftKerningGroup = b2;
rightKerningGroup = d;
unicode = 322;
},
{
glyphname = m;
layers = (
{
hints = (
{
horizontal = 1;
origin = (0,6);
target = down;
type = TopGhost;
},
{
horizontal = 1;
origin = (0,0);
target = down;
type = TopGhost;
},
{
horizontal = 1;
origin = (0,17);
target = up;
type = BottomGhost;
}
);
layerId = "FB39A38C-31F6-4F37-9C40-5E842EB56E93";
shapes = (
{
closed = 1;
nodes = (
(126.45,1106,l,{name = av01;}),
(536.95,1106,l),
(536.95,927.25,l),
(554.15,927.25,l),
(592.937,1048.2,o),
(683.858,1126.85,o),
(831.539,1126.85,cs,{name = av02;}),
(990.735,1126.85,o),
(1111,1055.3,o),
(1171.7,927.25,c),
(1190.3,927.25,l),
(1229.382,1048.2,o),
(1327.256,1126.85,o),
(1486.35,1126.85,cs,{name = av03;}),
(1732.782,1126.85,o),
(1892.75,978.95,o),
(1892.75,727.95,cs),
(1892.75,0,l,{name = ab01.1;}),
(1483.45,0,l),
(1483.45,652,ls),
(1483.45,769.85,o),
(1441.45,844.35,o),
(1353.95,844.35,cs),
(1256.15,844.35,o),
(1212.6,768.402,o),
(1212.6,668.6,cs),
(1212.6,0,l,{name = ab01;}),
(803.3,0,l),
(803.3,652,ls),
(803.3,769.85,o),
(761.3,844.35,o),
(673.85,844.35,cs),
(588.8,844.35,o),
(536.95,761.35,o),
(536.95,646.25,cs),
(536.95,0,l,{name = ab02;}),
(126.45,0,l)
);
}
);
width = 2009;
},
{
hints = (
{
origin = (0,0);
target = (0,1);
type = Stem;
},
{
origin = (0,27);
target = (0,25);
type = Stem;
},
{
origin = (0,18);
target = (0,17);
type = Stem;
},
{
horizontal = 1;
origin = (0,22);
target = (0,13);
type = Stem;
},
{
horizontal = 1;
origin = (0,0);
target = down;
type = TopGhost;
},
{
horizontal = 1;
origin = (0,17);
target = up;
type = BottomGhost;
}
);
layerId = "BB5EAC9A-3BFE-4B64-B8A6-57F3EF362270";
shapes = (
{
closed = 1;
nodes = (
(157.725,1106,l,{name = av01;}),
(400.975,1106,l,{name = dh01;}),
(400.975,903.525,l),
(411.975,903.525,l),
(462.047,1042.625,o),
(577.541,1127.975,o),
(740.496,1127.975,cs,{name = sv01;}),
(908.846,1127.975,o),
(1030.6,1043.7,o),
(1083.575,903.525,c),
(1096.675,903.525,l),
(1146.862,1042.625,o),
(1268.452,1127.975,o),
(1440.352,1127.975,cs,{name = dv02;}),
(1681.753,1127.975,o),
(1833.45,974.25,o),
(1833.45,733.2,cs),
(1833.45,0,l,{name = n17;}),
(1590.3,0,l,{name = dh04;}),
(1590.3,695.225,ls),
(1590.3,845,o),
(1511.125,954.675,o),
(1363.5,954.675,cs,{name = dv01;}),
(1221.859,954.675,o),
(1113.609,850.306,o),
(1113.75,703.525,cs,{name = dh03;}),
(1114.425,0,l,{name = ab01;}),
(870.6,0,l),
(870.6,695.225,ls,{name = dh02;}),
(870.6,845,o),
(794.275,954.675,o),
(651.75,954.675,cs,{name = sv02;}),
(504.45,954.675,o),
(400.975,832.7,o),
(400.975,666.45,cs,{name = sh01;}),
(400.975,0,l,{name = ab02;}),
(157.725,0,l)
);
}
);
width = 1951;
},
{
hints = (
{
origin = (0,0);
target = (0,1);
type = Stem;
},
{
origin = (0,28);
target = (0,25);
type = Stem;
},
{
origin = (0,18);
target = (0,17);
type = Stem;
},
{
horizontal = 1;
origin = (0,22);
target = (0,13);
type = Stem;
},
{
horizontal = 1;
origin = (0,17);
target = up;
type = BottomGhost;
},
{
horizontal = 1;
origin = (0,0);
target = down;
type = TopGhost;
}
);
layerId = "6CA6CED3-33C1-4F88-A0AA-B66472516184";
shapes = (
{
closed = 1;
nodes = (
(189,1106,l,{name = av01;}),
(263,1106,l,{name = av01.1;}),
(263,879.8,l),
(267.8,879.8,l,{name = iv01;}),
(329.15,1037.05,o),
(469.15,1129.1,o),
(646.55,1129.1,cs,{name = sv01;}),
(822.95,1129.1,o),
(945.2,1032.1,o),
(990.45,879.8,c),
(998.05,879.8,l,{name = iv01.1;}),
(1059.4,1037.05,o),
(1204.75,1129.1,o),
(1388.9,1129.1,cs,{name = dv02;}),
(1623.8,1129.1,o),
(1766.15,969.55,o),
(1766.15,738.45,cs),
(1766.15,0,l,{name = ab01.1;}),
(1692.15,0,l,{name = dh03;}),
(1692.15,738.45,ls),
(1692.15,920.15,o),
(1575.8,1065,o),
(1368.05,1065,cs,{name = dv01;}),
(1182.569,1065,o),
(1009.546,932.21,o),
(1009.9,738.45,cs,{name = dh02;}),
(1011.25,0,l,{name = ab01;}),
(935.9,0,l),
(935.9,738.45,ls,{name = dh01;}),
(935.9,920.15,o),
(825.25,1065,o),
(627.65,1065,cs,{name = sv02;}),
(418.1,1065,o),
(263,904.05,o),
(263,686.65,cs,{name = sh01;}),
(263,0,l,{name = ab02;}),
(189,0,l)
);
}
);
width = 1880;
}
);
leftKerningGroup = m;
rightKerningGroup = a;
unicode = 109;
},
{
glyphname = n;
layers = (
{
hints = (
{
horizontal = 1;
place = (1127,21);
target = up;
type = BottomGhost;
},
{
horizontal = 1;
place = (0,21);
target = up;
type = BottomGhost;
}
);
layerId = "FB39A38C-31F6-4F37-9C40-5E842EB56E93";
shapes = (
{
closed = 1;
nodes = (
(126.444,1106.,l,{name = ab01;}),
(535.941,1106.,l),
(535.941,927.252,l),
(553.165,927.252,l),
(593.414,1048.208,o),
(687.728,1126.869,o),
(841.002,1126.869,cs,{name = .av01;}),
(1078.479,1126.869,o),
(1211.588,978.952,o),
(1211.588,727.946,cs),
(1211.588,0.001,l,{name = av01;}),
(802.309,0.001,l),
(802.309,652.,ls),
(802.309,769.833,o),
(760.291,844.341,o),
(672.833,844.341,cs),
(587.817,844.341,o),
(535.941,761.365,o),
(535.941,646.24,cs),
(535.941,0.001,l,{name = ab02;}),
(126.444,0.001,l)
);
}
);
width = 1328;
},
{
hints = (
{
place = (871,243);
type = Stem;
},
{
place = (158,243);
type = Stem;
},
{
horizontal = 1;
place = (955,173);
type = Stem;
},
{
horizontal = 1;
place = (1106,21);
target = up;
type = BottomGhost;
},
{
horizontal = 1;
place = (0,21);
target = up;
type = BottomGhost;
}
);
layerId = "BB5EAC9A-3BFE-4B64-B8A6-57F3EF362270";
shapes = (
{
closed = 1;
nodes = (
(157.722,1105.994,l,{name = n00;}),
(400.971,1105.994,l,{name = n01;}),
(400.971,903.522,l),
(411.98,903.522,l),
(462.787,1042.624,o),
(579.938,1127.98,o),
(745.268,1127.98,cs,{name = n06;}),
(977.148,1127.98,o),
(1113.759,974.254,o),
(1113.759,733.211,cs,{name = n09;}),
(1113.759,0.001,l,{name = n10;}),
(870.62,0.001,l),
(870.62,695.237,ls,{name = n12;}),
(870.62,845.004,o),
(794.265,954.662,o),
(651.752,954.662,cs,{name = n15;}),
(504.458,954.662,o),
(400.971,832.705,o),
(400.971,666.439,cs),
(400.971,0.001,l,{name = ab01;}),
(157.722,0.001,l)
);
}
);
width = 1257;
},
{
hints = (
{
place = (935,74);
type = Stem;
},
{
place = (188,74);
type = Stem;
},
{
horizontal = 1;
place = (1065,64);
type = Stem;
},
{
horizontal = 1;
place = (1106,21);
target = up;
type = BottomGhost;
},
{
horizontal = 1;
place = (0,21);
target = up;
type = BottomGhost;
}
);
layerId = "6CA6CED3-33C1-4F88-A0AA-B66472516184";
shapes = (
{
closed = 1;
nodes = (
(188.,1105.988,l,{name = av01;}),
(262.,1105.988,l,{name = av02;}),
(262.,879.792,l),
(266.794,879.792,l,{name = iv01;}),
(328.16,1037.04,o),
(468.149,1129.09,o),
(645.534,1129.09,cs,{name = .dv02;}),
(871.818,1129.09,o),
(1008.931,969.556,o),
(1008.931,738.475,cs),
(1008.931,0.001,l,{name = ab01;}),
(934.931,0.001,l,{name = av00;}),
(934.931,738.475,ls),
(934.931,920.175,o),
(824.239,1064.983,o),
(626.671,1064.983,cs,{name = .dv01;}),
(417.1,1064.983,o),
(262.,904.045,o),
(262.,686.638,cs),
(262.,0.001,l,{name = ab02;}),
(188.,0.001,l)
);
}
);
width = 1180;
}
);
leftKerningGroup = m;
rightKerningGroup = a;
unicode = 110;
},
{
glyphname = o;
layers = (
{
hints = (
{
horizontal = 1;
origin = (0,2);
target = up;
type = BottomGhost;
},
{
horizontal = 1;
origin = (0,8);
target = down;
type = TopGhost;
}
);
layerId = "FB39A38C-31F6-4F37-9C40-5E842EB56E93";
shapes = (
{
closed = 1;
nodes = (
(56.774,193.998,o),
(277.91,-23.777,o),
(651.9,-23.777,cs,{name = n03;}),
(1024.942,-23.777,o),
(1246.782,192.405,o),
(1246.782,551.401,cs,{name = n06;}),
(1246.782,905.662,o),
(1020.121,1126.333,o),
(651.9,1126.333,cs,{name = n09;}),
(287.328,1126.333,o),
(56.774,904.671,o),
(56.774,553.134,cs,{name = n00;})
);
},
{
closed = 1;
nodes = (
(821.286,406.29,o),
(782.054,291.229,o),
(651.789,291.229,cs,{name = n15;}),
(522.232,291.229,o),
(482.294,405.12,o),
(482.294,555.131,cs,{name = n18;}),
(482.294,703.831,o),
(523.387,820.215,o),
(651.789,820.215,cs,{name = n21;}),
(779.537,820.215,o),
(821.286,705.055,o),
(821.286,556.585,cs,{name = n12;})
);
}
);
width = 1303;
},
{
hints = (
{
origin = (1,11);
target = (0,5);
type = Stem;
},
{
horizontal = 1;
origin = (0,2);
target = (1,2);
type = Stem;
},
{
horizontal = 1;
origin = (1,8);
target = (0,8);
type = Stem;
}
);
layerId = "BB5EAC9A-3BFE-4B64-B8A6-57F3EF362270";
shapes = (
{
closed = 1;
nodes = (
(88.468,209.083,o),
(303.514,-22.888,o),
(632.978,-22.888,cs,{name = n03;}),
(961.968,-22.888,o),
(1176.31,208.286,o),
(1176.31,553.004,cs,{name = n06;}),
(1176.31,895.355,o),
(959.557,1127.665,o),
(632.978,1127.665,cs,{name = n09;}),
(308.222,1127.665,o),
(88.468,894.86,o),
(88.468,553.871,c,{name = n00;})
);
},
{
closed = 1;
nodes = (
(926.119,353.6,o),
(825.446,197.058,o),
(632.449,197.058,cs,{name = n15;}),
(440.948,197.058,o),
(338.78,354.176,o),
(338.78,549.896,cs,{name = n18;}),
(338.78,746.128,o),
(440.383,902.164,o),
(632.449,902.164,cs,{name = n21;}),
(824.187,902.164,o),
(926.119,746.685,o),
(926.119,550.557,cs,{name = n12;})
);
}
);
width = 1266;
},
{
hints = (
{
origin = (0,11);
target = (1,5);
type = Stem;
},
{
origin = (1,11);
target = (0,5);
type = Stem;
},
{
horizontal = 1;
origin = (0,2);
target = (1,2);
type = Stem;
},
{
horizontal = 1;
origin = (1,8);
target = (0,8);
type = Stem;
}
);
layerId = "6CA6CED3-33C1-4F88-A0AA-B66472516184";
shapes = (
{
closed = 1;
nodes = (
(120.162,224.167,o),
(329.117,-22,o),
(614.055,-22,cs,{name = dv01;}),
(898.994,-22,o),
(1105.838,224.167,o),
(1105.838,554.608,cs,{name = av06;}),
(1105.838,885.048,o),
(898.994,1128.998,o),
(614.055,1128.998,cs,{name = at01;}),
(329.117,1128.998,o),
(120.162,885.048,o),
(120.162,554.608,cs,{name = av01;})
);
},
{
closed = 1;
nodes = (
(1030.952,271.992,o),
(868.838,42.886,o),
(613.109,42.886,cs,{name = dv02;}),
(359.663,42.886,o),
(195.266,274.429,o),
(195.266,554.718,cs,{name = av02;}),
(195.266,837.444,o),
(357.38,1064.112,o),
(613.109,1064.112,cs,{name = dv03;}),
(868.838,1064.112,o),
(1030.952,837.444,o),
(1030.952,554.718,cs,{name = av00;})
);
}
);
width = 1228;
}
);
leftKerningGroup = c2;
rightKerningGroup = b;
unicode = 111;
},
{
color = (153, 255, 154, 255);
glyphname = oslash;
rightMetricsKey = O;
layers = (
{
hints = (
{
horizontal = 1;
origin = (0,16);
target = down;
type = TopGhost;
},
{
horizontal = 1;
origin = (0,11);
target = down;
type = TopGhost;
},
{
horizontal = 1;
origin = (0,0);
target = up;
type = BottomGhost;
}
);
layerId = "FB39A38C-31F6-4F37-9C40-5E842EB56E93";
shapes = (
{
closed = 1;
nodes = (
(504.911,-99,l,{name = n00.1;}),
(532.093,-15.687,l,{name = av01;}),
(570.056,-21.046,o),
(610.016,-23.8,o),
(651.911,-23.8,cs,{name = n03;}),
(1024.961,-23.8,o),
(1246.761,192.4,o),
(1246.761,551.4,cs,{name = n06;}),
(1246.761,820.167,o),
(1116.269,1012.025,o),
(892.507,1088.985,c),
(930.211,1204.55,l,{name = n01;}),
(775.111,1204.55,l),
(747.987,1121.021,l,{name = av02;}),
(717.152,1124.546,o),
(685.11,1126.35,o),
(651.911,1126.35,cs,{name = n09;}),
(287.311,1126.35,o),
(56.761,904.65,o),
(56.761,553.15,cs,{name = n00;}),
(56.761,288.214,o),
(177.124,100.22,o),
(390.391,19.807,c),
(351.811,-99,l)
);
},
{
closed = 1;
nodes = (
(509.252,385.838,l,{name = iv01;}),
(489.914,431.079,o),
(482.311,489.665,o),
(482.311,555.15,cs,{name = n18;}),
(482.311,690.4,o),
(516.323,798.875,o),
(619.091,817.391,cs),
(628.861,819.151,o),
(639.252,820.098,o),
(650.295,820.178,c,{name = n21;})
);
},
{
closed = 1;
nodes = (
(821.261,406.3,o),
(782.061,291.25,o),
(651.811,291.25,cs,{name = n15;}),
(645.145,291.25,o),
(638.73,291.568,o),
(632.532,292.16,c),
(781.584,749.004,l,{name = iv02;}),
(810.082,701.359,o),
(821.261,633.444,o),
(821.261,556.6,cs,{name = n12;})
);
}
);
width = 1342;
},
{
hints = (
{
origin = (2,9);
target = (0,7);
type = Stem;
},
{
horizontal = 1;
origin = (1,6);
target = (0,16);
type = Stem;
},
{
horizontal = 1;
origin = (0,4);
target = up;
type = BottomGhost;
},
{
horizontal = 1;
origin = (0,11);
target = down;
type = TopGhost;
}
);
layerId = "BB5EAC9A-3BFE-4B64-B8A6-57F3EF362270";
shapes = (
{
closed = 1;
nodes = (
(536.837,-95.5,l,{name = n00.1;}),
(561.748,-19.124,l,{name = av01;}),
(584.842,-21.618,o),
(608.598,-22.9,o),
(632.987,-22.9,cs,{name = n03;}),
(961.987,-22.9,o),
(1176.287,208.3,o),
(1176.287,553,cs,{name = n06;}),
(1176.287,783.992,o),
(1077.595,964.862,o),
(913.095,1058.101,c),
(959.687,1200.95,l,{name = n01;}),
(749.137,1200.95,l),
(723.317,1121.412,l,{name = sv01;}),
(694.266,1125.531,o),
(664.128,1127.65,o),
(632.987,1127.65,cs,{name = n09;}),
(308.237,1127.65,o),
(88.487,894.85,o),
(88.487,553.85,cs,{name = n00;}),
(88.487,312.114,o),
(194.232,125.83,o),
(371,36.078,c),
(328.288,-95.5,l)
);
},
{
closed = 1;
nodes = (
(445.526,265.662,l,{name = iv01;}),
(375.286,329.765,o),
(338.787,432.94,o),
(338.787,549.9,cs,{name = n18;}),
(338.787,746.15,o),
(440.387,902.15,o),
(632.437,902.15,cs,{name = n21;}),
(639.054,902.15,o),
(645.554,901.947,o),
(651.956,901.581,c,{name = sv02;})
);
},
{
closed = 1;
nodes = (
(926.137,368.143,o),
(839.759,220.389,o),
(673.533,199.566,cs),
(660.28,197.906,o),
(646.52,197.052,o),
(632.256,197.052,c,{name = n15;}),
(835.039,818.781,l,{name = iv02;}),
(895.08,754.61,o),
(926.137,658.785,o),
(926.137,550.55,cs,{name = n12;})
);
}
);
width = 1288;
},
{
hints = (
{
origin = (0,19);
target = (1,3);
type = Stem;
},
{
origin = (2,9);
target = (0,7);
type = Stem;
},
{
horizontal = 1;
origin = (0,4);
target = (2,2);
type = Stem;
},
{
horizontal = 1;
origin = (1,6);
target = (0,16);
type = Stem;
},
{
horizontal = 1;
origin = (0,11);
target = down;
type = TopGhost;
},
{
horizontal = 1;
origin = (0,0);
target = up;
type = BottomGhost;
}
);
layerId = "6CA6CED3-33C1-4F88-A0AA-B66472516184";
shapes = (
{
closed = 1;
nodes = (
(441.252,-98,l,{name = ab01;}),
(473.037,-0.515,l),
(517.282,-14.543,o),
(564.515,-22,o),
(614.052,-22,cs,{name = dv01;}),
(899.002,-22,o),
(1105.852,224.15,o),
(1105.852,554.6,cs,{name = av06;}),
(1105.852,795.954,o),
(995.492,991.136,o),
(824.966,1078.856,c),
(865.752,1203.95,l,{name = av01.1;}),
(789.752,1203.95,l),
(758.168,1106.623,l),
(713.088,1121.219,o),
(664.819,1129,o),
(614.052,1129,cs,{name = at01;}),
(329.102,1129,o),
(120.152,885.05,o),
(120.152,554.6,cs,{name = av01;}),
(120.152,311.012,o),
(233.702,113.253,o),
(407.526,26.106,c),
(367.252,-98,l,{name = ih01;})
);
},
{
closed = 1;
nodes = (
(428.333,90.223,l),
(282.698,171.885,o),
(195.252,350.328,o),
(195.252,554.7,cs,{name = av01.2;}),
(195.252,837.45,o),
(357.402,1064.1,o),
(613.102,1064.1,cs,{name = dv03;}),
(657.689,1064.1,o),
(699.419,1057.192,o),
(737.95,1044.319,c)
);
},
{
closed = 1;
nodes = (
(1030.952,272,o),
(868.852,42.9,o),
(613.102,42.9,cs,{name = dv02;}),
(570.535,42.9,o),
(530.494,49.459,o),
(493.308,61.656,c),
(804.053,1014.718,l),
(946.777,933.043,o),
(1030.952,758.442,o),
(1030.952,554.7,cs,{name = av06.1;})
);
}
);
width = 1233;
}
);
leftKerningGroup = c2;
rightKerningGroup = b;
unicode = 248;
},
{
color = (153, 255, 154, 255);
glyphname = oe;
rightMetricsKey = e;
layers = (
{
hints = (
{
horizontal = 1;
origin = (0,18);
target = (1,0);
type = Stem;
},
{
horizontal = 1;
origin = (0,29);
target = down;
type = TopGhost;
}
);
layerId = "FB39A38C-31F6-4F37-9C40-5E842EB56E93";
shapes = (
{
closed = 1;
nodes = (
(56.798,194,o),
(277.898,-23.8,o),
(651.898,-23.8,cs,{name = n03;}),
(831.327,-23.8,o),
(975.732,26.214,o),
(1077.342,118.078,c),
(1182.629,23.216,o),
(1327.633,-28.834,o),
(1495.598,-23.4,cs,{name = av01;}),
(1819.699,-12.9,o),
(1992.199,151.95,o),
(2012.049,373.25,c),
(1619.249,373.25,l),
(1619.249,304.2,o),
(1585.649,256.65,o),
(1472.099,256.65,cs),
(1335.849,256.65,o),
(1287.349,354.8,o),
(1288.899,461.85,c,{name = sv01;}),
(2021.699,461.85,l),
(2021.099,504.15,ls),
(2015.499,900,o),
(1820.049,1128.15,o),
(1459.198,1128.15,cs,{name = av03;}),
(1288.843,1128.15,o),
(1160.813,1072.63,o),
(1070.207,987.598,c),
(968.392,1077.03,o),
(825.956,1126.35,o),
(651.898,1126.35,cs,{name = n09;}),
(287.348,1126.35,o),
(56.798,904.65,o),
(56.798,553.15,cs,{name = n00;})
);
},
{
closed = 1;
nodes = (
(1293.499,687.65,l,{name = av02;}),
(1308.549,784.55,o),
(1369.499,851.1,o),
(1471.449,851.1,cs),
(1570.399,851.1,o),
(1628.049,787.25,o),
(1647.049,687.65,c)
);
},
{
closed = 1;
nodes = (
(821.298,406.3,o),
(782.048,291.25,o),
(651.798,291.25,cs,{name = n15;}),
(522.248,291.25,o),
(482.298,405.1,o),
(482.298,555.15,cs,{name = n18;}),
(482.298,703.85,o),
(523.398,820.2,o),
(651.798,820.2,cs,{name = n21;}),
(779.548,820.2,o),
(821.298,705.05,o),
(821.298,556.6,cs,{name = n12;})
);
}
);
width = 2082;
},
{
hints = (
{
horizontal = 1;
origin = (0,2);
target = (2,2);
type = Stem;
},
{
horizontal = 1;
origin = (0,18);
target = (1,0);
type = Stem;
},
{
horizontal = 1;
origin = (2,8);
target = (0,29);
type = Stem;
},
{
horizontal = 1;
origin = (1,3);
target = (0,23);
type = Stem;
}
);
layerId = "BB5EAC9A-3BFE-4B64-B8A6-57F3EF362270";
shapes = (
{
closed = 1;
nodes = (
(88.449,209.1,o),
(303.499,-22.9,o),
(633,-22.9,cs,{name = n03;}),
(825.406,-22.9,o),
(978.542,56.196,o),
(1072.574,190.839,c,{name = iv01;}),
(1168.115,53.89,o),
(1323.036,-24.436,o),
(1513.35,-21.15,cs,{name = sv01;}),
(1793.05,-15.95,o),
(1964.15,130.75,o),
(1996.2,340.55,c),
(1757.95,340.55,l),
(1737.9,255.55,o),
(1657.35,200.05,o),
(1509.65,198.75,cs,{name = sv02;}),
(1329.7,197.1,o),
(1215.45,307.6,o),
(1209.75,487,c,{name = dv03;}),
(2011,487,l),
(2010.75,537.55,ls),
(2009,904.4,o),
(1814.2,1127.65,o),
(1490.4,1127.65,cs,{name = dv02;}),
(1297.326,1127.65,o),
(1155.382,1046.07,o),
(1068.478,918.517,c,{name = iv02;}),
(973.745,1050.075,o),
(821.706,1127.65,o),
(633,1127.65,cs,{name = n09;}),
(308.2,1127.65,o),
(88.45,894.85,o),
(88.449,553.85,cs,{name = n00;})
);
},
{
closed = 1;
nodes = (
(1216,682,l,{name = dv04;}),
(1240.95,817.6,o),
(1348.65,908.35,o),
(1488.05,908.35,cs,{name = dv01;}),
(1631.3,908.35,o),
(1728.45,822.8,o),
(1753.099,682,c)
);
},
{
closed = 1;
nodes = (
(926.099,353.6,o),
(825.449,197.05,o),
(632.449,197.05,cs,{name = n15;}),
(440.949,197.05,o),
(338.799,354.2,o),
(338.799,549.9,cs,{name = n18;}),
(338.799,746.15,o),
(440.399,902.15,o),
(632.449,902.15,cs,{name = n21;}),
(824.199,902.15,o),
(926.099,746.7,o),
(926.099,550.55,cs,{name = n12;})
);
}
);
width = 2101;
},
{
hints = (
{
origin = (0,32);
target = (2,5);
type = Stem;
},
{
origin = (2,11);
target = (1,0);
type = Stem;
},
{
origin = (1,6);
target = (0,20);
type = Stem;
},
{
horizontal = 1;
origin = (0,2);
target = (2,2);
type = Stem;
},
{
horizontal = 1;
origin = (0,8);
target = (0,15);
type = Stem;
},
{
horizontal = 1;
origin = (0,18);
target = (1,0);
type = Stem;
},
{
horizontal = 1;
origin = (2,8);
target = (0,29);
type = Stem;
}
);
layerId = "6CA6CED3-33C1-4F88-A0AA-B66472516184";
shapes = (
{
closed = 1;
nodes = (
(120.15,224.15,o),
(329.1,-22,o),
(614.05,-22,cs,{name = dv01;}),
(840.578,-22,o),
(1017.725,133.564,o),
(1080.852,363.375,c,{name = ih01;}),
(1140.798,125.966,o),
(1311.884,-16.95,o),
(1550.25,-16.95,cs,{name = dv00;}),
(1786.1,-16.95,o),
(1955.75,111.75,o),
(1999.85,310.1,c),
(1934.55,310.1,l),
(1893.45,149.25,o),
(1756.75,47.75,o),
(1557.2,47.75,cs,{name = dv04;}),
(1303.6,47.75,o),
(1134.95,235.4,o),
(1130.6,553.5,c,{name = av06;}),
(2019.8,553.5,l),
(2019.8,591.15,ls,{name = dh02;}),
(2019.8,917.65,o),
(1827.75,1129,o),
(1540.75,1129,cs,{name = sv01;}),
(1308.538,1129,o),
(1136.706,991.427,o),
(1078.755,753.108,c,{name = ih02;}),
(1013.853,978.193,o),
(838.092,1129,o),
(614.05,1129,cs,{name = at01;}),
(329.1,1129,o),
(120.15,885.05,o),
(120.15,554.6,cs,{name = av01;})
);
},
{
closed = 1;
nodes = (
(1130.95,618.55,l,{name = dv05;}),
(1144.5,883.2,o),
(1320.5,1064.35,o),
(1539.7,1064.35,cs,{name = sv02;}),
(1769.7,1064.35,o),
(1934.1,895.9,o),
(1947.35,618.55,c,{name = dh01;})
);
},
{
closed = 1;
nodes = (
(1030.95,272,o),
(868.85,42.9,o),
(613.1,42.9,cs,{name = dv02;}),
(359.65,42.9,o),
(195.25,274.45,o),
(195.25,554.7,cs,{name = av01.1;}),
(195.25,837.45,o),
(357.4,1064.1,o),
(613.1,1064.1,cs,{name = dv03;}),
(868.85,1064.1,o),
(1030.95,837.45,o),
(1030.95,554.7,cs,{name = av06.1;})
);
}
);
width = 2137;
}
);
leftKerningGroup = c2;
rightKerningGroup = e;
unicode = 339;
},
{
glyphname = p;
layers = (
{
hints = (
{
horizontal = 1;
origin = (0,12);
target = down;
type = TopGhost;
},
{
horizontal = 1;
origin = (0,5);
target = up;
type = BottomGhost;
},
{
horizontal = 1;
origin = (0,0);
target = up;
type = BottomGhost;
}
);
layerId = "FB39A38C-31F6-4F37-9C40-5E842EB56E93";
shapes = (
{
closed = 1;
nodes = (
(537.4,-402.2,l,{name = av03;}),
(537.4,181.2,l),
(555.2,181.2,l),
(589.95,24.25,o),
(690.8,-22.3,o),
(863.85,-22.3,cs,{name = av02;}),
(1146,-22.3,o),
(1234.15,211.15,o),
(1234.15,467.9,cs),
(1234.15,600.6,ls),
(1234.15,880.5,o),
(1145.7,1129.8,o),
(854.15,1129.8,cs,{name = av01;}),
(687,1129.8,o),
(584.15,1097.85,o),
(555.2,923.25,c),
(537.4,923.25,l),
(537.4,1104.6,l),
(126.8,1104.6,l),
(126.8,-402.2,l)
);
},
{
closed = 1;
nodes = (
(770.55,855.3,o),
(806.05,761.05,o),
(806.05,629.4,cs,{name = iv00;}),
(806.05,472.1,ls,{name = iv03;}),
(806.05,346.45,o),
(769.85,261.75,o),
(673.2,261.75,cs),
(587.65,261.75,o),
(544.95,333.55,o),
(537.4,446.05,c,{name = iv02;}),
(537.4,659.2,l,{name = iv01;}),
(540.2,767.05,o),
(583.3,855.3,o),
(674.85,855.3,cs)
);
}
);
width = 1330;
},
{
hints = (
{
origin = (0,18);
target = (0,17);
type = Stem;
},
{
horizontal = 1;
origin = (0,5);
target = (1,6);
type = Stem;
},
{
horizontal = 1;
origin = (1,13);
target = (0,12);
type = Stem;
},
{
horizontal = 1;
origin = (0,17);
target = down;
type = TopGhost;
},
{
horizontal = 1;
origin = (0,0);
target = up;
type = BottomGhost;
}
);
layerId = "BB5EAC9A-3BFE-4B64-B8A6-57F3EF362270";
shapes = (
{
closed = 1;
nodes = (
(375.075,-412.3,l,{name = n00;}),
(375.075,227.9,l),
(387.475,227.9,l),
(427.575,60.725,o),
(547.525,-22.775,o),
(720.725,-22.775,cs,{name = dv03;}),
(996.6,-22.775,o),
(1111.45,168.875,o),
(1111.45,448.575,cs),
(1111.45,662.475,ls),
(1111.45,938.425,o),
(1003.025,1129.2,o),
(715.875,1129.2,cs,{name = dv02;}),
(548.55,1129.2,o),
(422.375,1063.4,o),
(387.975,879.425,c),
(375.075,879.425,l),
(375.075,1105.6,l,{name = av01;}),
(131.775,1105.6,l),
(131.775,-412.3,l)
);
},
{
closed = 1;
nodes = (
(793.375,960.45,o),
(858.9,848.25,o),
(858.9,674,cs),
(858.9,452.5,ls),
(858.9,264.625,o),
(789.55,150.75,o),
(625.4,150.75,cs,{name = dv04;}),
(483.825,150.75,o),
(396.775,283.525,o),
(375.075,431.475,c),
(375.075,673.025,l),
(382.6,829.325,o),
(470.55,960.45,o),
(626.225,960.45,cs,{name = dv01;})
);
}
);
width = 1243;
},
{
hints = (
{
origin = (0,18);
target = (0,17);
type = Stem;
},
{
origin = (1,2);
target = (0,9);
type = Stem;
},
{
horizontal = 1;
origin = (0,5);
target = (1,6);
type = Stem;
},
{
horizontal = 1;
origin = (1,13);
target = (0,12);
type = Stem;
},
{
horizontal = 1;
origin = (0,17);
target = down;
type = TopGhost;
},
{
horizontal = 1;
origin = (0,19);
target = up;
type = BottomGhost;
}
);
layerId = "6CA6CED3-33C1-4F88-A0AA-B66472516184";
shapes = (
{
closed = 1;
nodes = (
(210.75,-422.4,l,{name = av01;}),
(210.75,274.6,l),
(217.75,274.6,l,{name = sh02;}),
(263.2,97.2,o),
(402.25,-23.25,o),
(575.6,-23.25,cs,{name = dv04;}),
(845.2,-23.25,o),
(986.75,126.6,o),
(986.75,429.25,cs),
(986.75,724.35,ls,{name = sh03;}),
(986.75,996.35,o),
(858.35,1128.6,o),
(575.6,1128.6,cs,{name = dv01;}),
(408.1,1128.6,o),
(258.6,1028.95,o),
(218.75,835.6,c,{name = sh04;}),
(210.75,835.6,l),
(210.75,1106.6,l,{name = ab01;}),
(136.75,1106.6,l,{name = sh01;}),
(136.75,-422.4,l)
);
},
{
closed = 1;
nodes = (
(814.2,1065.6,o),
(909.75,935.45,o),
(909.75,718.6,cs,{name = sh05;}),
(909.75,432.9,ls),
(909.75,182.8,o),
(807.25,39.75,o),
(575.6,39.75,cs,{name = dv03;}),
(378,39.75,o),
(246.6,233.5,o),
(210.75,416.9,c,{name = iv02;}),
(210.75,686.85,l,{name = iv01;}),
(223,891.6,o),
(355.8,1065.6,o),
(575.6,1065.6,cs,{name = dv02;})
);
}
);
width = 1156;
}
);
leftKerningGroup = m;
rightKerningGroup = b;
unicode = 112;
},
{
color = (153, 254, 255, 255);
glyphname = thorn;
layers = (
{
hints = (
{
horizontal = 1;
origin = (0,12);
target = up;
type = BottomGhost;
},
{
horizontal = 1;
origin = (0,17);
target = up;
type = BottomGhost;
},
{
horizontal = 1;
origin = (0,0);
target = down;
type = TopGhost;
}
);
layerId = "FB39A38C-31F6-4F37-9C40-5E842EB56E93";
shapes = (
{
closed = 1;
nodes = (
(536.95,1519.25,l,{name = av03;}),
(536.95,935.85,l),
(554.75,935.85,l),
(589.5,1092.8,o),
(690.35,1139.35,o),
(863.4,1139.35,cs,{name = av02;}),
(1145.55,1139.35,o),
(1233.7,905.9,o),
(1233.7,649.15,cs),
(1233.7,516.45,ls),
(1233.7,236.55,o),
(1145.25,-12.75,o),
(853.7,-12.75,cs,{name = av01;}),
(686.55,-12.75,o),
(583.7,19.2,o),
(554.75,193.8,c),
(536.95,193.8,l),
(536.95,-370.723,l,{name = av04;}),
(126.35,-370.723,l),
(126.35,1519.25,l)
);
},
{
closed = 1;
nodes = (
(770.1,261.75,o),
(805.6,356,o),
(805.6,487.65,cs,{name = iv00;}),
(805.6,644.95,ls,{name = iv03;}),
(805.6,770.6,o),
(769.4,855.3,o),
(672.75,855.3,cs),
(587.15,855.3,o),
(544.5,783.5,o),
(536.95,671,c,{name = iv02;}),
(536.95,457.85,l,{name = iv01;}),
(539.75,350,o),
(582.85,261.75,o),
(674.4,261.75,cs)
);
}
);
width = 1330;
},
{
hints = (
{
origin = (0,18);
target = (0,17);
type = Stem;
},
{
horizontal = 1;
origin = (0,12);
target = (1,13);
type = Stem;
},
{
horizontal = 1;
origin = (1,6);
target = (0,5);
type = Stem;
},
{
horizontal = 1;
origin = (0,17);
target = up;
type = BottomGhost;
},
{
horizontal = 1;
origin = (0,0);
target = down;
type = TopGhost;
}
);
layerId = "BB5EAC9A-3BFE-4B64-B8A6-57F3EF362270";
shapes = (
{
closed = 1;
nodes = (
(373.925,1524.375,l,{name = av01;}),
(373.925,884.175,l),
(386.325,884.175,l),
(426.425,1051.35,o),
(546.375,1134.85,o),
(719.575,1134.85,cs,{name = dv04;}),
(995.45,1134.85,o),
(1110.3,943.2,o),
(1110.3,663.5,cs,{name = n08;}),
(1110.3,449.6,ls),
(1110.3,173.65,o),
(1001.875,-17.125,o),
(714.725,-17.125,cs,{name = dv01;}),
(547.4,-17.125,o),
(421.225,48.675,o),
(386.825,232.65,c),
(373.925,232.65,l),
(373.925,-370.111,l,{name = n17;}),
(131.625,-370.111,l,{name = n18;}),
(131.625,1524.375,l)
);
},
{
closed = 1;
nodes = (
(792.225,151.625,o),
(857.75,263.825,o),
(857.75,438.075,cs),
(857.75,659.575,ls,{name = n24;}),
(857.75,847.45,o),
(788.4,961.325,o),
(624.25,961.325,cs,{name = dv03;}),
(482.625,961.325,o),
(395.625,828.525,o),
(373.925,680.6,c),
(373.925,439.05,l),
(381.425,282.725,o),
(469.4,151.625,o),
(625.075,151.625,cs,{name = dv02;})
);
}
);
width = 1236;
},
{
hints = (
{
origin = (0,18);
target = (0,17);
type = Stem;
},
{
origin = (1,6);
target = (0,9);
type = Stem;
},
{
horizontal = 1;
origin = (0,12);
target = (1,3);
type = Stem;
},
{
horizontal = 1;
origin = (1,10);
target = (0,5);
type = Stem;
},
{
horizontal = 1;
origin = (0,17);
target = up;
type = BottomGhost;
}
);
layerId = "6CA6CED3-33C1-4F88-A0AA-B66472516184";
shapes = (
{
closed = 1;
nodes = (
(210.9,1529.5,l,{name = av01;}),
(210.9,832.5,l),
(217.9,832.5,l,{name = sh02;}),
(263.35,1009.9,o),
(402.4,1130.35,o),
(575.75,1130.35,cs,{name = dv04;}),
(845.35,1130.35,o),
(986.9,980.5,o),
(986.9,677.85,cs),
(986.9,382.75,ls,{name = sh03;}),
(986.9,110.75,o),
(858.5,-21.5,o),
(575.75,-21.5,cs,{name = dv01;}),
(408.25,-21.5,o),
(258.75,78.15,o),
(218.9,271.5,c,{name = sh04;}),
(210.9,271.5,l),
(210.9,-369.5,l,{name = ab01;}),
(136.9,-369.5,l,{name = sh01;}),
(136.9,1529.5,l)
);
},
{
closed = 1;
nodes = (
(210.9,420.25,l,{name = iv01;}),
(223.1,215.45,o),
(355.95,41.5,o),
(575.75,41.5,cs,{name = dv02;}),
(814.35,41.5,o),
(909.9,171.65,o),
(909.9,388.5,cs,{name = sh05;}),
(909.9,674.2,ls),
(909.9,924.3,o),
(807.4,1067.35,o),
(575.75,1067.35,cs,{name = dv03;}),
(378.1,1067.35,o),
(246.75,873.55,o),
(210.9,690.2,c,{name = iv02;})
);
}
);
width = 1142;
}
);
leftKerningGroup = b2;
rightKerningGroup = b;
unicode = 254;
},
{
glyphname = q;
layers = (
{
hints = (
{
horizontal = 1;
origin = (0,12);
target = down;
type = TopGhost;
},
{
horizontal = 1;
origin = (0,5);
target = up;
type = BottomGhost;
},
{
horizontal = 1;
origin = (0,0);
target = up;
type = BottomGhost;
}
);
layerId = "FB39A38C-31F6-4F37-9C40-5E842EB56E93";
shapes = (
{
closed = 1;
nodes = (
(793.575,-402.2,l,{name = av03;}),
(793.575,181.2,l),
(775.775,181.2,l),
(741.025,24.25,o),
(640.175,-22.3,o),
(467.125,-22.3,cs,{name = av02;}),
(184.975,-22.3,o),
(96.825,211.15,o),
(96.825,467.9,cs),
(96.825,600.6,ls),
(96.825,880.5,o),
(185.275,1129.8,o),
(476.825,1129.8,cs,{name = av01;}),
(643.975,1129.8,o),
(746.825,1097.85,o),
(775.775,923.25,c),
(793.575,923.25,l),
(793.575,1104.6,l),
(1204.175,1104.6,l),
(1204.175,-402.2,l)
);
},
{
closed = 1;
nodes = (
(560.425,855.3,o),
(524.925,761.05,o),
(524.925,629.4,cs,{name = iv00;}),
(524.925,472.1,ls,{name = iv03;}),
(524.925,346.45,o),
(561.125,261.75,o),
(657.775,261.75,cs),
(743.375,261.75,o),
(786.075,333.55,o),
(793.575,446.05,c,{name = iv02;}),
(793.575,659.2,l,{name = iv01;}),
(790.825,767.05,o),
(747.675,855.3,o),
(656.125,855.3,cs)
);
}
);
width = 1331;
},
{
hints = (
{
origin = (0,0);
target = (0,19);
type = Stem;
},
{
horizontal = 1;
origin = (0,5);
target = (1,6);
type = Stem;
},
{
horizontal = 1;
origin = (1,13);
target = (0,12);
type = Stem;
},
{
horizontal = 1;
origin = (0,17);
target = down;
type = TopGhost;
},
{
horizontal = 1;
origin = (0,0);
target = up;
type = BottomGhost;
}
);
layerId = "BB5EAC9A-3BFE-4B64-B8A6-57F3EF362270";
shapes = (
{
closed = 1;
nodes = (
(868.188,-412.3,l,{name = av01;}),
(868.188,227.9,l),
(855.788,227.9,l),
(815.688,60.725,o),
(695.913,-22.775,o),
(522.966,-22.775,cs,{name = n05;}),
(247.495,-22.775,o),
(132.813,168.875,o),
(132.813,448.575,cs),
(132.813,662.475,ls),
(132.813,938.425,o),
(241.08,1129.2,o),
(527.813,1129.2,cs,{name = n12;}),
(694.896,1129.2,o),
(820.888,1063.4,o),
(855.288,879.425,c),
(868.188,879.425,l),
(868.188,1105.6,l,{name = av02;}),
(1111.488,1105.6,l),
(1111.488,-412.3,l)
);
},
{
closed = 1;
nodes = (
(450.75,960.45,o),
(385.363,848.25,o),
(385.363,674,cs),
(385.363,452.5,ls),
(385.363,264.625,o),
(454.562,150.75,o),
(618.357,150.75,cs,{name = n27;}),
(759.651,150.75,o),
(846.488,283.525,o),
(868.188,431.475,c),
(868.188,673.025,ls),
(868.188,829.505,o),
(772.872,960.45,o),
(617.549,960.45,cs,{name = n20;})
);
}
);
width = 1293;
},
{
hints = (
{
origin = (0,8);
target = (1,3);
type = Stem;
},
{
origin = (0,0);
target = (0,19);
type = Stem;
},
{
horizontal = 1;
origin = (0,5);
target = (1,6);
type = Stem;
},
{
horizontal = 1;
origin = (1,13);
target = (0,12);
type = Stem;
},
{
horizontal = 1;
origin = (0,17);
target = down;
type = TopGhost;
},
{
horizontal = 1;
origin = (0,19);
target = up;
type = BottomGhost;
}
);
layerId = "6CA6CED3-33C1-4F88-A0AA-B66472516184";
shapes = (
{
closed = 1;
nodes = (
(944.8,-422.4,l,{name = av01;}),
(944.8,274.6,l),
(937.8,274.6,l,{name = sh02;}),
(892.35,97.2,o),
(753.3,-23.25,o),
(579.95,-23.25,cs,{name = dv04;}),
(310.35,-23.25,o),
(168.8,126.6,o),
(168.8,429.25,cs,{name = sh03;}),
(168.8,724.35,ls),
(168.8,996.35,o),
(297.2,1128.6,o),
(579.95,1128.6,cs,{name = dv01;}),
(747.45,1128.6,o),
(896.95,1028.95,o),
(936.8,835.6,c,{name = sh04;}),
(944.8,835.6,l),
(944.8,1106.6,l,{name = ab01;}),
(1018.8,1106.6,l),
(1018.8,-422.4,l,{name = sh01;})
);
},
{
closed = 1;
nodes = (
(341.35,1065.6,o),
(245.8,935.45,o),
(245.8,718.6,cs),
(245.8,432.9,ls,{name = sh05;}),
(245.8,182.8,o),
(348.3,39.75,o),
(579.95,39.75,cs,{name = dv03;}),
(777.55,39.75,o),
(908.9,233.5,o),
(944.8,416.9,c,{name = iv02;}),
(944.8,686.85,l,{name = iv01;}),
(932.55,891.6,o),
(799.7,1065.6,o),
(579.95,1065.6,cs,{name = dv02;})
);
}
);
width = 1255;
}
);
leftKerningGroup = c2;
unicode = 113;
},
{
glyphname = r;
layers = (
{
hints = (
{
horizontal = 1;
origin = (0,1);
target = up;
type = BottomGhost;
},
{
horizontal = 1;
origin = (0,0);
target = down;
type = TopGhost;
},
{
horizontal = 1;
origin = (0,13);
target = down;
type = TopGhost;
}
);
layerId = "FB39A38C-31F6-4F37-9C40-5E842EB56E93";
shapes = (
{
closed = 1;
nodes = (
(126.394,1106.001,l,{name = av02;}),
(126.394,0.001,l,{name = ab01;}),
(537.494,0.001,l),
(537.494,477.573,ls),
(537.494,659.829,o),
(647.678,765.323,o),
(840.828,765.323,cs),
(901.556,765.323,o),
(965.561,755.229,o),
(1023.633,739.101,c,{name = iv01;}),
(1023.633,1104.112,l,{name = av03;}),
(977.567,1118.823,o),
(926.428,1126.001,o),
(872.856,1126.001,cs,{name = av01;}),
(709.794,1126.001,o),
(594.672,1041.034,o),
(559.328,894.823,c),
(537.494,894.823,l),
(537.494,1106.001,l)
);
}
);
width = 1053;
},
{
hints = (
{
origin = (0,0);
target = (0,18);
type = Stem;
},
{
horizontal = 1;
origin = (0,6);
target = (0,13);
type = Stem;
},
{
horizontal = 1;
origin = (0,1);
target = up;
type = BottomGhost;
},
{
horizontal = 1;
origin = (0,0);
target = down;
type = TopGhost;
}
);
layerId = "BB5EAC9A-3BFE-4B64-B8A6-57F3EF362270";
shapes = (
{
closed = 1;
nodes = (
(157.672,1106.001,l,{name = n00;}),
(157.672,0.001,l,{name = n01;}),
(401.172,0.001,l),
(401.172,590.662,ls),
(401.172,780.339,o),
(522.889,906.812,o),
(705.639,906.812,cs,{name = n06;}),
(759.278,906.812,o),
(810.506,898.739,o),
(860.267,884.101,c,{name = iv01;}),
(860.267,1105.556,l,{name = av01;}),
(818.533,1118.486,o),
(775.239,1124.101,o),
(724.178,1124.101,cs,{name = n13;}),
(569.272,1124.101,o),
(456.061,1040.617,o),
(416.139,898.712,c,{name = sv01;}),
(401.172,898.712,l),
(401.172,1106.001,l,{name = n18;})
);
}
);
width = 922;
},
{
hints = (
{
origin = (0,0);
target = (0,18);
type = Stem;
},
{
horizontal = 1;
origin = (0,6);
target = (0,13);
type = Stem;
},
{
horizontal = 1;
origin = (0,1);
target = up;
type = BottomGhost;
},
{
horizontal = 1;
origin = (0,0);
target = down;
type = TopGhost;
}
);
layerId = "6CA6CED3-33C1-4F88-A0AA-B66472516184";
shapes = (
{
closed = 1;
nodes = (
(188.95,1106,l,{name = av01;}),
(188.95,0,l,{name = ab01;}),
(263.85,0,l,{name = sh01;}),
(263.85,703.75,ls),
(263.85,900.85,o),
(397.1,1048.3,o),
(569.45,1048.3,cs,{name = dv01;}),
(616,1048.3,o),
(654.45,1042.25,o),
(695.9,1029.1,c,{name = iv01;}),
(695.9,1107,l,{name = av02;}),
(658.5,1118.15,o),
(623.05,1122.2,o),
(574.5,1122.2,cs,{name = dv02;}),
(427.75,1122.2,o),
(316.45,1040.2,o),
(271.95,902.6,c),
(263.85,902.6,l),
(263.85,1106,l,{name = dh01;})
);
}
);
width = 803;
}
);
leftKerningGroup = m;
rightKerningGroup = r;
unicode = 114;
},
{
glyphname = s;
layers = (
{
hints = (
{
horizontal = 1;
origin = (0,9);
target = up;
type = BottomGhost;
},
{
horizontal = 1;
origin = (0,29);
target = down;
type = TopGhost;
}
);
layerId = "FB39A38C-31F6-4F37-9C40-5E842EB56E93";
shapes = (
{
closed = 1;
nodes = (
(710.95,270.5,o),
(658.7,243.55,o),
(593.65,243.55,cs),
(491.2,243.55,o),
(420.,280,o),
(396.65,384.75,c),
(49.45,384.75,l),
(75.8,93.3,o),
(317.55,-24,o),
(574.9,-24,cs,{name = av01;}),
(890.7,-24,o),
(1101.9,123.75,o),
(1101.9,361.35,cs),
(1101.9,528.05,o),
(998.,621.8,o),
(766.85,665.8,cs),
(572.65,702.75,ls),
(475.45,721.25,o),
(448.3,744.65,o),
(448.3,783.6,cs),
(448.3,830.5,o),
(512.8,858.5,o),
(573.9,858.5,cs),
(666.9,858.5,o),
(727.7,833.6,o),
(748.9,729.05,c),
(1102.75,729.05,l),
(1071.7,1001,o),
(840.95,1126,o),
(582.55,1126,cs,{name = av02;}),
(274.7,1126,o),
(87.75,988.25,o),
(87.75,759.65,cs),
(87.75,553.4,o),
(267.05,469.05,o),
(436.35,432.2,cs),
(605.85,395.3,ls),
(683.,378.5,o),
(710.95,354.35,o),
(710.95,314.4,cs)
);
}
);
width = 1172;
},
{
hints = (
{
origin = (0,32);
target = (0,19);
type = Stem;
},
{
origin = (0,39);
target = (0,12);
type = Stem;
},
{
horizontal = 1;
origin = (0,9);
target = (0,2);
type = Stem;
},
{
horizontal = 1;
origin = (0,22);
target = (0,29);
type = Stem;
}
);
layerId = "BB5EAC9A-3BFE-4B64-B8A6-57F3EF362270";
shapes = (
{
closed = 1;
nodes = (
(788.7,211.95,o),
(672.074,182.962,o),
(563.225,184.225,cs,{name = n03;}),
(418.443,185.905,o),
(309.625,248.671,o),
(287.075,382.45,c),
(57.625,382.4,l),
(81.275,96.65,o),
(303.15,-23.675,o),
(558.525,-23.675,cs,{name = n10;}),
(817.275,-23.675,o),
(1031.575,60.296,o),
(1031.575,311.443,cs,{name = n13;}),
(1031.575,498.3,o),
(907.344,589.497,o),
(712.252,638.37,cs),
(494.525,692.914,ls),
(395.991,717.598,o),
(331.85,743.245,o),
(331.85,805.742,cs),
(331.85,889.448,o),
(441.43,919.25,o),
(541.627,919.25,cs,{name = n23;}),
(667.65,919.25,o),
(755.93,887.336,o),
(782.4,783.425,c),
(1015.25,783.425,l),
(989.782,1022.775,o),
(774.875,1127.5,o),
(544.05,1127.5,cs,{name = n30;}),
(288.875,1127.5,o),
(91.375,1020.638,o),
(91.375,798.661,cs),
(91.375,609.977,o),
(248.235,528.181,o),
(394.213,496,cs),
(594.825,451.775,ls),
(694.957,429.701,o),
(788.7,396.322,o),
(788.7,308.65,cs,{name = n00;})
);
}
);
width = 1112;
},
{
hints = (
{
origin = (0,32);
target = (0,19);
type = Stem;
},
{
origin = (0,39);
target = (0,12);
type = Stem;
},
{
horizontal = 1;
origin = (0,9);
target = (0,2);
type = Stem;
},
{
horizontal = 1;
origin = (0,22);
target = (0,29);
type = Stem;
}
);
layerId = "6CA6CED3-33C1-4F88-A0AA-B66472516184";
shapes = (
{
closed = 1;
nodes = (
(903.45,93.4,o),
(702.45,42.5,o),
(549.8,44.9,cs,{name = dv02;}),
(339.85,48.2,o),
(176.25,162.85,o),
(154.5,380.15,c),
(82.8,380.05,l),
(103.75,100,o),
(305.75,-23.35,o),
(559.15,-23.35,cs,{name = dv01;}),
(760.85,-23.35,o),
(978.25,51.65,o),
(978.25,304.9,cs),
(978.25,503.4,o),
(830.8,581.8,o),
(656.4,618.65,cs),
(402.7,672.25,ls),
(295.15,695,o),
(192.4,744.8,o),
(192.4,858.2,cs),
(192.4,1015.35,o),
(367.151,1060,o),
(524.813,1060,cs,{name = dv03;}),
(690.433,1060,o),
(840.553,994.322,o),
(872.9,837.8,c),
(944.75,837.8,l),
(924.864,1044.55,o),
(725.8,1129,o),
(522.55,1129,cs,{name = dv04;}),
(320.05,1129,o),
(112,1060.2,o),
(112,859.75,cs),
(112,701.3,o),
(255.6,627.55,o),
(386.7,599.8,cs),
(630.1,548.25,ls),
(759.05,520.95,o),
(903.45,467.3,o),
(903.45,302.9,cs)
);
}
);
width = 1054;
}
);
leftKerningGroup = s2;
rightKerningGroup = s;
unicode = 115;
},
{
color = (153, 254, 255, 255);
glyphname = germandbls;
layers = (
{
hints = (
{
horizontal = 1;
origin = (0,4);
target = down;
type = TopGhost;
},
{
horizontal = 1;
origin = (0,17);
target = up;
type = BottomGhost;
}
);
layerId = "FB39A38C-31F6-4F37-9C40-5E842EB56E93";
shapes = (
{
closed = 1;
nodes = (
(136.333,0,l,{name = n00;}),
(136.333,1001.561,ls),
(136.333,1265.982,o),
(312.281,1532,o),
(777.941,1532,cs,{name = n04;}),
(1153.048,1532,o),
(1379,1339.737,o),
(1379,1097.207,cs,{name = n07;}),
(1379,985.279,o),
(1358.223,839.327,o),
(1108.667,794.778,c),
(1108.667,780.444,l),
(1358.223,737.024,o),
(1481.667,628.697,o),
(1481.667,415.19,cs,{name = n14;}),
(1481.667,170.218,o),
(1269.201,-21.444,o),
(898.704,-21.444,cs,{name = n17;}),
(820.498,-21.444,o),
(747.02,-17.556,o),
(674.111,-2.111,c,{name = ab01;}),
(674.111,349.556,l,{name = iv01;}),
(721.196,323.444,o),
(754.87,313.222,o),
(805.714,313.222,cs,{name = n24;}),
(905.078,313.222,o),
(957,374.461,o),
(957,445,cs,{name = n27;}),
(957,625.142,o),
(776.624,607.282,o),
(675.778,607.556,c,{name = dv01;}),
(675.778,878,l,{name = dv02;}),
(821.738,882.327,o),
(929,913.759,o),
(929,1058.434,cs,{name = n34;}),
(929,1135.961,o),
(868.016,1180.46,o),
(756.726,1180.46,cs,{name = n37;}),
(610.939,1180.46,o),
(560.222,1065.184,o),
(560.222,929.289,cs),
(560.222,0,l,{name = n41;})
);
}
);
width = 1576;
},
{
hints = (
{
horizontal = 1;
origin = (0,17);
target = (0,24);
type = Stem;
},
{
horizontal = 1;
origin = (0,37);
target = (0,4);
type = Stem;
},
{
horizontal = 1;
origin = (0,0);
target = up;
type = BottomGhost;
}
);
layerId = "BB5EAC9A-3BFE-4B64-B8A6-57F3EF362270";
shapes = (
{
closed = 1;
nodes = (
(161.667,0,l,{name = n00;}),
(161.667,1016.78,ls),
(161.667,1295.991,o),
(327.641,1519,o),
(693.47,1519,cs,{name = n04;}),
(986.024,1519,o),
(1187.5,1361.254,o),
(1187.5,1125.14,cs,{name = n07;}),
(1187.5,977.986,o),
(1128.111,806.182,o),
(905.833,766.889,c),
(905.833,754.722,l,{name = n11;}),
(1128.111,742.012,o),
(1292.833,621.022,o),
(1292.833,395.033,cs,{name = n14;}),
(1292.833,145.124,o),
(1096.101,-16.722,o),
(799.352,-16.722,cs,{name = n17;}),
(734.749,-16.722,o),
(674.01,-13.278,o),
(614.556,-0.056,c,{name = ab01;}),
(614.556,210.778,l),
(662.642,192.222,o),
(703.502,185.111,o),
(752.424,185.111,cs,{name = n24;}),
(884.617,185.111,o),
(991,260.23,o),
(991,408,cs,{name = n27;}),
(991,635.571,o),
(791.586,645.141,o),
(641.389,645.778,c,{name = n30;}),
(641.389,814,l),
(794.97,827.682,o),
(926,917.88,o),
(926,1098.717,cs,{name = n34;}),
(926,1243.481,o),
(817.531,1308.23,o),
(682.84,1308.23,cs,{name = n37;}),
(496.72,1308.23,o),
(412.611,1173.092,o),
(412.611,988.645,cs),
(412.611,0,l,{name = n41;})
);
}
);
width = 1401;
},
{
hints = (
{
origin = (0,0);
target = (0,41);
type = Stem;
},
{
origin = (0,34);
target = (0,7);
type = Stem;
},
{
origin = (0,27);
target = (0,14);
type = Stem;
},
{
horizontal = 1;
origin = (0,17);
target = (0,24);
type = Stem;
},
{
horizontal = 1;
origin = (0,37);
target = (0,4);
type = Stem;
},
{
horizontal = 1;
origin = (0,0);
target = up;
type = BottomGhost;
}
);
layerId = "6CA6CED3-33C1-4F88-A0AA-B66472516184";
shapes = (
{
closed = 1;
nodes = (
(187,0,l,{name = ab01;}),
(187,1032,ls),
(187,1326,o),
(343,1506,o),
(609,1506,cs,{name = dv02;}),
(819,1506,o),
(996,1382.771,o),
(996,1153.073,cs,{name = dh03;}),
(996,970.694,o),
(898,773.036,o),
(703,739,c),
(703,729,l,{name = dv04;}),
(898,747,o),
(1104,613.347,o),
(1104,374.876,cs,{name = sh01;}),
(1104,120.029,o),
(923,-12,o),
(700,-12,cs,{name = ab02;}),
(649,-12,o),
(601,-9,o),
(555,2,c,{name = ab03;}),
(555,72,l),
(604.089,61,o),
(652.133,57,o),
(699.133,57,cs,{name = sv01;}),
(864.156,57,o),
(1025,146,o),
(1025,371,cs,{name = sh02;}),
(1025,646,o),
(806.548,683,o),
(607,684,c,{name = dv03;}),
(607,750,l),
(768.203,773.036,o),
(923,922,o),
(923,1139,cs,{name = dh02;}),
(923,1351,o),
(767.045,1436,o),
(608.955,1436,cs,{name = dv01;}),
(382.5,1436,o),
(265,1281,o),
(265,1048,cs),
(265,0,l,{name = dh01;})
);
}
);
width = 1225;
}
);
leftKerningGroup = b2;
rightKerningGroup = b;
unicode = 223;
},
{
glyphname = t;
layers = (
{
hints = (
{
horizontal = 1;
origin = (0,17);
target = up;
type = BottomGhost;
},
{
horizontal = 1;
origin = (0,8);
target = down;
type = TopGhost;
}
);
layerId = "FB39A38C-31F6-4F37-9C40-5E842EB56E93";
shapes = (
{
closed = 1;
nodes = (
(809.061,349.978,ls),
(779.061,349.978,o),
(759.061,369.977,o),
(759.061,399.977,cs),
(759.061,755.181,l),
(1205.414,755.181,l),
(1205.414,1105.181,l),
(757.358,1105.181,l),
(757.358,1443.978,l,{name = av01;}),
(349.061,1443.978,l),
(349.061,1105.181,l),
(16.364,1105.181,l),
(16.364,755.181,l),
(349.061,755.181,l),
(349.061,299.979,ls),
(349.061,119.979,o),
(469.061,-0.021,o),
(649.061,-0.021,cs,{name = ab01;}),
(1211.984,-0.022,l,{name = n00;}),
(1211.984,349.978,l)
);
}
);
width = 1286;
},
{
hints = (
{
origin = (0,9);
target = (0,4);
type = Stem;
},
{
horizontal = 1;
origin = (0,18);
target = (0,19);
type = Stem;
},
{
horizontal = 1;
origin = (0,12);
target = (0,11);
type = Stem;
},
{
horizontal = 1;
origin = (0,8);
target = down;
type = TopGhost;
}
);
layerId = "BB5EAC9A-3BFE-4B64-B8A6-57F3EF362270";
shapes = (
{
closed = 1;
nodes = (
(602.229,208.655,l,{name = sv01;}),
(578.229,208.655,o),
(562.229,224.655,o),
(562.229,248.655,cs),
(562.229,896.85,l,{name = n04;}),
(974.068,896.85,l),
(974.068,1106.85,l,{name = av01;}),
(561.377,1106.85,l,{name = n07;}),
(561.377,1444.098,l,{name = n08;}),
(319.303,1444.098,l,{name = n09;}),
(319.303,1106.85,l,{name = sv02;}),
(21.821,1106.85,l,{name = sv04;}),
(21.821,896.85,l,{name = sv03;}),
(319.303,896.85,l),
(319.303,198.36,ls),
(319.303,79.403,o),
(398.608,0.099,o),
(517.564,0.099,cs,{name = ab01;}),
(970.918,0.098,l,{name = n18;}),
(970.918,208.655,l,{name = n19;})
);
}
);
width = 1049;
},
{
hints = (
{
origin = (0,9);
target = (0,8);
type = Stem;
},
{
horizontal = 1;
origin = (0,17);
target = (0,0);
type = Stem;
},
{
horizontal = 1;
origin = (0,12);
target = (0,11);
type = Stem;
},
{
horizontal = 1;
origin = (0,8);
target = down;
type = TopGhost;
}
);
layerId = "6CA6CED3-33C1-4F88-A0AA-B66472516184";
shapes = (
{
closed = 1;
nodes = (
(393.397,67.332,ls,{name = sv01;}),
(375.397,67.332,o),
(363.397,79.332,o),
(363.397,97.333,cs),
(363.397,1041.518,l,{name = dv01;}),
(742.722,1041.518,l),
(742.722,1106.518,l),
(363.397,1106.518,l,{name = dv02;}),
(363.397,1444.219,l,{name = av01;}),
(289.546,1444.219,l,{name = ab01;}),
(289.546,1106.518,l,{name = sv02;}),
(27.278,1106.518,l),
(27.278,1041.518,l,{name = sv03;}),
(289.546,1041.518,l),
(289.546,96.74,ls),
(289.546,38.828,o),
(328.155,0.219,o),
(386.068,0.219,cs,{name = ab02;}),
(729.854,0.219,l),
(729.854,67.332,l)
);
}
);
width = 826;
}
);
leftKerningGroup = t2;
rightKerningGroup = t;
unicode = 116;
},
{
glyphname = u;
layers = (
{
hints = (
{
horizontal = 1;
origin = (0,6);
target = up;
type = BottomGhost;
},
{
horizontal = 1;
origin = (0,10);
target = down;
type = TopGhost;
}
);
layerId = "FB39A38C-31F6-4F37-9C40-5E842EB56E93";
shapes = (
{
closed = 1;
nodes = (
(1205.588,-0.001,l,{name = ab01;}),
(794.091,-0.001,l),
(794.091,178.747,l),
(776.867,178.747,l),
(736.618,57.791,o),
(642.304,-20.871,o),
(489.03,-20.871,cs),
(251.554,-20.871,o),
(116.444,127.047,o),
(116.444,378.053,cs),
(116.444,1105.998,l,{name = av01;}),
(527.723,1105.998,l),
(527.723,453.999,ls),
(527.723,336.165,o),
(569.741,261.657,o),
(657.2,261.657,cs),
(742.216,261.657,o),
(794.091,344.634,o),
(794.091,459.759,cs),
(794.091,1105.998,l,{name = ab02;}),
(1205.588,1105.998,l)
);
}
);
width = 1332;
},
{
hints = (
{
origin = (0,9);
target = (0,12);
type = Stem;
},
{
place = (857,243);
type = Stem;
},
{
horizontal = 1;
origin = (0,6);
target = (0,15);
type = Stem;
},
{
horizontal = 1;
place = (0,21);
target = up;
type = BottomGhost;
},
{
horizontal = 1;
origin = (0,10);
target = down;
type = TopGhost;
}
);
layerId = "BB5EAC9A-3BFE-4B64-B8A6-57F3EF362270";
shapes = (
{
closed = 1;
nodes = (
(1099.759,-0.,l,{name = n00;}),
(856.511,-0.,l,{name = n01;}),
(856.511,202.472,l),
(845.502,202.472,l),
(794.695,63.369,o),
(677.543,-21.986,o),
(512.214,-21.986,cs,{name = n06;}),
(280.333,-21.986,o),
(143.722,131.739,o),
(143.722,372.783,cs,{name = n09;}),
(143.722,1105.992,l,{name = n10;}),
(386.862,1105.992,l),
(386.862,410.756,ls,{name = n12;}),
(386.862,260.99,o),
(463.217,151.331,o),
(605.73,151.331,cs,{name = n15;}),
(753.023,151.331,o),
(856.511,273.289,o),
(856.511,439.554,cs),
(856.511,1105.992,l,{name = ab01;}),
(1099.759,1105.992,l)
);
}
);
width = 1257;
},
{
hints = (
{
origin = (0,9);
target = (0,6);
type = Stem;
},
{
place = (919,74);
type = Stem;
},
{
horizontal = 1;
place = (113,255);
type = Stem;
},
{
horizontal = 1;
place = (0,21);
target = up;
type = BottomGhost;
},
{
horizontal = 1;
origin = (0,7);
target = down;
type = TopGhost;
}
);
layerId = "6CA6CED3-33C1-4F88-A0AA-B66472516184";
shapes = (
{
closed = 1;
nodes = (
(992.931,0,l,{name = av01;}),
(918.931,0,l,{name = av02;}),
(918.931,226.196,l),
(914.136,226.196,l,{name = iv01;}),
(824.983,41.005,o),
(694.853,-21.08,o),
(556.039,-22.962,cs),
(312.618,-26.261,o),
(172.,127.171,o),
(172.,367.513,cs),
(172.,1105.987,l,{name = ab01;}),
(246.,1105.987,l,{name = av00;}),
(246.,367.513,ls),
(246.,185.813,o),
(371.008,41.005,o),
(554.26,41.005,cs),
(761.941,41.005,o),
(918.931,201.943,o),
(918.931,419.35,cs),
(918.931,1105.987,l,{name = ab02;}),
(992.931,1105.987,l)
);
}
);
width = 1181;
}
);
leftKerningGroup = u;
rightKerningGroup = g;
unicode = 117;
},
{
glyphname = v;
layers = (
{
hints = (
{
horizontal = 1;
origin = (0,0);
target = up;
type = BottomGhost;
},
{
horizontal = 1;
origin = (0,1);
target = down;
type = TopGhost;
}
);
layerId = "FB39A38C-31F6-4F37-9C40-5E842EB56E93";
shapes = (
{
closed = 1;
nodes = (
(339,0,l,{name = n00;}),
(22.889,1106,l,{name = n01;}),
(453.444,1106,l),
(657.019,283.757,l),
(671.623,283.757,l),
(876.333,1106,l,{name = av01;}),
(1306.889,1106,l),
(991.333,0,l)
);
}
);
width = 1329;
},
{
hints = (
{
horizontal = 1;
origin = (0,0);
target = up;
type = BottomGhost;
},
{
horizontal = 1;
origin = (0,1);
target = down;
type = TopGhost;
}
);
layerId = "BB5EAC9A-3BFE-4B64-B8A6-57F3EF362270";
shapes = (
{
closed = 1;
nodes = (
(417,0,l,{name = n00;}),
(53.444,1106,l,{name = n01;}),
(306.222,1106,l),
(606.693,168.201,l),
(616.624,168.201,l),
(914.667,1106,l,{name = av01;}),
(1167.444,1106,l),
(806.667,0,l)
);
}
);
width = 1223;
},
{
hints = (
{
horizontal = 1;
origin = (0,0);
target = up;
type = BottomGhost;
},
{
horizontal = 1;
origin = (0,1);
target = down;
type = TopGhost;
}
);
layerId = "6CA6CED3-33C1-4F88-A0AA-B66472516184";
shapes = (
{
closed = 1;
nodes = (
(495,0,l,{name = ab01;}),
(84,1106,l,{name = av01;}),
(159,1106,l),
(556.367,52.646,l),
(561.624,52.646,l,{name = iv01;}),
(953,1106,l,{name = av02;}),
(1028,1106,l),
(622,0,l)
);
}
);
width = 1117;
}
);
leftKerningGroup = v2;
rightKerningGroup = v;
unicode = 118;
},
{
glyphname = w;
layers = (
{
hints = (
{
horizontal = 1;
origin = (0,0);
target = up;
type = BottomGhost;
},
{
horizontal = 1;
origin = (0,1);
target = down;
type = TopGhost;
}
);
layerId = "FB39A38C-31F6-4F37-9C40-5E842EB56E93";
shapes = (
{
closed = 1;
nodes = (
(294.667,0,l,{name = ab01;}),
(29.667,1106,l,{name = n01;}),
(469.111,1106,l),
(648.239,257.094,l),
(662.822,257.094,l),
(831.556,1106,l,{name = av01;}),
(1481.433,1106,l),
(1650.122,257.094,l),
(1664.75,257.094,l),
(1843.878,1106,l,{name = av02;}),
(2283.322,1106,l),
(2018.322,0,l,{name = ab02;}),
(1348.211,0,l),
(1165.978,842.862,l),
(1162.371,847.72,l,{name = iv01;}),
(964.778,0,l)
);
}
);
width = 2300;
},
{
hints = (
{
horizontal = 1;
origin = (0,0);
target = up;
type = BottomGhost;
},
{
horizontal = 1;
origin = (0,1);
target = down;
type = TopGhost;
}
);
layerId = "BB5EAC9A-3BFE-4B64-B8A6-57F3EF362270";
shapes = (
{
closed = 1;
nodes = (
(320.833,0,l,{name = n00;}),
(47.833,1106,l,{name = n01;}),
(305.056,1106,l),
(528.294,154.872,l),
(538.211,154.872,l),
(781.278,1106,l,{name = av01;}),
(1166.867,1106,l),
(1409.911,154.872,l),
(1419.85,154.872,l),
(1643.089,1106,l,{name = av02;}),
(1900.311,1106,l),
(1627.311,0,l,{name = ab01;}),
(1228.756,0,l),
(981.297,949.107,l),
(973.919,949.498,l),
(719.389,0,l)
);
}
);
width = 1942;
},
{
hints = (
{
horizontal = 1;
origin = (0,0);
target = up;
type = BottomGhost;
},
{
horizontal = 1;
origin = (0,1);
target = down;
type = TopGhost;
}
);
layerId = "6CA6CED3-33C1-4F88-A0AA-B66472516184";
shapes = (
{
closed = 1;
nodes = (
(347,0,l,{name = ab01;}),
(66,1106,l,{name = av01;}),
(141,1106,l),
(408.35,52.65,l),
(413.6,52.65,l,{name = iv01;}),
(731,1106,l,{name = av02;}),
(852.3,1106,l,{name = av02.1;}),
(1169.7,52.65,l),
(1174.95,52.65,l,{name = iv02;}),
(1442.3,1106,l,{name = av03;}),
(1517.3,1106,l,{name = av01.1;}),
(1236.3,0,l,{name = ab01.1;}),
(1109.3,0,l),
(794.695,1051.18,l),
(789.466,1051.277,l,{name = iv03;}),
(474,0,l)
);
}
);
width = 1584;
}
);
leftKerningGroup = v2;
rightKerningGroup = v;
unicode = 119;
},
{
glyphname = x;
layers = (
{
hints = (
{
horizontal = 1;
origin = (0,8);
target = up;
type = BottomGhost;
},
{
horizontal = 1;
origin = (0,1);
target = down;
type = TopGhost;
}
);
layerId = "FB39A38C-31F6-4F37-9C40-5E842EB56E93";
shapes = (
{
closed = 1;
nodes = (
(321.449,543.246,l),
(29.752,1106,l,{name = av01;}),
(462.43,1106,l),
(618.659,790.516,l),
(637.063,790.516,l),
(795.8,1106,l,{name = av02;}),
(1227.575,1106,l),
(897.387,558.342,l),
(1227.804,0,l,{name = n08;}),
(794.051,0,l),
(618.353,308.877,l),
(600.061,308.877,l),
(426.227,0,l,{name = ab01;}),
(30.739,0,l)
);
}
);
width = 1260;
},
{
hints = (
{
horizontal = 1;
origin = (0,1);
target = down;
type = TopGhost;
},
{
horizontal = 1;
origin = (0,8);
target = up;
type = BottomGhost;
}
);
layerId = "BB5EAC9A-3BFE-4B64-B8A6-57F3EF362270";
shapes = (
{
closed = 1;
nodes = (
(389.131,551.46,l),
(41.952,1106,l,{name = n01;}),
(307.07,1106,l),
(560.787,707.445,l),
(574.099,707.445,l),
(828.558,1106,l,{name = av01;}),
(1091.684,1106,l),
(727.785,560.036,l),
(1092.825,0,l,{name = n08;}),
(827.683,0,l),
(563.202,400.954,l),
(550.463,400.954,l),
(287.429,0,l,{name = ab01;}),
(42.959,0,l)
);
}
);
width = 1137;
},
{
hints = (
{
horizontal = 1;
origin = (0,1);
target = down;
type = TopGhost;
},
{
horizontal = 1;
origin = (0,8);
target = up;
type = BottomGhost;
}
);
layerId = "6CA6CED3-33C1-4F88-A0AA-B66472516184";
shapes = (
{
closed = 1;
nodes = (
(456.812,559.674,l),
(54.153,1106,l,{name = av01;}),
(151.71,1106,l),
(502.916,624.373,l),
(511.135,624.373,l),
(861.315,1106,l,{name = av02;}),
(955.793,1106,l),
(558.184,561.73,l),
(957.847,0,l,{name = ab01;}),
(861.315,0,l),
(508.051,493.032,l),
(500.865,493.032,l),
(148.63,0,l,{name = ab02;}),
(55.178,0,l)
);
}
);
width = 1014;
}
);
leftKerningGroup = x2;
rightKerningGroup = x;
unicode = 120;
},
{
glyphname = y;
layers = (
{
hints = (
{
horizontal = 1;
origin = (0,25);
target = up;
type = BottomGhost;
},
{
horizontal = 1;
origin = (0,14);
target = up;
type = BottomGhost;
},
{
horizontal = 1;
origin = (0,10);
target = down;
type = TopGhost;
}
);
layerId = "FB39A38C-31F6-4F37-9C40-5E842EB56E93";
shapes = (
{
closed = 1;
nodes = (
(1204.255,1105.998,l,{name = .av01;}),
(792.758,1105.998,l,{name = ab02;}),
(792.758,459.759,ls),
(792.758,344.634,o),
(740.882,261.657,o),
(655.866,261.657,cs),
(568.408,261.657,o),
(526.39,336.165,o),
(526.39,453.999,cs),
(526.39,1105.998,l,{name = .av02;}),
(116.111,1105.998,l,{name = ab01;}),
(116.111,378.052,ls),
(116.111,127.046,o),
(265.684,-20.871,o),
(496.17,-20.871,cs,{name = .av04;}),
(644.932,-20.871,o),
(736.469,57.791,o),
(775.534,178.747,c),
(792.758,178.747,l),
(792.758,-94.74,ls),
(792.758,-132.738,o),
(767.426,-157.125,o),
(729.428,-157.125,cs),
(227.57,-157.125,l),
(227.427,-496.485,l,{name = .av03;}),
(973,-496.485,ls),
(1152,-496.485,o),
(1204.255,-414,o),
(1204.255,-245,cs)
);
}
);
width = 1331;
},
{
hints = (
{
origin = (0,11);
target = (0,8);
type = Stem;
},
{
origin = (0,1);
target = (0,0);
type = Stem;
},
{
horizontal = 1;
origin = (0,25);
target = (0,22);
type = Stem;
},
{
horizontal = 1;
origin = (0,14);
target = (0,5);
type = Stem;
},
{
horizontal = 1;
origin = (0,10);
target = down;
type = TopGhost;
}
);
layerId = "BB5EAC9A-3BFE-4B64-B8A6-57F3EF362270";
shapes = (
{
closed = 1;
nodes = (
(1087.563,1105.992,l,{name = n28;}),
(844.844,1105.992,l,{name = n27;}),
(844.844,439.554,ls),
(844.844,273.289,o),
(741.576,151.331,o),
(594.596,151.331,cs,{name = n23;}),
(452.386,151.331,o),
(375.686,260.99,o),
(375.686,410.756,cs),
(375.686,1105.992,l,{name = n19;}),
(133.055,1105.992,l,{name = n18;}),
(133.055,372.783,ls),
(133.055,131.739,o),
(276.398,-21.986,o),
(504.783,-21.986,cs,{name = n14;}),
(667.856,-21.986,o),
(783.62,63.369,o),
(833.834,202.472,c,{name = .sh01;}),
(844.844,202.472,l),
(844.844,-164.673,ls,{name = .sh02;}),
(844.844,-188.173,o),
(829.272,-203.367,o),
(805.913,-203.367,cs),
(252.482,-203.367,l,{name = n05;}),
(252.482,-430.695,l,{name = n04;}),
(935.341,-430.695,ls),
(1046.798,-430.695,o),
(1087.564,-374.393,o),
(1087.563,-267.304,cs)
);
}
);
width = 1235;
},
{
hints = (
{
origin = (0,11);
target = (0,8);
type = Stem;
},
{
origin = (0,19);
target = (0,28);
type = Stem;
},
{
horizontal = 1;
origin = (0,25);
target = (0,22);
type = Stem;
},
{
horizontal = 1;
origin = (0,14);
target = (0,5);
type = Stem;
},
{
horizontal = 1;
origin = (0,10);
target = down;
type = TopGhost;
}
);
layerId = "6CA6CED3-33C1-4F88-A0AA-B66472516184";
shapes = (
{
closed = 1;
nodes = (
(989.872,1105.987,l,{name = .av01;}),
(915.931,1105.987,l,{name = .ah01;}),
(915.931,419.35,ls),
(915.931,201.943,o),
(759.891,41.005,o),
(549.754,41.005,cs,{name = .dv04;}),
(352.777,41.005,o),
(242.404,185.813,o),
(242.404,367.513,cs),
(242.404,1105.987,l,{name = .av02;}),
(168.638,1105.987,l,{name = .sh01;}),
(168.638,367.513,ls),
(168.638,136.432,o),
(305.341,-23.102,o),
(530.948,-23.102,cs,{name = .dv03;}),
(707.802,-23.102,o),
(849.771,68.948,o),
(911.136,226.196,c,{name = .sh02;}),
(915.931,226.196,l,{name = .iv01;}),
(915.931,-274.607,ls,{name = .sh03;}),
(915.931,-283.608,o),
(910.118,-289.609,o),
(901.4,-289.609,cs,{name = .sh04;}),
(295.723,-289.609,l,{name = .dv02;}),
(295.723,-364.905,l,{name = .dv01;}),
(917.683,-364.905,ls,{name = .sh05;}),
(961.597,-364.905,o),
(989.872,-334.786,o),
(989.872,-289.608,cs)
);
}
);
width = 1179;
}
);
rightKerningGroup = v;
unicode = 121;
},
{
glyphname = z;
layers = (
{
hints = (
{
horizontal = 1;
origin = (0,0);
target = up;
type = BottomGhost;
},
{
horizontal = 1;
origin = (0,5);
target = down;
type = TopGhost;
}
);
layerId = "FB39A38C-31F6-4F37-9C40-5E842EB56E93";
shapes = (
{
closed = 1;
nodes = (
(50.111,0,l,{name = ab01;}),
(50.111,412.292,l),
(627.217,771,l),
(627.215,791.133,l),
(51.222,791.133,l,{name = n03;}),
(51.222,1106,l,{name = n04;}),
(1042.778,1106,l),
(1042.778,697.8,l),
(517.014,339,l),
(517.014,318.959,l),
(1042.556,318.959,l,{name = n08;}),
(1042.556,0,l,{name = n09;})
);
}
);
width = 1094;
},
{
hints = (
{
horizontal = 1;
origin = (0,0);
target = (0,9);
type = Stem;
},
{
horizontal = 1;
origin = (0,3);
target = (0,6);
type = Stem;
}
);
layerId = "BB5EAC9A-3BFE-4B64-B8A6-57F3EF362270";
shapes = (
{
closed = 1;
nodes = (
(88.056,0,l,{name = .ab01;}),
(88.056,270.337,l),
(699.856,874.564,l),
(699.973,897.376,l,{name = .dv01;}),
(93.611,897.376,l,{name = n04;}),
(93.611,1106,l,{name = n05;}),
(963.389,1106,l,{name = .dv02;}),
(963.389,830.709,l),
(356.859,230.946,l),
(356.045,208.67,l,{name = .sv01;}),
(962.278,208.67,l,{name = n10;}),
(962.278,0,l,{name = n11;})
);
}
);
width = 1051;
},
{
hints = (
{
horizontal = 1;
origin = (0,0);
target = (0,9);
type = Stem;
},
{
horizontal = 1;
origin = (0,3);
target = (0,6);
type = Stem;
}
);
layerId = "6CA6CED3-33C1-4F88-A0AA-B66472516184";
shapes = (
{
closed = 1;
nodes = (
(126,0,l,{name = .ab01;}),
(126,110.382,l),
(814.494,1010.128,l),
(814.731,1035.619,l,{name = .dv01;}),
(136,1035.619,l),
(136,1106,l,{name = .av02;}),
(884,1106,l,{name = av01;}),
(884,995.618,l),
(196.702,94.891,l),
(195.075,70.382,l,{name = .sv01;}),
(882,70.382,l),
(882,0,l)
);
}
);
width = 1008;
}
);
leftKerningGroup = z2;
rightKerningGroup = z;
unicode = 122;
},
